<svg width="540" height="500" viewBox="0 0 540 500" fill="none" xmlns="http://www.w3.org/2000/svg">
<path d="M107.115 418.069C203.835 480.644 360.709 480.644 457.428 418.069C554.148 355.494 554.148 254.053 457.428 191.491C360.709 128.929 203.835 128.916 107.115 191.491C10.396 254.066 10.3607 355.507 107.115 418.069Z" fill="#FAFAFA"/>
<path d="M485.336 186.905C485.866 179.643 490.974 167.265 498.534 158.479C506.095 149.693 518.197 145.403 525.663 148.957C532.622 152.277 531.089 162.485 521.912 168.519C512.736 174.553 499.077 181.969 494.394 193.404L485.336 207.126V186.905Z" fill="#02897A"/>
<path opacity="0.2" d="M485.336 186.905C485.866 179.643 490.974 167.265 498.534 158.479C506.095 149.693 518.197 145.403 525.663 148.957C532.622 152.277 531.089 162.485 521.912 168.519C512.736 174.553 499.077 181.969 494.394 193.404L485.336 207.126V186.905Z" fill="black"/>
<path d="M522.773 152.316C514.104 154.125 488.697 172.046 485.371 199.102" stroke="white" stroke-miterlimit="10" stroke-linecap="round"/>
<path d="M486.362 219.505C487.694 215.628 493.498 208.431 501.848 204.904C510.199 201.377 516.498 198.224 519.541 192.539C522.584 186.854 517.288 181.272 508.855 181.673C500.421 182.073 486.373 191.751 485.383 207.126L486.362 219.505Z" fill="#02897A"/>
<path d="M513.148 186.272C505.859 187.06 488.143 198.831 485.76 212.01" stroke="white" stroke-miterlimit="10" stroke-linecap="round"/>
<path d="M50.6877 256.405C50.3273 246.14 48.2442 236.036 44.5425 226.597C38.3265 210.459 25.753 201.919 19.0534 200.756C12.3538 199.593 5.43015 208.508 13.958 219.103C22.4858 229.698 38.8337 243.885 43.5282 265.347L51.2067 279.999L50.6877 256.405Z" fill="#02897A"/>
<path opacity="0.2" d="M50.6877 256.405C50.3273 246.14 48.2442 236.036 44.5425 226.597C38.3265 210.459 25.753 201.919 19.0534 200.756C12.3538 199.593 5.43015 208.508 13.958 219.103C22.4858 229.698 38.8337 243.885 43.5282 265.347L51.2067 279.999L50.6877 256.405Z" fill="black"/>
<path d="M19.0536 205.679C32.8066 214.646 48.7417 238.175 50.971 269.443" stroke="white" stroke-linecap="round" stroke-linejoin="round"/>
<path d="M49.6381 295.025C47.7391 286.691 42.7734 278.564 32.8538 270.398C22.9342 262.232 9.67652 255.216 10.7617 246.883C11.8468 238.549 21.8962 239.13 29.2563 242.813C36.6164 246.495 49.3786 261.651 51.2069 279.972L49.6381 295.025Z" fill="#02897A"/>
<path d="M17.7206 244.273C27.2746 246.857 47.7744 267.401 50.7467 284.896" stroke="white" stroke-linecap="round" stroke-linejoin="round"/>
<path d="M52.3512 300.168C51.5587 299.602 50.8997 298.839 50.4282 297.94C49.9567 297.042 49.686 296.034 49.6383 294.999V108.489C49.6879 107.454 49.9593 106.447 50.4307 105.549C50.902 104.651 51.56 103.888 52.3512 103.32L113.178 64.8555C113.965 64.3177 114.87 64.0245 115.797 64.0075C116.724 63.9905 117.638 64.2502 118.44 64.7588C119.243 65.2674 119.904 66.0057 120.352 66.8945C120.801 67.7833 121.02 68.7891 120.987 69.8041V82.2597C120.987 84.159 122.166 84.9343 123.711 83.9781L199.825 35.8485C200.61 35.3114 201.514 35.0184 202.44 35.0008C203.366 34.9833 204.279 35.2419 205.081 35.7489C205.883 36.2559 206.544 36.9923 206.994 37.8792C207.443 38.7662 207.664 39.7703 207.633 40.7842V327.469L151.536 362.923L52.3512 300.168Z" fill="#263238"/>
<path d="M205.085 35.758C204.263 35.319 203.358 35.0995 202.443 35.1175C201.529 35.1354 200.632 35.3904 199.824 35.8613L123.711 83.991C122.201 84.9471 120.986 84.1719 120.986 82.2726V69.817C121.02 68.802 120.801 67.7962 120.352 66.9074C119.903 66.0186 119.243 65.2803 118.44 64.7717C117.637 64.2631 116.724 64.0034 115.797 64.0204C114.87 64.0374 113.964 64.3306 113.178 64.8684L52.3509 103.333C51.5516 103.888 50.8908 104.652 50.4283 105.556L85.3181 127.624L207.633 50.2421V40.7971C207.599 39.7969 207.351 38.8195 206.909 37.944C206.466 37.0685 205.841 36.3196 205.085 35.758Z" fill="#455A64"/>
<path d="M204.92 39.0787L123.711 90.4386C122.201 91.3947 120.986 90.6194 120.986 88.7201V69.8171C120.986 67.9178 119.807 67.1425 118.274 68.0986L57.4465 106.564C56.6547 107.13 55.9962 107.894 55.5248 108.792C55.0533 109.69 54.7823 110.697 54.7336 111.732V291.86C54.7817 292.896 55.0538 293.905 55.5275 294.803C56.0012 295.702 56.6629 296.464 57.4583 297.028L156.666 359.771L207.633 327.547V40.7972C207.633 38.8978 206.418 38.1355 204.92 39.0787Z" fill="#37474F"/>
<path d="M55.5359 294.728C55.9912 295.638 56.6535 296.404 57.4585 296.951L156.667 359.694L207.633 327.469V198.533L55.5359 294.728Z" fill="#263238"/>
<path d="M67.8499 335.79L67.1068 335.325C66.4732 334.874 65.9455 334.265 65.5664 333.549C65.1873 332.833 64.9674 332.03 64.9247 331.203V156.192C64.9646 155.365 65.1833 154.56 65.5626 153.843C65.942 153.127 66.4712 152.519 67.1068 152.07L230.94 48.4461C231.614 48.0705 232.36 47.8748 233.116 47.8748C233.873 47.8748 234.618 48.0705 235.292 48.4461L236.035 48.9242C236.671 49.373 237.2 49.9806 237.58 50.6972C237.959 51.4138 238.178 52.2187 238.218 53.0459V228.018C238.175 228.845 237.955 229.648 237.576 230.365C237.197 231.081 236.669 231.689 236.035 232.14L72.2022 335.79C71.528 336.165 70.7824 336.361 70.026 336.361C69.2697 336.361 68.524 336.165 67.8499 335.79Z" fill="#F5F5F5"/>
<path d="M75.1156 159.849L65.5616 153.802C65.172 154.515 64.953 155.324 64.9247 156.154V331.165C64.9674 331.991 65.1873 332.795 65.5664 333.511C65.9455 334.227 66.4732 334.835 67.1068 335.286L67.8499 335.752C68.524 336.127 69.2697 336.323 70.026 336.323C70.7824 336.323 71.528 336.127 72.2022 335.752L75.1156 333.904V159.849Z" fill="#E0E0E0"/>
<path d="M70.0319 334.382V159.371C70.0724 158.545 70.29 157.742 70.6671 157.026C71.0442 156.309 71.5701 155.701 72.2021 155.249L236.035 51.6248C237.215 50.8754 238.217 51.4827 238.217 53.0074V228.018C238.175 228.845 237.955 229.649 237.576 230.365C237.197 231.081 236.669 231.689 236.035 232.14L72.2021 335.79C70.999 336.514 70.0319 335.906 70.0319 334.382Z" fill="#EBEBEB"/>
<path d="M82.9356 161.361L225.302 71.329C226.8 70.3729 228.015 71.1481 228.015 73.0475V207.991C227.967 209.026 227.696 210.034 227.225 210.932C226.753 211.831 226.094 212.594 225.302 213.16L82.9356 303.178C81.4377 304.134 80.2228 303.359 80.2228 301.46V166.529C80.2723 165.494 80.5438 164.487 81.0151 163.589C81.4865 162.691 82.1444 161.928 82.9356 161.361Z" fill="white"/>
<path d="M106.467 154.628C115.337 149.021 122.52 153.569 122.52 164.784C122.52 175.999 115.337 189.631 106.467 195.238C97.5968 200.846 90.4136 196.311 90.4136 185.096C90.4136 173.88 97.5968 160.236 106.467 154.628Z" fill="#FFB900"/>
<path d="M121.34 195.303C121.885 194.191 122.662 193.237 123.608 192.517C124.553 191.797 125.641 191.332 126.782 191.161C127.923 190.989 129.085 191.116 130.173 191.531C131.261 191.945 132.243 192.636 133.041 193.546L151.536 214.645L186.685 120.182C187.201 118.797 188.061 117.598 189.168 116.722C190.274 115.845 191.583 115.327 192.946 115.224C194.308 115.122 195.67 115.44 196.875 116.143C198.081 116.846 199.082 117.905 199.766 119.2L227.991 172.744V207.991C227.943 209.026 227.673 210.034 227.201 210.932C226.73 211.831 226.071 212.594 225.278 213.16L82.9356 303.178C81.4377 304.134 80.2228 303.359 80.2228 301.46V279.107L121.34 195.303Z" fill="#FFB900"/>
<path d="M98.4579 355.171L97.703 354.693C97.071 354.241 96.5451 353.633 96.168 352.917C95.7909 352.2 95.5732 351.397 95.5327 350.571V175.496C95.5732 174.67 95.7909 173.867 96.168 173.151C96.5451 172.435 97.071 171.826 97.703 171.374L261.548 67.7629C262.219 67.3822 262.963 67.1836 263.718 67.1836C264.474 67.1836 265.218 67.3822 265.889 67.7629L266.643 68.228C267.276 68.6798 267.801 69.2884 268.178 70.0046C268.556 70.7207 268.773 71.5242 268.814 72.3497V247.361C268.78 248.188 268.565 248.994 268.187 249.712C267.81 250.429 267.28 251.036 266.643 251.483L102.775 355.171C102.107 355.548 101.367 355.744 100.616 355.744C99.8655 355.744 99.1255 355.548 98.4579 355.171Z" fill="#F5F5F5"/>
<path d="M105.7 179.204L96.146 173.157C95.7578 173.866 95.5388 174.67 95.509 175.496V350.507C95.5496 351.332 95.7672 352.136 96.1443 352.852C96.5214 353.568 97.0473 354.177 97.6793 354.628L98.4342 355.106C99.1049 355.487 99.8492 355.686 100.604 355.686C101.36 355.686 102.104 355.487 102.775 355.106L105.7 353.259V179.204Z" fill="#E0E0E0"/>
<path d="M100.605 353.737V178.726C100.646 177.901 100.864 177.098 101.241 176.382C101.618 175.666 102.144 175.057 102.775 174.604L266.62 70.9802C267.799 70.2179 268.79 70.8381 268.79 72.3498V247.361C268.756 248.188 268.541 248.994 268.164 249.712C267.786 250.429 267.257 251.036 266.62 251.483L102.775 355.171C101.584 355.869 100.605 355.249 100.605 353.737Z" fill="#EBEBEB"/>
<path d="M113.52 180.742L255.886 90.6973C257.384 89.754 258.599 90.5293 258.599 92.4157V227.334C258.551 228.368 258.28 229.376 257.808 230.274C257.337 231.172 256.678 231.936 255.886 232.502L113.52 322.547C112.01 323.49 110.796 322.727 110.796 320.828V185.91C110.845 184.874 111.117 183.865 111.591 182.967C112.064 182.069 112.725 181.306 113.52 180.742Z" fill="white"/>
<path d="M137.051 173.983C145.909 168.376 153.104 172.924 153.104 184.139C153.104 195.354 145.909 208.986 137.051 214.593C128.193 220.201 120.998 215.653 120.998 204.438C120.998 193.222 128.181 179.591 137.051 173.983Z" fill="#11B5E4"/>
<path d="M151.925 214.659C152.468 213.547 153.244 212.592 154.188 211.872C155.133 211.152 156.22 210.688 157.36 210.516C158.5 210.345 159.662 210.472 160.748 210.886C161.835 211.301 162.817 211.991 163.614 212.902L182.203 234.001L217.34 139.538C217.854 138.149 218.715 136.947 219.823 136.068C220.931 135.189 222.242 134.669 223.606 134.567C224.971 134.464 226.334 134.784 227.541 135.489C228.748 136.195 229.75 137.257 230.432 138.556L258.646 192.099V227.334C258.598 228.369 258.327 229.376 257.855 230.274C257.384 231.172 256.725 231.936 255.933 232.502L113.567 322.547C112.057 323.49 110.843 322.728 110.843 320.828V298.475L151.925 214.659Z" fill="#11B5E4"/>
<path d="M129.007 374.435L128.264 373.97C127.632 373.518 127.106 372.91 126.729 372.193C126.352 371.477 126.134 370.674 126.094 369.848V194.837C126.134 194.01 126.352 193.205 126.732 192.489C127.111 191.772 127.64 191.164 128.276 190.716L292.109 87.0914C292.783 86.7158 293.529 86.52 294.285 86.52C295.041 86.52 295.787 86.7158 296.461 87.0914L297.204 87.5695C297.84 88.0183 298.369 88.6259 298.749 89.3425C299.128 90.059 299.347 90.864 299.386 91.6912V266.702C299.344 267.529 299.124 268.333 298.745 269.049C298.366 269.765 297.838 270.373 297.204 270.824L133.371 374.435C132.695 374.813 131.948 375.01 131.189 375.01C130.431 375.01 129.683 374.813 129.007 374.435Z" fill="#F5F5F5"/>
<path d="M136.285 198.534L126.766 192.487C126.376 193.199 126.157 194.008 126.129 194.838V369.849C126.17 370.675 126.387 371.478 126.764 372.195C127.141 372.911 127.667 373.519 128.299 373.971L129.042 374.436C129.717 374.812 130.462 375.008 131.219 375.008C131.975 375.008 132.721 374.812 133.395 374.436L136.32 372.589L136.285 198.534Z" fill="#E0E0E0"/>
<path d="M131.189 373.066V198.055C131.23 197.23 131.447 196.426 131.824 195.71C132.202 194.994 132.727 194.385 133.359 193.934L297.193 90.2965C298.372 89.5471 299.375 90.1544 299.375 91.679V266.703C299.332 267.529 299.112 268.333 298.733 269.049C298.354 269.765 297.826 270.374 297.193 270.825L133.359 374.436C132.156 375.198 131.189 374.552 131.189 373.066Z" fill="#EBEBEB"/>
<path d="M144.093 200.033L286.459 110.001C287.957 109.045 289.172 109.82 289.172 111.72V246.638C289.123 247.672 288.852 248.68 288.381 249.578C287.909 250.476 287.251 251.239 286.459 251.806L144.093 341.863C142.595 342.82 141.38 342.044 141.38 340.145V205.188C141.431 204.156 141.704 203.151 142.175 202.256C142.646 201.36 143.303 200.599 144.093 200.033Z" fill="white"/>
<path d="M167.624 193.314C176.494 187.706 183.677 192.254 183.677 203.469C183.677 214.684 176.494 228.316 167.624 233.923C158.754 239.531 151.536 235.009 151.536 223.781C151.536 212.552 158.754 198.921 167.624 193.314Z" fill="#F03E3D"/>
<path d="M182.498 233.988C183.042 232.876 183.819 231.921 184.765 231.201C185.711 230.481 186.798 230.017 187.939 229.845C189.08 229.674 190.242 229.801 191.33 230.215C192.418 230.63 193.401 231.32 194.198 232.23L212.728 253.33L247.877 158.867C248.393 157.482 249.254 156.283 250.36 155.406C251.467 154.53 252.776 154.011 254.138 153.909C255.501 153.807 256.862 154.125 258.068 154.828C259.273 155.531 260.275 156.59 260.958 157.885L289.184 211.428V246.637C289.131 247.672 288.857 248.679 288.384 249.577C287.91 250.475 287.251 251.238 286.459 251.805L144.093 341.863C142.595 342.819 141.38 342.044 141.38 340.144V317.791L182.498 233.988Z" fill="#F03E3D"/>
<path d="M156.666 359.693L171.953 350.028V369.371L156.666 359.693Z" fill="#263238"/>
<path d="M171.953 224.53V365.934C171.953 367.834 170.773 368.596 169.24 367.653L156.666 359.694L151.536 362.924L174.3 377.317C175.142 377.789 176.073 378.035 177.019 378.035C177.964 378.035 178.896 377.789 179.738 377.317L337.426 277.647C338.219 277.081 338.879 276.318 339.353 275.42C339.826 274.522 340.099 273.514 340.15 272.479V124.614C340.181 123.599 339.96 122.593 339.51 121.705C339.06 120.817 338.398 120.079 337.595 119.571C336.792 119.063 335.878 118.804 334.951 118.82C334.023 118.837 333.118 119.129 332.33 119.665L174.678 219.375C173.884 219.938 173.224 220.698 172.751 221.594C172.277 222.49 172.004 223.496 171.953 224.53Z" fill="#263238"/>
<path d="M182.203 227.54L340.256 127.625V124.614C340.287 123.599 340.066 122.593 339.616 121.705C339.166 120.817 338.504 120.079 337.701 119.571C336.898 119.063 335.984 118.804 335.057 118.82C334.129 118.837 333.224 119.129 332.436 119.665L174.678 219.375C173.873 219.922 173.21 220.687 172.755 221.597L182.203 227.54Z" fill="#455A64"/>
<path d="M337.426 122.895L179.773 222.604C178.98 223.17 178.319 223.933 177.846 224.831C177.372 225.729 177.099 226.737 177.048 227.772V375.598C177.048 377.498 178.228 378.273 179.773 377.317L337.426 277.646C338.219 277.081 338.879 276.318 339.353 275.42C339.826 274.521 340.099 273.514 340.15 272.478V124.613C340.15 122.714 338.924 121.939 337.426 122.895Z" fill="#37474F"/>
<path d="M219.027 314.174C218.725 314.178 218.428 314.094 218.166 313.928C217.852 313.702 217.6 313.386 217.436 313.016C217.272 312.645 217.202 312.233 217.234 311.822V239.957C217.276 239.019 217.521 238.105 217.95 237.292C218.379 236.478 218.979 235.788 219.699 235.28L296.91 186.452C297.208 186.194 297.571 186.04 297.95 186.01C298.33 185.981 298.709 186.076 299.038 186.285C299.367 186.494 299.632 186.806 299.797 187.182C299.962 187.557 300.021 187.978 299.965 188.391V260.256C299.923 261.194 299.678 262.108 299.249 262.921C298.82 263.735 298.22 264.424 297.5 264.933L220.289 313.825C219.903 314.059 219.468 314.179 219.027 314.174ZM298.172 187.331C297.931 187.343 297.699 187.428 297.5 187.576L220.289 236.391C219.748 236.788 219.297 237.316 218.972 237.934C218.647 238.553 218.456 239.245 218.414 239.957V311.822C218.392 312.004 218.412 312.189 218.472 312.36C218.532 312.532 218.629 312.684 218.756 312.804C218.913 312.867 219.082 312.884 219.248 312.855C219.413 312.825 219.568 312.75 219.699 312.636L296.91 263.809C297.452 263.415 297.903 262.89 298.228 262.273C298.554 261.657 298.744 260.966 298.785 260.256V188.391C298.808 188.209 298.788 188.023 298.728 187.852C298.669 187.68 298.571 187.528 298.443 187.409C298.361 187.356 298.267 187.329 298.172 187.331Z" fill="#FAFAFA"/>
<path d="M231.471 252.283C230.797 252.291 230.134 252.104 229.548 251.741C228.82 251.193 228.238 250.442 227.865 249.565C227.492 248.687 227.34 247.717 227.425 246.753C227.551 244.271 228.208 241.857 229.343 239.704C230.478 237.552 232.06 235.722 233.959 234.362C234.649 233.748 235.493 233.378 236.38 233.302C237.266 233.227 238.152 233.448 238.921 233.938C239.689 234.427 240.303 235.162 240.681 236.043C241.059 236.925 241.183 237.911 241.036 238.872C240.913 241.354 240.257 243.77 239.122 245.923C237.986 248.076 236.404 249.905 234.502 251.263C233.587 251.88 232.544 252.231 231.471 252.283ZM237.038 234.634C236.155 234.677 235.297 234.971 234.549 235.486C232.828 236.726 231.398 238.392 230.373 240.349C229.349 242.306 228.759 244.5 228.652 246.753C228.496 247.492 228.56 248.267 228.836 248.963C229.112 249.659 229.585 250.239 230.185 250.618C230.785 250.997 231.48 251.155 232.168 251.069C232.856 250.983 233.501 250.657 234.007 250.139C235.727 248.898 237.157 247.232 238.181 245.275C239.206 243.318 239.796 241.125 239.904 238.872C239.985 238.135 239.886 237.387 239.617 236.706C239.347 236.025 238.917 235.435 238.371 234.996C237.966 234.742 237.504 234.617 237.038 234.634Z" fill="#FAFAFA"/>
<path d="M217.824 308.772C217.739 308.752 217.659 308.712 217.588 308.656C217.519 308.618 217.458 308.565 217.408 308.501C217.358 308.436 217.321 308.361 217.298 308.281C217.275 308.2 217.267 308.115 217.274 308.031C217.281 307.947 217.304 307.865 217.341 307.79L240.199 258.627C240.543 257.883 241.042 257.238 241.655 256.744C242.268 256.25 242.978 255.921 243.729 255.782C244.479 255.644 245.249 255.701 245.976 255.948C246.703 256.195 247.366 256.626 247.913 257.206L270.513 281.032C270.568 281.091 270.611 281.161 270.641 281.239C270.671 281.316 270.686 281.4 270.686 281.484C270.686 281.568 270.671 281.651 270.641 281.729C270.611 281.807 270.568 281.877 270.513 281.936C270.458 281.997 270.393 282.045 270.321 282.077C270.249 282.11 270.172 282.127 270.094 282.127C270.016 282.127 269.939 282.11 269.867 282.077C269.795 282.045 269.73 281.997 269.675 281.936L247.076 258.175C246.661 257.739 246.158 257.416 245.609 257.23C245.06 257.044 244.478 257.002 243.911 257.106C243.344 257.21 242.807 257.458 242.343 257.83C241.879 258.202 241.5 258.687 241.237 259.247L218.379 308.424C218.325 308.533 218.245 308.624 218.147 308.685C218.049 308.747 217.937 308.777 217.824 308.772Z" fill="#FAFAFA"/>
<path d="M258.599 270.088C258.522 270.106 258.441 270.106 258.364 270.088C258.222 270.02 258.111 269.894 258.054 269.737C257.996 269.58 257.997 269.405 258.057 269.248L275.749 224.439C276.066 223.625 276.567 222.913 277.206 222.372C277.845 221.831 278.601 221.479 279.4 221.35C280.199 221.22 281.015 221.317 281.77 221.632C282.525 221.947 283.193 222.468 283.711 223.147L299.8 244.454C299.85 244.518 299.889 244.592 299.912 244.672C299.936 244.753 299.945 244.838 299.939 244.922C299.932 245.007 299.91 245.089 299.874 245.163C299.838 245.238 299.789 245.304 299.729 245.358C299.621 245.451 299.487 245.5 299.349 245.497C299.212 245.495 299.079 245.441 298.974 245.345L282.885 224.039C282.5 223.526 282 223.131 281.435 222.89C280.87 222.65 280.258 222.573 279.657 222.666C279.057 222.76 278.488 223.02 278.007 223.424C277.525 223.827 277.145 224.359 276.905 224.969L259.213 269.765C259.154 269.882 259.063 269.976 258.953 270.033C258.843 270.091 258.72 270.11 258.599 270.088Z" fill="#FAFAFA"/>
<path d="M316.501 155.675C312.857 155.675 310.415 153.285 310.415 149.731L310.734 127.327C310.734 121.215 310.734 111.938 316.962 107.946C318.248 107.051 319.731 106.551 321.255 106.5C322.779 106.449 324.287 106.848 325.621 107.656C326.955 108.463 328.067 109.649 328.838 111.089C329.61 112.529 330.014 114.171 330.007 115.84C330.007 117.636 329.948 119.833 329.853 122.378C329.848 122.634 329.795 122.886 329.698 123.119C329.602 123.352 329.464 123.561 329.292 123.735C329.121 123.908 328.919 124.042 328.7 124.129C328.48 124.215 328.247 124.253 328.013 124.239C327.781 124.227 327.553 124.165 327.342 124.057C327.132 123.949 326.943 123.796 326.786 123.608C326.629 123.419 326.508 123.199 326.429 122.959C326.351 122.719 326.316 122.465 326.327 122.21C326.409 119.768 326.468 117.559 326.468 115.84C326.476 114.85 326.236 113.877 325.775 113.025C325.314 112.173 324.649 111.476 323.852 111.009C323.055 110.542 322.156 110.323 321.254 110.375C320.351 110.427 319.478 110.749 318.731 111.305C314.614 113.889 314.272 120.35 314.272 127.301L313.954 149.731C313.954 151.411 315.334 151.773 316.501 151.773C318.426 151.723 320.258 150.855 321.609 149.353C322.96 147.851 323.726 145.832 323.744 143.723L323.614 134.873C323.614 134.359 323.8 133.866 324.132 133.502C324.464 133.139 324.914 132.934 325.383 132.934C325.852 132.934 326.302 133.139 326.634 133.502C326.966 133.866 327.152 134.359 327.152 134.873L327.282 143.736C327.292 146.883 326.163 149.906 324.142 152.144C322.122 154.381 319.374 155.651 316.501 155.675Z" fill="#BA68C8"/>
<path d="M343.064 293.384L220.006 371.218C219.372 371.669 218.845 372.278 218.466 372.994C218.087 373.71 217.867 374.513 217.824 375.34V376.283C217.866 377.112 218.085 377.918 218.464 378.636C218.843 379.354 219.372 379.965 220.006 380.418L322.682 445.357C323.356 445.733 324.102 445.929 324.858 445.929C325.615 445.929 326.36 445.733 327.034 445.357L450.092 367.523C450.726 367.072 451.253 366.464 451.632 365.748C452.012 365.031 452.231 364.228 452.274 363.401V362.445C452.231 361.619 452.012 360.815 451.632 360.099C451.253 359.383 450.726 358.774 450.092 358.323L347.416 293.384C346.742 293.008 345.996 292.812 345.24 292.812C344.484 292.812 343.738 293.008 343.064 293.384Z" fill="#455A64"/>
<path d="M217.824 375.34V376.283C217.866 377.112 218.085 377.918 218.464 378.636C218.843 379.354 219.372 379.965 220.006 380.418L322.682 445.357C323.35 445.743 324.097 445.939 324.852 445.926V433.832L222.919 369.384L220.006 371.231C219.374 371.681 218.847 372.287 218.468 373.001C218.089 373.715 217.869 374.516 217.824 375.34Z" fill="#263238"/>
<path d="M220.006 371.218L343.064 293.383C343.738 293.008 344.483 292.812 345.24 292.812C345.996 292.812 346.742 293.008 347.416 293.383L450.092 358.323C450.357 358.417 450.588 358.601 450.752 358.849C450.916 359.096 451.004 359.393 451.004 359.699C451.004 360.004 450.916 360.302 450.752 360.549C450.588 360.796 450.357 360.98 450.092 361.075L327.034 438.909C326.36 439.285 325.614 439.481 324.858 439.481C324.102 439.481 323.356 439.285 322.682 438.909L220.006 373.97C219.741 373.875 219.51 373.691 219.346 373.444C219.182 373.197 219.094 372.899 219.094 372.594C219.094 372.288 219.182 371.991 219.346 371.744C219.51 371.496 219.741 371.312 220.006 371.218Z" fill="#37474F"/>
<path d="M235.281 373.97L315.027 424.361C315.698 424.741 316.442 424.94 317.197 424.94C317.953 424.94 318.697 424.741 319.367 424.361L427.151 356.204C427.416 356.109 427.647 355.925 427.811 355.678C427.975 355.431 428.063 355.133 428.063 354.828C428.063 354.522 427.975 354.225 427.811 353.978C427.647 353.73 427.416 353.546 427.151 353.452L347.404 303.061C346.728 302.691 345.983 302.499 345.228 302.499C344.473 302.499 343.728 302.691 343.052 303.061L235.281 371.218C235.015 371.312 234.784 371.496 234.62 371.744C234.457 371.991 234.368 372.288 234.368 372.594C234.368 372.899 234.457 373.197 234.62 373.444C234.784 373.691 235.015 373.875 235.281 373.97Z" fill="white"/>
<path d="M259.873 363.31C265.499 359.757 274.629 359.757 280.255 363.31C285.881 366.863 285.893 372.639 280.255 376.231C274.617 379.823 265.499 379.784 259.873 376.231C254.247 372.678 254.247 366.876 259.873 363.31Z" fill="#02897A"/>
<path d="M427.162 353.491L403.855 338.748L333.085 331.526C332.224 331.438 331.357 331.594 330.567 331.979C329.777 332.363 329.091 332.964 328.574 333.722C328.056 334.481 327.725 335.372 327.613 336.311C327.5 337.25 327.609 338.205 327.93 339.084L340.15 372.588L301.226 370.159C300.467 370.109 299.708 370.248 299.005 370.566C298.302 370.884 297.674 371.372 297.168 371.993C296.662 372.615 296.291 373.354 296.082 374.155C295.874 374.956 295.834 375.799 295.966 376.619L301.957 416.143L315.074 424.438C315.744 424.819 316.489 425.018 317.244 425.018C317.999 425.018 318.743 424.819 319.414 424.438L427.197 356.282C427.475 356.194 427.719 356.008 427.892 355.753C428.064 355.498 428.155 355.189 428.151 354.871C428.147 354.554 428.048 354.248 427.869 353.998C427.691 353.749 427.442 353.57 427.162 353.491Z" fill="#02897A"/>
<path d="M426.785 259.778V208.199L487.942 169.527V221.093L426.785 259.778Z" fill="#EBEBEB"/>
<path d="M426.785 208.198L350.33 159.849V211.428L426.785 259.777V208.198Z" fill="#E6E6E6"/>
<path d="M426.785 208.198L489.759 168.363L411.487 118.851L348.525 158.699L426.785 208.198Z" fill="#F0F0F0"/>
<path d="M426.785 208.198V221.092L489.759 181.271V168.363L426.785 208.198Z" fill="#EBEBEB"/>
<path d="M426.785 221.092L487.942 182.421V185.25L426.785 223.935V221.092Z" fill="#E6E6E6"/>
<path d="M348.525 158.698L426.785 208.198V221.093L348.525 171.593V158.698Z" fill="#EBEBEB"/>
<g style="mix-blend-mode:multiply" opacity="0.5">
<path d="M426.785 221.093L350.33 172.744V175.586L426.785 223.936V221.093Z" fill="#E0E0E0"/>
</g>
<path d="M446.919 216.04L467.808 202.822C468.704 202.254 469.436 202.719 469.436 203.856V217.384C469.406 218.005 469.243 218.609 468.96 219.148C468.678 219.687 468.283 220.145 467.808 220.485L446.919 233.716C446.011 234.284 445.291 233.832 445.291 232.695V219.128C445.317 218.509 445.478 217.905 445.762 217.367C446.045 216.83 446.442 216.375 446.919 216.04Z" fill="#E0E0E0"/>
<path d="M448.252 217.579L466.463 206.053C467.065 205.679 467.56 205.989 467.56 206.738V216.92C467.543 217.335 467.434 217.741 467.243 218.101C467.052 218.461 466.785 218.765 466.463 218.987L448.252 230.512C447.65 230.887 447.167 230.512 447.167 229.814V219.633C447.184 219.22 447.292 218.819 447.481 218.461C447.67 218.104 447.934 217.801 448.252 217.579Z" fill="white"/>
<path d="M426.785 201.725V150.145L487.942 111.46V163.04L426.785 201.725Z" fill="#EBEBEB"/>
<path d="M426.785 150.145L350.33 101.796V153.376L426.785 201.725V150.145Z" fill="#E6E6E6"/>
<path d="M426.785 150.145L489.759 110.297L411.487 60.7981L348.525 100.633L426.785 150.145Z" fill="#F5F5F5"/>
<path d="M426.785 150.146V163.04L489.759 123.219V110.298L426.785 150.146Z" fill="#EBEBEB"/>
<path d="M426.785 163.04L487.942 124.355V127.198L426.785 165.87V163.04Z" fill="#E6E6E6"/>
<path d="M348.525 100.633L426.785 150.145V163.04L348.525 113.541V100.633Z" fill="#EBEBEB"/>
<g style="mix-blend-mode:multiply" opacity="0.5">
<path d="M426.785 163.04L350.33 114.69V117.52L426.785 165.869V163.04Z" fill="#E0E0E0"/>
</g>
<path d="M446.919 157.988L467.808 144.77C468.704 144.201 469.436 144.667 469.436 145.804V159.332C469.403 159.952 469.239 160.555 468.957 161.093C468.674 161.631 468.281 162.09 467.808 162.433L446.919 175.638C446.011 176.206 445.291 175.741 445.291 174.604V161.076C445.317 160.456 445.478 159.852 445.762 159.315C446.045 158.777 446.442 158.322 446.919 157.988Z" fill="#E0E0E0"/>
<path d="M448.252 159.513L466.463 148C467.065 147.625 467.56 147.923 467.56 148.685V158.776C467.537 159.19 467.426 159.593 467.236 159.952C467.045 160.311 466.781 160.616 466.463 160.843L448.252 172.356C447.65 172.743 447.167 172.433 447.167 171.671V161.528C447.19 161.122 447.3 160.728 447.489 160.378C447.677 160.028 447.939 159.731 448.252 159.513Z" fill="white"/>
<path d="M484.64 165.12L426.785 201.725L353.632 155.43L351.839 156.593L426.785 203.831L486.444 166.257L484.64 165.12Z" fill="#E0E0E0"/>
</svg>
