<svg width="62" height="62" viewBox="0 0 62 62" fill="none" xmlns="http://www.w3.org/2000/svg">
<g filter="url(#filter0_d_1_541)">
<rect x="4" width="54" height="54" rx="19" fill="#02897A"/>
<path d="M36.1161 28.5982L26.9732 19.4554C26.8661 19.3393 26.7232 19.2857 26.5714 19.2857C26.5 19.2857 26.4196 19.3036 26.3571 19.3304C26.1429 19.4196 26 19.625 26 19.8571V33.2857C26 33.5179 26.1429 33.7232 26.3571 33.8125C26.4196 33.8393 26.5 33.8571 26.5714 33.8571C26.7232 33.8571 26.8661 33.7946 26.9732 33.6875L29.7589 30.9018L31.4643 34.9375C31.5893 35.2232 31.9196 35.3661 32.2143 35.2411L33.7946 34.5714C34.0804 34.4464 34.2232 34.1161 34.0982 33.8214L32.3036 29.5714H35.7143C35.9464 29.5714 36.1518 29.4286 36.2411 29.2143C36.3304 29.0089 36.2857 28.7589 36.1161 28.5982Z" fill="white"/>
</g>
<defs>
<filter id="filter0_d_1_541" x="0" y="0" width="62" height="69.8876" filterUnits="userSpaceOnUse" color-interpolation-filters="sRGB">
<feFlood flood-opacity="0" result="BackgroundImageFix"/>
<feColorMatrix in="SourceAlpha" type="matrix" values="0 0 0 0 0 0 0 0 0 0 0 0 0 0 0 0 0 0 127 0" result="hardAlpha"/>
<feOffset dy="4"/>
<feGaussianBlur stdDeviation="2"/>
<feColorMatrix type="matrix" values="0 0 0 0 0 0 0 0 0 0 0 0 0 0 0 0 0 0 0.25 0"/>
<feBlend mode="normal" in2="BackgroundImageFix" result="effect1_dropShadow_1_541"/>
<feBlend mode="normal" in="SourceGraphic" in2="effect1_dropShadow_1_541" result="shape"/>
</filter>
</defs>
</svg>
