<svg width="62" height="62" viewBox="0 0 62 62" fill="none" xmlns="http://www.w3.org/2000/svg">
<g filter="url(#filter0_d_1_549)">
<rect x="4" width="54" height="54" rx="19" fill="#4D8DFF"/>
<path d="M31.4821 25.6429L32.6518 26.1875L34.3929 25.6696V24.4554C34.3929 22.3929 32.6518 20.7411 30.5714 20.7411C28.5 20.7411 26.75 22.3839 26.75 24.4286V29.9643C26.75 30.4732 26.3393 30.875 25.8393 30.875C25.3393 30.875 24.9286 30.4732 24.9286 29.9643V27.625H22C22 29.9732 22 30 22 30C22 32.1161 23.7143 33.8304 25.8304 33.8304C27.9286 33.8304 29.6607 32.1429 29.6607 30.0536V24.5893C29.6607 24.0893 30.0714 23.6786 30.5714 23.6786C31.0714 23.6786 31.4821 24.0893 31.4821 24.5893V25.6429ZM36.2143 27.625V30.0804C36.2143 30.5804 35.8036 30.9821 35.3036 30.9821C34.8036 30.9821 34.3929 30.5804 34.3929 30.0804V27.6696L32.6518 28.1875L31.4821 27.6429V30.0357C31.4821 32.1339 33.2054 33.8304 35.3125 33.8304C37.4286 33.8304 39.1429 32.1161 39.1429 30C39.1429 30 39.1429 29.9732 39.1429 27.625H36.2143Z" fill="white"/>
</g>
<defs>
<filter id="filter0_d_1_549" x="0" y="0" width="62" height="69.8876" filterUnits="userSpaceOnUse" color-interpolation-filters="sRGB">
<feFlood flood-opacity="0" result="BackgroundImageFix"/>
<feColorMatrix in="SourceAlpha" type="matrix" values="0 0 0 0 0 0 0 0 0 0 0 0 0 0 0 0 0 0 127 0" result="hardAlpha"/>
<feOffset dy="4"/>
<feGaussianBlur stdDeviation="2"/>
<feColorMatrix type="matrix" values="0 0 0 0 0 0 0 0 0 0 0 0 0 0 0 0 0 0 0.25 0"/>
<feBlend mode="normal" in2="BackgroundImageFix" result="effect1_dropShadow_1_549"/>
<feBlend mode="normal" in="SourceGraphic" in2="effect1_dropShadow_1_549" result="shape"/>
</filter>
</defs>
</svg>
