<svg width="540" height="500" viewBox="0 0 540 500" fill="none" xmlns="http://www.w3.org/2000/svg">
<path d="M126.897 451.576C216.415 502.808 361.555 502.808 451.073 451.576C540.592 400.345 540.604 317.257 451.073 266.026C361.542 214.795 216.415 214.781 126.897 266.026C37.3783 317.271 37.3783 400.332 126.897 451.576Z" fill="#EBEBEB"/>
<path d="M477.404 324.462L464.346 316.321C464.346 316.321 461.145 286.323 463.271 263.096C466.269 230.438 485.932 191.187 509.377 200.386C532.823 209.585 498.61 242.921 491.018 270.599C483.427 298.276 477.404 324.462 477.404 324.462Z" fill="#02897A"/>
<path opacity="0.1" d="M477.404 324.462L464.346 316.321C464.346 316.321 461.145 286.323 463.271 263.096C466.269 230.438 485.932 191.187 509.377 200.386C532.823 209.585 498.61 242.921 491.018 270.599C483.427 298.276 477.404 324.462 477.404 324.462Z" fill="black"/>
<path d="M470.609 320.785C470.487 320.787 470.369 320.741 470.276 320.656C470.183 320.571 470.121 320.453 470.103 320.324C465.662 283.691 477.821 228.322 502.368 207.319C502.418 207.275 502.476 207.243 502.539 207.223C502.601 207.203 502.667 207.197 502.731 207.205C502.796 207.212 502.859 207.234 502.916 207.267C502.973 207.301 503.023 207.346 503.064 207.401C503.147 207.512 503.186 207.655 503.171 207.797C503.157 207.94 503.091 208.07 502.988 208.161C478.707 228.946 466.7 283.881 471.103 320.175C471.121 320.317 471.086 320.461 471.005 320.575C470.924 320.689 470.805 320.765 470.673 320.785H470.609Z" fill="white"/>
<path d="M484.376 330.256L475.088 324.489C475.088 324.489 473.507 303.907 482.921 278.902C491.107 257.194 511.44 239.068 521.663 242.867C531.887 246.666 531.634 254.44 526.649 262.594C521.663 270.748 491.335 290.19 484.376 330.256Z" fill="#02897A"/>
<path d="M478.618 330.785C478.552 330.781 478.488 330.764 478.428 330.733C478.369 330.702 478.316 330.659 478.272 330.606C478.228 330.553 478.195 330.491 478.174 330.424C478.153 330.356 478.145 330.285 478.15 330.215C481.212 278.984 505.379 253.789 519.904 249.949C520.035 249.916 520.173 249.938 520.288 250.011C520.404 250.085 520.489 250.203 520.524 250.342C520.555 250.481 520.534 250.627 520.465 250.748C520.396 250.87 520.286 250.958 520.157 250.994C504.86 255.064 482.035 282.335 479.175 330.283C479.17 330.355 479.152 330.426 479.121 330.491C479.09 330.556 479.048 330.613 478.996 330.66C478.944 330.707 478.884 330.742 478.819 330.764C478.754 330.785 478.686 330.792 478.618 330.785Z" fill="white"/>
<path d="M101.313 328.451C101.313 328.451 103.046 298.371 86.7494 277.749C70.4526 257.126 49.2339 257.207 42.2116 261.047C35.1894 264.887 30.4699 275.863 42.5533 283.718C54.6367 291.574 80.3345 307.299 84.6111 321.328L101.313 328.451Z" fill="#02897A"/>
<path opacity="0.1" d="M101.313 328.451C101.313 328.451 103.046 298.371 86.7494 277.749C70.4526 257.126 49.2339 257.207 42.2116 261.047C35.1894 264.887 30.4699 275.863 42.5533 283.718C54.6367 291.574 80.3345 307.299 84.6111 321.328L101.313 328.451Z" fill="black"/>
<path d="M93.6451 320.921C93.4885 320.919 93.338 320.856 93.2216 320.744C93.1052 320.631 93.0309 320.477 93.0125 320.311C89.6595 287.029 58.6349 268.591 46.2731 266.502C46.19 266.488 46.1102 266.457 46.0382 266.411C45.9662 266.365 45.9035 266.303 45.8535 266.231C45.8036 266.158 45.7675 266.076 45.7472 265.989C45.7269 265.901 45.7229 265.811 45.7353 265.721C45.7478 265.632 45.7765 265.547 45.8198 265.47C45.8631 265.392 45.9202 265.325 45.9878 265.272C46.0553 265.218 46.132 265.179 46.2136 265.158C46.2951 265.136 46.3798 265.131 46.4629 265.145C59.1157 267.275 90.8362 286.134 94.2777 320.161C94.2865 320.251 94.2786 320.341 94.2547 320.427C94.2307 320.513 94.1911 320.592 94.1382 320.662C94.0852 320.731 94.02 320.789 93.9462 320.831C93.8724 320.873 93.7916 320.899 93.7084 320.908L93.6451 320.921Z" fill="white"/>
<path d="M87.6099 313.282C83.523 303.297 78.9048 298.819 65.6194 301.207C52.3339 303.595 54.2318 303.229 37.973 298.765C31.1152 296.893 23.4097 296.594 16.8302 299.769C11.2757 302.483 7.12557 307.91 12.503 313.689C18.551 320.148 27.5725 322.359 34.2531 328.044C35.7687 329.193 36.9735 330.752 37.7453 332.562C39.504 337.365 35.9866 342.778 37.0114 347.812C38.0363 352.845 42.9709 355.532 47.6018 355.857C52.2327 356.183 56.8004 354.691 61.4186 354.121C66.0369 353.551 71.2245 354.121 74.413 357.798C77.8293 361.692 77.9178 367.919 81.0937 372.057C85.8511 378.258 97.5423 379.981 103.869 376.127L120.431 365.884C131.376 350.064 114.105 337.528 105.058 325.249C100.668 319.266 90.0645 319.293 87.6099 313.282Z" fill="#02897A"/>
<path d="M110.17 356.333C110.062 356.335 109.955 356.306 109.862 356.249C109.768 356.192 109.691 356.108 109.638 356.007C90.7475 323.187 39.314 306.58 21.1193 305.224C20.9537 305.21 20.7998 305.126 20.6909 304.992C20.582 304.857 20.5268 304.682 20.5373 304.505C20.5502 304.326 20.6274 304.159 20.7525 304.04C20.8776 303.921 21.0408 303.859 21.2079 303.867C39.643 305.224 91.5699 322.075 110.714 355.329C110.798 355.484 110.823 355.669 110.783 355.844C110.743 356.018 110.641 356.17 110.499 356.265C110.395 356.314 110.283 356.337 110.17 356.333Z" fill="white"/>
<path d="M50.3349 340.865C50.2363 340.868 50.1388 340.844 50.0506 340.797C49.9624 340.75 49.8863 340.68 49.8288 340.594C49.7281 340.45 49.6849 340.269 49.7086 340.091C49.7324 339.913 49.8211 339.752 49.9553 339.644C50.6133 339.115 66.3027 326.769 81.5873 326.525C81.6697 326.523 81.7517 326.539 81.8284 326.571C81.9051 326.604 81.9749 326.652 82.0339 326.714C82.0928 326.776 82.1396 326.85 82.1715 326.932C82.2035 327.013 82.2199 327.101 82.2199 327.189C82.2216 327.278 82.2069 327.367 82.1766 327.45C82.1464 327.533 82.1012 327.609 82.0436 327.673C81.986 327.737 81.9172 327.789 81.8411 327.825C81.7649 327.86 81.683 327.88 81.5999 327.881C66.7582 328.112 50.9043 340.608 50.7398 340.73C50.6256 340.828 50.481 340.876 50.3349 340.865Z" fill="white"/>
<path d="M108.993 367.865C109.128 369.838 109.695 371.749 110.647 373.444C111.598 375.138 112.909 376.569 114.472 377.62L267.988 472.661C269.686 473.585 271.563 474.066 273.467 474.066C275.37 474.066 277.247 473.585 278.945 472.661L488.981 342.616C490.637 341.679 492.023 340.275 492.989 338.556C493.956 336.837 494.467 334.868 494.467 332.86C494.467 330.853 493.956 328.884 492.989 327.165C492.023 325.446 490.637 324.042 488.981 323.105L335.478 228.132C333.78 227.208 331.903 226.727 329.999 226.727C328.095 226.727 326.218 227.208 324.521 228.132L114.472 358.137C112.912 359.185 111.604 360.612 110.652 362.301C109.7 363.991 109.132 365.897 108.993 367.865Z" fill="#37474F"/>
<path d="M172.333 322.291L114.472 358.136C112.816 359.073 111.431 360.477 110.464 362.196C109.498 363.915 108.987 365.884 108.987 367.892C108.987 369.899 109.498 371.868 110.464 373.587C111.431 375.306 112.816 376.71 114.472 377.647L267.988 472.688C269.677 473.633 271.563 474.1 273.467 474.044V322.291H172.333Z" fill="#263238"/>
<path d="M103.843 358.327C102.319 357.212 101.059 355.729 100.167 353.997C99.2747 352.265 98.7744 350.332 98.7064 348.355V151.909C98.8083 149.871 99.3576 147.886 100.31 146.118C101.262 144.35 102.589 142.848 104.185 141.734L314.221 11.6882C315.807 10.6218 317.633 10.0388 319.504 10.0019C321.375 9.96491 323.221 10.4753 324.842 11.4784C326.463 12.4814 327.798 13.939 328.704 15.6947C329.611 17.4504 330.054 19.4378 329.987 21.4433V217.902C329.883 219.94 329.332 221.924 328.381 223.692C327.429 225.46 326.102 226.962 324.508 228.078L114.472 358.137C112.838 359.061 111.025 359.559 109.179 359.592C107.332 359.625 105.505 359.192 103.843 358.327Z" fill="#455A64"/>
<path d="M124.417 161.04L100.313 146.116C99.3535 147.877 98.8267 149.87 98.7825 151.909V348.354C98.8504 350.332 99.3507 352.265 100.243 353.997C101.135 355.729 102.395 357.212 103.919 358.327C105.581 359.185 107.407 359.613 109.251 359.575C111.095 359.537 112.905 359.035 114.535 358.109L138.5 343.28L124.417 161.04Z" fill="#263238"/>
<path d="M108.993 158.286V354.717C108.993 358.462 111.448 359.982 114.472 358.109L324.508 228.077C326.102 226.962 327.429 225.459 328.381 223.691C329.333 221.923 329.883 219.94 329.987 217.902V21.4564C329.987 17.7118 327.532 16.1922 324.508 18.0645L114.472 148.11C112.876 149.224 111.548 150.726 110.596 152.494C109.644 154.263 109.095 156.247 108.993 158.286Z" fill="#37474F"/>
<path d="M114.472 364.92L267.988 459.893C269.686 460.817 271.563 461.298 273.466 461.298C275.37 461.298 277.247 460.817 278.945 459.893L488.981 329.848C492.018 327.976 492.018 324.936 488.981 323.064L335.478 228.091C333.78 227.167 331.903 226.686 329.999 226.686C328.095 226.686 326.218 227.167 324.52 228.091L114.472 358.136C111.435 359.982 111.435 363.021 114.472 364.92Z" fill="#455A64"/>
<path d="M117.42 159.005L321.572 32.6228C323.382 31.4967 324.862 32.4057 324.862 34.6579V204.701C324.798 205.924 324.467 207.113 323.896 208.174C323.325 209.234 322.529 210.136 321.572 210.806L117.42 337.188C115.598 338.314 114.13 337.405 114.13 335.153V165.11C114.191 163.887 114.521 162.696 115.092 161.635C115.664 160.574 116.462 159.673 117.42 159.005Z" fill="white"/>
<path d="M132.287 359.805L327.253 239.054C328.103 238.592 329.041 238.352 329.993 238.352C330.945 238.352 331.883 238.592 332.732 239.054L342.715 245.227C343.046 245.347 343.333 245.576 343.536 245.88C343.739 246.184 343.849 246.549 343.849 246.923C343.849 247.297 343.739 247.662 343.536 247.966C343.333 248.27 343.046 248.499 342.715 248.619L147.711 369.357C146.861 369.818 145.923 370.059 144.971 370.059C144.019 370.059 143.081 369.818 142.232 369.357L132.287 363.197C131.956 363.077 131.669 362.849 131.466 362.545C131.263 362.24 131.153 361.876 131.153 361.501C131.153 361.127 131.263 360.762 131.466 360.458C131.669 360.154 131.956 359.926 132.287 359.805Z" fill="#263238"/>
<path d="M157.997 375.774L352.951 255.023C353.803 254.561 354.743 254.321 355.697 254.321C356.651 254.321 357.591 254.561 358.443 255.023L419.771 293.012C420.101 293.132 420.388 293.36 420.591 293.665C420.795 293.969 420.904 294.334 420.904 294.708C420.904 295.082 420.795 295.447 420.591 295.751C420.388 296.055 420.101 296.284 419.771 296.404L225.032 416.911C224.18 417.373 223.24 417.613 222.286 417.613C221.332 417.613 220.392 417.373 219.54 416.911L157.997 379.098C157.683 378.971 157.412 378.743 157.221 378.446C157.03 378.149 156.927 377.797 156.927 377.436C156.927 377.076 157.03 376.723 157.221 376.426C157.412 376.13 157.683 375.902 157.997 375.774Z" fill="#263238"/>
<path d="M332.757 309.293L338.869 305.508C339.122 305.345 339.109 305.087 338.869 304.911L331.808 300.542C331.658 300.459 331.491 300.415 331.321 300.415C331.152 300.415 330.985 300.459 330.834 300.542L324.736 304.327C324.47 304.49 324.482 304.748 324.736 304.924L331.796 309.293C331.945 309.374 332.11 309.416 332.277 309.416C332.444 309.416 332.608 309.374 332.757 309.293ZM320.712 294.369L314.613 298.154C314.348 298.303 314.36 298.575 314.613 298.751L321.674 303.12C321.824 303.203 321.991 303.246 322.161 303.246C322.33 303.246 322.497 303.203 322.648 303.12L328.759 299.334C329.012 299.172 329 298.9 328.759 298.737L321.686 294.369C321.536 294.285 321.369 294.242 321.199 294.242C321.03 294.242 320.863 294.285 320.712 294.369ZM300.999 306.579L290.662 312.97C290.409 313.133 290.421 313.404 290.662 313.58L297.722 317.949C297.872 318.032 298.039 318.076 298.209 318.076C298.378 318.076 298.545 318.032 298.696 317.949L309.021 311.559C309.286 311.396 309.261 311.125 309.021 310.962L301.961 306.579C301.812 306.496 301.647 306.453 301.48 306.453C301.312 306.453 301.147 306.496 300.999 306.579ZM311.792 299.891L305.693 303.676C305.427 303.839 305.44 304.11 305.693 304.273L312.753 308.642C312.904 308.725 313.071 308.768 313.24 308.768C313.41 308.768 313.577 308.725 313.728 308.642L319.839 304.856C320.092 304.694 320.079 304.436 319.839 304.259L312.766 299.796C312.615 299.712 312.448 299.669 312.279 299.669C312.109 299.669 311.942 299.712 311.792 299.796V299.891ZM287.84 314.72L281.741 318.492C281.476 318.655 281.501 318.926 281.741 319.102L288.802 323.471C288.951 323.551 289.116 323.593 289.282 323.593C289.449 323.593 289.614 323.551 289.763 323.471L295.875 319.686C296.128 319.523 296.115 319.252 295.875 319.089L288.814 314.72C288.664 314.637 288.497 314.593 288.327 314.593C288.158 314.593 287.991 314.637 287.84 314.72ZM278.983 320.242L272.884 324.027C272.619 324.177 272.644 324.448 272.884 324.624L279.945 328.993C280.095 329.076 280.262 329.12 280.432 329.12C280.601 329.12 280.768 329.076 280.919 328.993L287.03 325.208C287.283 325.045 287.271 324.774 287.03 324.611L279.894 320.147C279.743 320.064 279.576 320.02 279.407 320.02C279.237 320.02 279.07 320.064 278.92 320.147L278.983 320.242ZM306.756 338.016L312.855 334.23C313.12 334.067 313.095 333.81 312.855 333.633L305.794 329.264C305.646 329.181 305.481 329.138 305.314 329.138C305.146 329.138 304.981 329.181 304.833 329.264L298.721 333.05C298.468 333.213 298.481 333.47 298.721 333.647L305.782 338.016C305.929 338.078 306.087 338.104 306.244 338.092C306.402 338.08 306.555 338.031 306.693 337.948L306.756 338.016ZM297.823 343.538L303.934 339.752C304.187 339.603 304.175 339.332 303.934 339.155L296.874 334.786C296.723 334.703 296.556 334.66 296.387 334.66C296.217 334.66 296.05 334.703 295.9 334.786L289.801 338.572C289.535 338.735 289.561 339.006 289.801 339.169L296.861 343.538C297.006 343.599 297.162 343.625 297.318 343.614C297.473 343.602 297.624 343.553 297.76 343.47L297.823 343.538ZM288.903 349.06L295.014 345.288C295.267 345.125 295.255 344.854 295.014 344.677L287.954 340.308C287.802 340.228 287.636 340.187 287.467 340.187C287.298 340.187 287.131 340.228 286.98 340.308L280.881 344.094C280.615 344.257 280.641 344.528 280.881 344.691L287.929 349.06C288.076 349.122 288.234 349.148 288.391 349.136C288.549 349.124 288.702 349.075 288.84 348.992L288.903 349.06ZM280.046 354.582L286.157 350.81C286.41 350.647 286.398 350.376 286.157 350.199L279.097 345.83C278.946 345.747 278.779 345.704 278.61 345.704C278.44 345.704 278.273 345.747 278.123 345.83L272.024 349.602C271.758 349.765 271.771 350.036 272.024 350.213L279.084 354.582C279.36 354.678 279.66 354.653 279.919 354.514L280.046 354.582ZM323.964 314.91L330.075 311.125C330.328 310.975 330.315 310.704 330.075 310.528L323.015 306.159C322.863 306.079 322.697 306.037 322.528 306.037C322.359 306.037 322.192 306.079 322.04 306.159L315.942 309.944C315.676 310.107 315.689 310.378 315.942 310.541L323.002 314.91C323.138 314.96 323.283 314.98 323.426 314.968C323.57 314.956 323.71 314.913 323.837 314.842L323.964 314.91ZM315.739 332.548L329.354 324.109C329.607 323.96 329.594 323.688 329.354 323.512L312.209 312.902C312.059 312.819 311.892 312.775 311.722 312.775C311.553 312.775 311.386 312.819 311.235 312.902L304.2 317.271C303.934 317.42 303.96 317.691 304.2 317.868L313.285 323.485C313.563 323.661 313.576 323.932 313.285 324.095L307.553 327.433C307.3 327.582 307.313 327.853 307.553 328.03L314.639 332.358C314.784 332.452 314.949 332.507 315.118 332.519C315.288 332.531 315.457 332.499 315.613 332.426L315.739 332.548ZM270.126 325.764L264.028 329.549C263.762 329.712 263.774 329.97 264.028 330.146L271.088 334.515C271.238 334.598 271.405 334.642 271.575 334.642C271.744 334.642 271.911 334.598 272.062 334.515L278.173 330.73C278.426 330.567 278.414 330.309 278.173 330.133L271.113 325.764C270.952 325.643 270.762 325.573 270.565 325.561C270.369 325.549 270.173 325.596 270 325.696L270.126 325.764ZM261.269 331.286L254.968 335.071C254.715 335.234 254.728 335.506 254.968 335.668L262.028 340.037C262.179 340.12 262.346 340.164 262.515 340.164C262.685 340.164 262.852 340.12 263.003 340.037L269.114 336.252C269.367 336.103 269.354 335.831 269.114 335.655L262.003 331.245C261.861 331.167 261.704 331.123 261.544 331.119C261.384 331.114 261.225 331.148 261.079 331.218L261.269 331.286ZM216.453 393.154C216.604 393.238 216.771 393.281 216.94 393.281C217.11 393.281 217.277 393.238 217.427 393.154L223.539 389.369C223.792 389.22 223.779 388.948 223.539 388.772L216.453 384.43C216.302 384.347 216.135 384.304 215.966 384.304C215.796 384.304 215.629 384.347 215.479 384.43L209.38 388.216C209.114 388.379 209.127 388.65 209.38 388.813L216.453 393.154ZM189.667 375.408L183.556 379.193C183.303 379.356 183.315 379.614 183.556 379.79L190.616 384.159C190.767 384.242 190.934 384.286 191.103 384.286C191.273 384.286 191.44 384.242 191.59 384.159L197.702 380.374C197.955 380.211 197.942 379.953 197.702 379.777L190.641 375.408C190.496 375.331 190.336 375.291 190.173 375.291C190.011 375.291 189.851 375.331 189.705 375.408H189.667ZM204.028 388.365C204.179 388.448 204.346 388.492 204.515 388.492C204.685 388.492 204.852 388.448 205.002 388.365L211.101 384.58C211.367 384.43 211.341 384.159 211.101 383.983L204.053 379.614C203.903 379.531 203.736 379.487 203.566 379.487C203.397 379.487 203.23 379.531 203.079 379.614L196.968 383.399C196.715 383.562 196.727 383.833 196.968 383.996L204.028 388.365ZM232.206 396.505L238.317 392.72C238.57 392.557 238.557 392.3 238.317 392.123L231.257 387.754C231.106 387.671 230.939 387.628 230.77 387.628C230.6 387.628 230.433 387.671 230.283 387.754L224.184 391.54C223.918 391.689 223.944 391.96 224.184 392.137L231.232 396.505C231.386 396.598 231.559 396.647 231.736 396.65C231.913 396.652 232.087 396.607 232.244 396.519L232.206 396.505ZM222.311 401.933C222.462 402.016 222.629 402.059 222.798 402.059C222.968 402.059 223.135 402.016 223.286 401.933L229.397 398.147C229.65 397.998 229.637 397.727 229.397 397.55L222.337 393.181C222.186 393.098 222.019 393.055 221.849 393.055C221.68 393.055 221.513 393.098 221.362 393.181L215.264 396.967C214.998 397.13 215.011 397.401 215.264 397.564L222.311 401.933ZM198.587 369.804L192.489 373.59C192.223 373.739 192.236 374.01 192.489 374.187L199.549 378.556C199.7 378.639 199.867 378.682 200.036 378.682C200.206 378.682 200.373 378.639 200.523 378.556L206.635 374.77C206.888 374.607 206.875 374.336 206.635 374.173L199.574 369.804C199.421 369.738 199.256 369.711 199.091 369.725C198.926 369.739 198.767 369.794 198.625 369.886L198.587 369.804ZM243.201 342.194L237.09 345.966C236.837 346.129 236.849 346.4 237.09 346.563L244.15 350.946C244.301 351.026 244.468 351.067 244.637 351.067C244.806 351.067 244.973 351.026 245.124 350.946L251.223 347.174C251.489 347.011 251.476 346.74 251.223 346.563L244.163 342.194C244.013 342.132 243.852 342.107 243.692 342.121C243.532 342.136 243.377 342.188 243.239 342.276L243.201 342.194ZM207.596 364.364L201.497 368.136C201.232 368.298 201.244 368.57 201.497 368.746L208.558 373.115C208.709 373.195 208.876 373.237 209.045 373.237C209.214 373.237 209.381 373.195 209.532 373.115L215.643 369.33C215.896 369.167 215.884 368.895 215.643 368.733L208.583 364.35C208.429 364.27 208.259 364.229 208.088 364.232C207.917 364.234 207.748 364.279 207.596 364.364ZM252.21 336.74L246.048 340.498C245.795 340.661 245.808 340.933 246.048 341.095L253.108 345.464C253.259 345.547 253.426 345.591 253.595 345.591C253.765 345.591 253.932 345.547 254.082 345.464L260.181 341.692C260.447 341.53 260.434 341.258 260.181 341.082L253.146 336.767C252.995 336.681 252.827 336.633 252.656 336.628C252.484 336.624 252.314 336.662 252.159 336.74H252.21ZM234.369 347.798L228.258 351.57C228.005 351.732 228.018 352.004 228.258 352.18L235.318 356.549C235.47 356.629 235.637 356.671 235.805 356.671C235.974 356.671 236.141 356.629 236.293 356.549L242.391 352.777C242.657 352.614 242.632 352.343 242.391 352.167L235.344 347.798C235.186 347.709 235.01 347.662 234.831 347.662C234.653 347.662 234.477 347.709 234.319 347.798H234.369ZM225.437 353.32L219.338 357.092C219.072 357.254 219.098 357.526 219.338 357.702L226.398 362.071C226.55 362.151 226.716 362.193 226.885 362.193C227.054 362.193 227.221 362.151 227.372 362.071L233.471 358.299C233.724 358.136 233.711 357.865 233.471 357.689L226.411 353.32C226.253 353.231 226.077 353.184 225.898 353.184C225.72 353.184 225.544 353.231 225.386 353.32H225.437ZM216.453 358.842L210.354 362.614C210.089 362.776 210.114 363.048 210.354 363.224L217.402 367.593C217.553 367.676 217.72 367.72 217.889 367.72C218.059 367.72 218.226 367.676 218.376 367.593L224.488 363.821C224.741 363.658 224.728 363.387 224.488 363.211L217.427 358.842C217.276 358.762 217.109 358.72 216.94 358.72C216.771 358.72 216.605 358.762 216.453 358.842ZM262.066 365.626L268.165 361.854C268.431 361.691 268.418 361.42 268.165 361.243L261.092 356.78C260.941 356.699 260.774 356.658 260.605 356.658C260.436 356.658 260.269 356.699 260.118 356.78L254.006 360.551C253.753 360.714 253.766 360.986 254.006 361.162L261.067 365.531C261.22 365.625 261.393 365.677 261.57 365.682C261.746 365.687 261.921 365.644 262.079 365.558L262.066 365.626ZM340.45 282.158L334.339 285.943C334.086 286.106 334.099 286.364 334.339 286.54L341.399 290.909C341.55 290.992 341.717 291.036 341.886 291.036C342.056 291.036 342.223 290.992 342.373 290.909L348.472 287.124C348.738 286.961 348.725 286.703 348.472 286.527L341.412 282.158C341.263 282.077 341.098 282.034 340.931 282.034C340.764 282.034 340.599 282.077 340.45 282.158ZM329.645 288.847L323.546 292.632C323.28 292.781 323.306 293.053 323.546 293.229L330.594 297.598C330.745 297.678 330.912 297.72 331.081 297.72C331.25 297.72 331.417 297.678 331.568 297.598L337.679 293.812C337.932 293.65 337.92 293.378 337.679 293.215L330.619 288.847C330.472 288.75 330.305 288.694 330.133 288.682C329.961 288.67 329.789 288.703 329.632 288.779L329.645 288.847ZM349.37 276.636L343.272 280.421C343.006 280.57 343.019 280.842 343.272 281.018L350.332 285.387C350.483 285.47 350.65 285.514 350.819 285.514C350.989 285.514 351.156 285.47 351.306 285.387L357.418 281.601C357.671 281.439 357.658 281.167 357.418 281.005L350.357 276.636C350.203 276.528 350.025 276.465 349.841 276.453C349.657 276.441 349.473 276.481 349.307 276.568L349.37 276.636ZM303.188 327.704L309.299 323.919C309.552 323.756 309.54 323.485 309.299 323.322L302.239 318.953C302.088 318.87 301.921 318.826 301.752 318.826C301.582 318.826 301.415 318.87 301.265 318.953L295.166 322.738C294.9 322.888 294.913 323.159 295.166 323.335L302.226 327.704C302.378 327.773 302.543 327.802 302.708 327.79C302.873 327.779 303.033 327.726 303.175 327.636L303.188 327.704ZM359.265 271.141C359.114 271.058 358.947 271.014 358.778 271.014C358.608 271.014 358.441 271.058 358.291 271.141L352.192 274.926C351.926 275.075 351.939 275.347 352.192 275.523L359.252 279.892C359.404 279.972 359.57 280.014 359.739 280.014C359.908 280.014 360.075 279.972 360.227 279.892L366.338 276.107C366.591 275.944 366.578 275.672 366.338 275.51L359.265 271.141ZM270.999 360.036L277.11 356.264C277.364 356.101 277.351 355.83 277.11 355.653L270.012 351.353C269.862 351.269 269.695 351.226 269.525 351.226C269.356 351.226 269.189 351.269 269.038 351.353L262.939 355.124C262.674 355.287 262.686 355.558 262.939 355.735L270 360.104C270.159 360.178 270.333 360.21 270.507 360.199C270.681 360.187 270.849 360.131 270.999 360.036ZM380.408 292.306L386.519 288.521C386.772 288.372 386.759 288.1 386.519 287.924L379.421 283.515C379.27 283.431 379.103 283.388 378.934 283.388C378.764 283.388 378.597 283.431 378.447 283.515L372.348 287.3C372.082 287.463 372.095 287.734 372.348 287.897L379.408 292.266C379.559 292.36 379.729 292.413 379.903 292.42C380.078 292.427 380.251 292.388 380.408 292.306ZM361.429 291.587L367.54 287.802C367.793 287.639 367.78 287.381 367.54 287.205L360.48 282.836C360.329 282.753 360.162 282.709 359.992 282.709C359.823 282.709 359.656 282.753 359.505 282.836L353.407 286.622C353.141 286.784 353.154 287.042 353.407 287.218L360.467 291.587C360.608 291.675 360.765 291.726 360.928 291.738C361.09 291.75 361.253 291.721 361.403 291.655L361.429 291.587ZM369.362 277.314C369.211 277.231 369.044 277.187 368.875 277.187C368.705 277.187 368.538 277.231 368.388 277.314L362.289 281.099C362.023 281.249 362.036 281.52 362.289 281.696L369.349 286.065C369.5 286.149 369.667 286.192 369.836 286.192C370.006 286.192 370.173 286.149 370.323 286.065L376.435 282.28C376.688 282.117 376.675 281.846 376.435 281.683L369.362 277.314ZM371.247 276.147L388.379 286.757C388.53 286.84 388.697 286.884 388.866 286.884C389.036 286.884 389.203 286.84 389.353 286.757L395.465 282.972C395.718 282.809 395.705 282.551 395.465 282.375L378.32 271.765C378.169 271.682 378.002 271.638 377.833 271.638C377.663 271.638 377.496 271.682 377.346 271.765L371.247 275.55C370.918 275.7 370.943 275.971 371.222 276.147H371.247ZM350.547 288.358L344.436 292.143C344.183 292.306 344.195 292.578 344.436 292.74L351.496 297.109C351.647 297.193 351.814 297.236 351.983 297.236C352.153 297.236 352.32 297.193 352.47 297.109L358.569 293.324C358.835 293.175 358.822 292.903 358.569 292.727L351.509 288.358C351.365 288.277 351.206 288.233 351.044 288.228C350.881 288.223 350.72 288.259 350.572 288.331L350.547 288.358ZM283.399 329.929L277.262 333.715C277.009 333.877 277.022 334.149 277.262 334.312L284.323 338.68C284.473 338.764 284.64 338.807 284.81 338.807C284.979 338.807 285.146 338.764 285.297 338.68L291.395 334.895C291.661 334.746 291.649 334.474 291.395 334.298L284.335 329.929C284.188 329.844 284.024 329.797 283.857 329.792C283.69 329.788 283.525 329.825 283.374 329.902L283.399 329.929ZM370.539 297.828C370.689 297.912 370.856 297.955 371.026 297.955C371.195 297.955 371.362 297.912 371.513 297.828L377.624 294.043C377.877 293.894 377.865 293.622 377.624 293.446L370.564 289.077C370.412 288.997 370.246 288.955 370.077 288.955C369.908 288.955 369.741 288.997 369.59 289.077L363.491 292.863C363.225 293.025 363.238 293.297 363.491 293.46L370.539 297.828ZM292.319 324.407L286.22 328.193C285.955 328.355 285.967 328.613 286.22 328.79L293.281 333.158C293.431 333.242 293.598 333.285 293.768 333.285C293.937 333.285 294.104 333.242 294.255 333.158L300.366 329.373C300.619 329.21 300.607 328.952 300.366 328.776L293.306 324.407C293.153 324.313 292.98 324.261 292.803 324.256C292.626 324.251 292.451 324.294 292.294 324.38L292.319 324.407ZM225.437 387.659C225.587 387.743 225.754 387.786 225.924 387.786C226.093 387.786 226.26 387.743 226.411 387.659L232.522 383.874C232.775 383.711 232.762 383.453 232.522 383.277L225.462 378.908C225.311 378.825 225.144 378.782 224.975 378.782C224.805 378.782 224.638 378.825 224.488 378.908L218.389 382.694C218.123 382.856 218.149 383.114 218.389 383.291L225.437 387.659ZM212.025 374.092L205.913 377.877C205.66 378.04 205.673 378.298 205.913 378.474L212.974 382.843C213.124 382.926 213.291 382.97 213.461 382.97C213.63 382.97 213.797 382.926 213.948 382.843L220.046 379.058C220.312 378.895 220.3 378.637 220.046 378.461L212.986 374.092C212.834 374.006 212.665 373.962 212.493 373.962C212.321 373.962 212.152 374.006 211.999 374.092H212.025ZM235.344 382.137L241.442 378.352C241.695 378.189 241.683 377.918 241.442 377.755L234.382 373.386C234.231 373.303 234.064 373.26 233.895 373.26C233.725 373.26 233.558 373.303 233.408 373.386L227.246 377.131C226.993 377.28 227.005 377.552 227.246 377.728L234.306 382.097C234.458 382.193 234.631 382.248 234.807 382.255C234.984 382.262 235.16 382.221 235.318 382.137H235.344ZM244.264 376.615L250.363 372.83C250.628 372.667 250.603 372.396 250.363 372.233L243.315 367.864C243.164 367.781 242.997 367.738 242.828 367.738C242.658 367.738 242.491 367.781 242.341 367.864L236.229 371.636C235.976 371.799 235.989 372.07 236.229 372.247L243.29 376.615C243.444 376.7 243.616 376.744 243.789 376.744C243.963 376.744 244.134 376.7 244.289 376.615H244.264ZM253.121 371.08L259.219 367.308C259.485 367.145 259.473 366.874 259.219 366.711L252.159 362.329C252.008 362.249 251.841 362.207 251.672 362.207C251.503 362.207 251.336 362.249 251.185 362.329L245.074 366.1C244.821 366.263 244.833 366.535 245.074 366.711L252.134 371.08C252.289 371.17 252.463 371.217 252.64 371.217C252.817 371.217 252.991 371.17 253.146 371.08H253.121ZM220.882 368.57L214.77 372.355C214.517 372.504 214.53 372.776 214.77 372.952L221.831 377.321C221.981 377.404 222.148 377.448 222.318 377.448C222.487 377.448 222.654 377.404 222.805 377.321L228.916 373.536C229.169 373.373 229.156 373.101 228.916 372.939L221.856 368.57C221.71 368.493 221.55 368.453 221.388 368.453C221.225 368.453 221.065 368.493 220.92 368.57H220.882ZM229.802 363.048L223.703 366.82C223.437 366.982 223.45 367.254 223.703 367.43L230.763 371.799C230.915 371.879 231.082 371.921 231.251 371.921C231.419 371.921 231.586 371.879 231.738 371.799L237.963 368.041C238.216 367.878 238.203 367.606 237.963 367.444L230.903 363.075C230.743 362.971 230.561 362.913 230.375 362.909C230.188 362.904 230.003 362.952 229.84 363.048H229.802ZM265.495 340.96L259.473 344.732C259.219 344.894 259.232 345.166 259.473 345.342L266.533 349.711C266.684 349.791 266.851 349.833 267.02 349.833C267.189 349.833 267.356 349.791 267.507 349.711L273.606 345.939C273.871 345.776 273.846 345.505 273.606 345.329L266.558 340.96C266.401 340.867 266.225 340.819 266.046 340.819C265.866 340.819 265.69 340.867 265.533 340.96H265.495ZM256.562 346.482L250.464 350.254C250.211 350.416 250.223 350.688 250.464 350.864L257.524 355.233C257.675 355.313 257.842 355.355 258.011 355.355C258.18 355.355 258.347 355.313 258.498 355.233L264.597 351.461C264.863 351.298 264.837 351.027 264.597 350.851L257.537 346.482C257.39 346.408 257.23 346.37 257.068 346.37C256.907 346.37 256.747 346.408 256.6 346.482H256.562ZM274.415 335.424L268.329 339.21C268.076 339.372 268.089 339.644 268.329 339.806L275.39 344.189C275.541 344.269 275.708 344.311 275.877 344.311C276.046 344.311 276.212 344.269 276.364 344.189L282.463 340.403C282.728 340.254 282.716 339.983 282.463 339.806L275.402 335.438C275.255 335.36 275.093 335.318 274.929 335.316C274.765 335.313 274.602 335.35 274.453 335.424H274.415ZM238.722 357.526L232.623 361.298C232.358 361.46 232.37 361.732 232.623 361.908L239.684 366.277C239.835 366.357 240.002 366.399 240.171 366.399C240.34 366.399 240.506 366.357 240.658 366.277L246.769 362.492C247.022 362.329 247.01 362.057 246.769 361.895L239.709 357.512C239.56 357.438 239.397 357.401 239.233 357.404C239.069 357.406 238.907 357.448 238.76 357.526H238.722ZM247.642 352.004L241.544 355.776C241.278 355.938 241.303 356.21 241.544 356.386L248.604 360.755C248.752 360.838 248.917 360.882 249.085 360.882C249.252 360.882 249.417 360.838 249.565 360.755L255.677 356.983C255.93 356.82 255.917 356.549 255.677 356.373L248.616 352.004C248.47 351.93 248.31 351.892 248.148 351.892C247.986 351.892 247.827 351.93 247.68 352.004H247.642ZM241.139 390.997L247.237 387.212C247.49 387.049 247.478 386.778 247.237 386.615L240.177 382.246C240.026 382.163 239.859 382.119 239.69 382.119C239.52 382.119 239.353 382.163 239.203 382.246L233.104 386.031C232.838 386.181 232.864 386.452 233.104 386.628L240.164 390.997C240.32 391.087 240.494 391.135 240.67 391.135C240.847 391.135 241.021 391.087 241.177 390.997H241.139ZM188.819 385.272L181.759 380.903C181.609 380.819 181.442 380.776 181.272 380.776C181.103 380.776 180.936 380.819 180.785 380.903L174.699 384.715C174.446 384.878 174.459 385.136 174.699 385.312L181.759 389.681C181.91 389.764 182.077 389.808 182.246 389.808C182.416 389.808 182.583 389.764 182.733 389.681L188.832 385.896C189.11 385.774 189.098 385.502 188.819 385.272ZM202.181 389.477L195.12 385.109C194.971 385.029 194.807 384.987 194.64 384.987C194.473 384.987 194.308 385.029 194.159 385.109L184.821 390.956C184.568 391.119 184.581 391.391 184.821 391.553L191.881 395.922C192.032 396.005 192.199 396.049 192.369 396.049C192.538 396.049 192.705 396.005 192.856 395.922L202.244 390.115C202.535 389.979 202.459 389.708 202.181 389.532V389.477ZM177.989 376.819L170.903 372.504C170.752 372.421 170.585 372.378 170.416 372.378C170.246 372.378 170.079 372.421 169.929 372.504L162.438 377.131C162.185 377.294 162.198 377.565 162.438 377.742L169.499 382.11C169.649 382.194 169.816 382.237 169.986 382.237C170.155 382.237 170.322 382.194 170.473 382.11L177.976 377.47C178.28 377.321 178.267 377.05 177.989 376.873V376.819ZM183.746 373.251C183.896 373.334 184.063 373.377 184.233 373.377C184.402 373.377 184.569 373.334 184.72 373.251L190.819 369.465C191.084 369.316 191.072 369.045 190.819 368.868L183.758 364.5C183.608 364.416 183.441 364.373 183.271 364.373C183.102 364.373 182.935 364.416 182.784 364.5L176.673 368.285C176.42 368.448 176.432 368.719 176.673 368.882L183.746 373.251ZM214.618 394.267L207.596 389.952C207.445 389.872 207.278 389.83 207.109 389.83C206.94 389.83 206.773 389.872 206.622 389.952L194.88 397.225C194.627 397.387 194.64 397.659 194.88 397.822L201.94 402.204C202.092 402.284 202.259 402.326 202.427 402.326C202.596 402.326 202.763 402.284 202.915 402.204L214.656 394.932C214.909 394.769 214.897 394.497 214.618 394.321V394.267ZM220.477 403.126L213.416 398.839C213.266 398.756 213.099 398.712 212.929 398.712C212.76 398.712 212.593 398.756 212.442 398.839L204.926 403.493C204.673 403.656 204.686 403.927 204.926 404.103L211.987 408.472C212.138 408.552 212.305 408.594 212.474 408.594C212.643 408.594 212.809 408.552 212.961 408.472L220.477 403.818C220.768 403.628 220.755 403.357 220.477 403.181V403.126ZM250.084 332.181C250.235 332.265 250.402 332.308 250.571 332.308C250.741 332.308 250.908 332.265 251.058 332.181L257.157 328.41C257.423 328.247 257.397 327.976 257.157 327.799L250.097 323.43C249.945 323.35 249.779 323.309 249.61 323.309C249.441 323.309 249.274 323.35 249.123 323.43L243.024 327.27C242.771 327.433 242.784 327.704 243.024 327.867L250.084 332.181ZM232.231 343.239C232.383 343.319 232.549 343.361 232.718 343.361C232.887 343.361 233.054 343.319 233.205 343.239L239.317 339.467C239.57 339.304 239.557 339.033 239.317 338.857L232.256 334.488C232.105 334.408 231.938 334.366 231.769 334.366C231.6 334.366 231.434 334.408 231.282 334.488L225.183 338.26C224.918 338.423 224.943 338.694 225.183 338.87L232.231 343.239ZM192.666 367.783C192.816 367.866 192.984 367.91 193.153 367.91C193.322 367.91 193.489 367.866 193.64 367.783L199.739 363.998C200.004 363.835 199.992 363.577 199.739 363.401L192.679 359.032C192.528 358.948 192.361 358.905 192.191 358.905C192.022 358.905 191.855 358.948 191.704 359.032L185.593 362.817C185.34 362.98 185.353 363.238 185.593 363.414L192.666 367.783ZM241.164 337.785C241.313 337.865 241.478 337.907 241.645 337.907C241.812 337.907 241.976 337.865 242.126 337.785L248.237 334.013C248.49 333.85 248.477 333.579 248.237 333.403L241.177 329.034C241.026 328.951 240.859 328.907 240.689 328.907C240.52 328.907 240.353 328.951 240.202 329.034L234.104 332.806C233.838 332.968 233.863 333.24 234.104 333.416L241.164 337.785ZM223.311 348.829C223.462 348.912 223.629 348.956 223.798 348.956C223.967 348.956 224.135 348.912 224.285 348.829L230.396 345.057C230.649 344.894 230.637 344.623 230.396 344.447L223.336 340.078C223.185 339.998 223.018 339.956 222.849 339.956C222.68 339.956 222.513 339.998 222.362 340.078L216.263 343.85C215.998 344.012 216.01 344.284 216.263 344.46L223.311 348.829ZM225.373 403.9C225.222 403.82 225.055 403.778 224.886 403.778C224.717 403.778 224.551 403.82 224.399 403.9L215.011 409.693C214.758 409.856 214.77 410.127 215.011 410.304L222.071 414.673C222.222 414.756 222.389 414.799 222.558 414.799C222.728 414.799 222.895 414.756 223.045 414.673L232.434 408.866C232.699 408.703 232.674 408.431 232.434 408.255L225.373 403.9ZM210.506 356.78C210.658 356.86 210.824 356.901 210.993 356.901C211.162 356.901 211.329 356.86 211.481 356.78L217.592 352.994C217.845 352.831 217.832 352.56 217.592 352.397L210.532 348.028C210.381 347.945 210.214 347.902 210.044 347.902C209.875 347.902 209.708 347.945 209.557 348.028L203.459 351.814C203.193 351.963 203.206 352.234 203.459 352.411L210.506 356.78ZM201.586 362.207C201.737 362.29 201.904 362.333 202.073 362.333C202.243 362.333 202.41 362.29 202.56 362.207L208.672 358.421C208.925 358.258 208.912 357.987 208.672 357.824L201.611 353.455C201.461 353.372 201.294 353.329 201.124 353.329C200.955 353.329 200.788 353.372 200.637 353.455L194.538 357.241C194.273 357.39 194.285 357.661 194.538 357.838L201.586 362.207ZM390.669 301.559C390.519 301.476 390.351 301.433 390.182 301.433C390.013 301.433 389.846 301.476 389.695 301.559L374.613 310.84C374.36 311.002 374.372 311.274 374.613 311.45L381.673 315.819C381.824 315.899 381.991 315.941 382.16 315.941C382.329 315.941 382.496 315.899 382.647 315.819L397.755 306.579C398.02 306.417 398.008 306.145 397.755 305.969L390.669 301.559ZM370.943 313.77C370.793 313.687 370.626 313.644 370.456 313.644C370.287 313.644 370.12 313.687 369.969 313.77L363.871 317.542C363.605 317.705 363.618 317.976 363.871 318.153L370.931 322.521C371.082 322.602 371.249 322.643 371.418 322.643C371.587 322.643 371.754 322.602 371.905 322.521L378.016 318.75C378.269 318.587 378.257 318.315 378.016 318.139L370.943 313.77ZM250.097 385.475L256.195 381.69C256.461 381.527 256.436 381.256 256.195 381.093L249.148 376.71C248.996 376.63 248.83 376.589 248.661 376.589C248.492 376.589 248.325 376.63 248.174 376.71L242.062 380.482C241.809 380.645 241.822 380.916 242.062 381.093L249.123 385.461C249.273 385.544 249.439 385.588 249.608 385.59C249.777 385.592 249.944 385.553 250.097 385.475ZM353.103 324.814C352.952 324.734 352.785 324.692 352.616 324.692C352.447 324.692 352.28 324.734 352.129 324.814L346.017 328.586C345.764 328.749 345.777 329.02 346.017 329.197L353.078 333.565C353.228 333.649 353.395 333.692 353.565 333.692C353.734 333.692 353.901 333.649 354.052 333.565L360.151 329.794C360.416 329.631 360.404 329.359 360.151 329.183L353.103 324.814ZM399.589 296.037C399.438 295.957 399.271 295.916 399.102 295.916C398.933 295.916 398.767 295.957 398.615 296.037L392.516 299.796C392.251 299.958 392.263 300.23 392.516 300.393L399.577 304.775C399.728 304.855 399.895 304.897 400.064 304.897C400.233 304.897 400.399 304.855 400.551 304.775L406.662 301.003C406.915 300.84 406.903 300.569 406.662 300.393L399.589 296.037ZM415.57 294.884L398.425 284.274C398.275 284.191 398.108 284.148 397.938 284.148C397.769 284.148 397.602 284.191 397.451 284.274L391.352 288.06C391.087 288.222 391.099 288.494 391.352 288.657L408.497 299.266C408.648 299.35 408.815 299.393 408.984 299.393C409.154 299.393 409.321 299.35 409.471 299.266L415.582 295.481C415.861 295.332 415.848 295.061 415.57 294.884ZM319.763 345.464C319.612 345.381 319.445 345.337 319.276 345.337C319.106 345.337 318.939 345.381 318.789 345.464L311.273 350.118C311.02 350.281 311.033 350.552 311.273 350.715L318.333 355.084C318.484 355.167 318.651 355.21 318.82 355.21C318.99 355.21 319.157 355.167 319.307 355.084L326.823 350.43C327.076 350.267 327.064 349.996 326.823 349.833L319.763 345.464ZM342.298 331.503C342.147 331.42 341.98 331.376 341.81 331.376C341.641 331.376 341.474 331.42 341.323 331.503L331.935 337.31C331.682 337.473 331.695 337.744 331.935 337.907L338.995 342.289C339.147 342.37 339.313 342.411 339.482 342.411C339.651 342.411 339.818 342.37 339.969 342.289L349.358 336.482C349.611 336.32 349.598 336.048 349.358 335.872L342.298 331.503ZM299.101 358.245C298.949 358.165 298.783 358.123 298.614 358.123C298.445 358.123 298.278 358.165 298.127 358.245L247.883 389.342C247.63 389.505 247.642 389.776 247.883 389.952L254.943 394.321C255.094 394.401 255.261 394.443 255.43 394.443C255.599 394.443 255.766 394.401 255.917 394.321L306.161 363.211C306.414 363.048 306.402 362.776 306.161 362.6L299.101 358.245ZM246.035 391.106C245.885 391.022 245.718 390.979 245.548 390.979C245.379 390.979 245.212 391.022 245.061 391.106L237.558 395.759C237.292 395.922 237.305 396.193 237.558 396.356L244.618 400.725C244.769 400.808 244.936 400.852 245.105 400.852C245.275 400.852 245.442 400.808 245.592 400.725L253.146 396.126C253.399 395.963 253.387 395.691 253.146 395.529L246.035 391.106ZM309.426 351.855C309.274 351.774 309.107 351.733 308.939 351.733C308.77 351.733 308.603 351.774 308.451 351.855L300.948 356.508C300.683 356.671 300.695 356.942 300.948 357.119L308.009 361.488C308.16 361.568 308.327 361.609 308.496 361.609C308.665 361.609 308.831 361.568 308.983 361.488L316.499 356.834C316.764 356.685 316.739 356.413 316.499 356.237L309.426 351.855ZM235.711 397.482C235.559 397.402 235.392 397.361 235.223 397.361C235.055 397.361 234.888 397.402 234.736 397.482L227.221 402.136C226.968 402.299 226.98 402.57 227.221 402.747L234.281 407.115C234.432 407.196 234.599 407.237 234.768 407.237C234.937 407.237 235.104 407.196 235.255 407.115L242.758 402.475C243.024 402.312 243.011 402.041 242.758 401.865L235.711 397.482ZM330.088 339.047C329.936 338.967 329.769 338.925 329.6 338.925C329.432 338.925 329.265 338.967 329.113 339.047L321.61 343.687C321.345 343.85 321.357 344.121 321.61 344.297L328.671 348.666C328.822 348.746 328.989 348.788 329.158 348.788C329.327 348.788 329.493 348.746 329.645 348.666L337.161 344.012C337.426 343.85 337.401 343.578 337.161 343.402L330.088 339.047ZM362.023 319.279C361.873 319.195 361.706 319.152 361.536 319.152C361.367 319.152 361.2 319.195 361.049 319.279L354.95 323.051C354.685 323.213 354.697 323.485 354.95 323.661L362.011 328.03C362.162 328.11 362.329 328.152 362.498 328.152C362.667 328.152 362.833 328.11 362.985 328.03L369.096 324.258C369.349 324.095 369.337 323.824 369.096 323.647L362.023 319.279ZM381.572 304.056L387.67 300.284C387.936 300.121 387.923 299.85 387.67 299.674L380.61 295.305C380.459 295.225 380.292 295.183 380.123 295.183C379.954 295.183 379.787 295.225 379.636 295.305L373.525 299.09C373.272 299.253 373.284 299.524 373.525 299.687L380.585 304.069C380.738 304.152 380.907 304.195 381.078 304.195C381.25 304.195 381.419 304.152 381.572 304.069V304.056ZM341.716 303.866L347.827 300.081C348.08 299.918 348.067 299.646 347.827 299.484L340.767 295.115C340.616 295.032 340.449 294.988 340.279 294.988C340.11 294.988 339.943 295.032 339.792 295.115L333.694 298.9C333.428 299.063 333.453 299.321 333.694 299.497L340.741 303.866C340.892 303.949 341.059 303.993 341.228 303.993C341.398 303.993 341.565 303.949 341.716 303.866ZM321.471 341.353L339.312 330.309C339.565 330.146 339.552 329.875 339.312 329.699L332.251 325.33C332.1 325.25 331.933 325.208 331.764 325.208C331.595 325.208 331.429 325.25 331.277 325.33L313.437 336.387C313.184 336.537 313.196 336.808 313.437 336.984L320.497 341.353C320.652 341.426 320.822 341.458 320.992 341.446C321.161 341.435 321.326 341.379 321.471 341.285V341.353ZM371.677 309.646C371.829 309.726 371.995 309.768 372.164 309.768C372.333 309.768 372.5 309.726 372.652 309.646L378.75 305.874C379.016 305.711 379.003 305.44 378.75 305.263L371.69 300.895C371.539 300.811 371.372 300.768 371.203 300.768C371.033 300.768 370.866 300.811 370.716 300.895L364.604 304.666C364.351 304.829 364.364 305.101 364.604 305.277L371.677 309.646ZM362.567 303.418L368.666 299.646C368.932 299.484 368.919 299.212 368.666 299.036L361.606 294.667C361.454 294.587 361.288 294.545 361.119 294.545C360.95 294.545 360.783 294.587 360.631 294.667L354.52 298.452C354.267 298.615 354.28 298.887 354.52 299.049L361.58 303.432C361.739 303.502 361.912 303.531 362.083 303.517C362.254 303.503 362.42 303.446 362.567 303.35V303.418ZM312.551 346.835L318.65 343.049C318.915 342.886 318.89 342.629 318.65 342.452L311.589 338.083C311.439 338 311.272 337.957 311.102 337.957C310.933 337.957 310.766 338 310.615 338.083L304.478 341.855C304.213 342.018 304.238 342.276 304.478 342.452L311.539 346.821C311.703 346.921 311.889 346.973 312.078 346.971C312.267 346.968 312.452 346.912 312.614 346.807L312.551 346.835ZM351.952 321.816C352.103 321.896 352.27 321.938 352.439 321.938C352.608 321.938 352.774 321.896 352.926 321.816L359.037 318.044C359.29 317.881 359.278 317.61 359.037 317.434L351.977 313.065C351.825 312.985 351.659 312.943 351.49 312.943C351.321 312.943 351.154 312.985 351.003 313.065L344.904 316.85C344.638 317.013 344.651 317.284 344.904 317.447L351.952 321.816ZM267.937 374.417L274.036 370.646C274.302 370.483 274.289 370.211 274.036 370.035L266.976 365.666C266.824 365.586 266.657 365.544 266.488 365.544C266.32 365.544 266.153 365.586 266.001 365.666L259.89 369.438C259.637 369.601 259.65 369.872 259.89 370.049L266.95 374.417C267.103 374.5 267.272 374.543 267.444 374.543C267.615 374.543 267.784 374.5 267.937 374.417ZM276.857 368.895L282.969 365.124C283.222 364.961 283.209 364.689 282.969 364.513L275.921 360.144C275.77 360.061 275.603 360.018 275.434 360.018C275.265 360.018 275.097 360.061 274.947 360.144L268.836 363.916C268.582 364.079 268.595 364.35 268.836 364.527L275.896 368.895C276.046 368.973 276.21 369.014 276.377 369.014C276.543 369.014 276.708 368.973 276.857 368.895ZM259.017 379.939L265.116 376.168C265.381 376.005 265.369 375.733 265.116 375.557L258.068 371.188C257.917 371.108 257.75 371.066 257.581 371.066C257.412 371.066 257.245 371.108 257.094 371.188L250.982 374.96C250.729 375.123 250.742 375.394 250.982 375.571L258.043 379.939C258.193 380.023 258.36 380.066 258.53 380.066C258.699 380.066 258.866 380.023 259.017 379.939ZM294.698 357.851L300.809 354.08C301.062 353.917 301.05 353.645 300.809 353.469L293.749 349.1C293.597 349.02 293.431 348.978 293.262 348.978C293.093 348.978 292.926 349.02 292.775 349.1L286.676 352.886C286.41 353.048 286.423 353.32 286.676 353.483L293.736 357.851C293.885 357.932 294.05 357.975 294.217 357.975C294.384 357.975 294.549 357.932 294.698 357.851ZM285.841 363.373L291.952 359.602C292.205 359.439 292.193 359.167 291.952 358.991L284.778 354.622C284.627 354.539 284.46 354.496 284.291 354.496C284.121 354.496 283.954 354.539 283.804 354.622L277.705 358.394C277.439 358.557 277.452 358.828 277.705 358.991L284.765 363.373C284.922 363.46 285.095 363.506 285.272 363.506C285.448 363.506 285.621 363.46 285.778 363.373H285.841ZM303.681 352.329L309.793 348.544C310.046 348.395 310.033 348.123 309.793 347.947L302.732 343.578C302.582 343.495 302.415 343.452 302.245 343.452C302.076 343.452 301.909 343.495 301.758 343.578L295.558 347.282C295.292 347.445 295.318 347.716 295.558 347.879L302.606 352.248C302.755 352.351 302.925 352.412 303.102 352.427C303.279 352.441 303.456 352.407 303.618 352.329H303.681ZM344.499 270.612C344.65 270.695 344.817 270.739 344.986 270.739C345.156 270.739 345.323 270.695 345.473 270.612L351.585 266.826C351.838 266.677 351.825 266.406 351.585 266.229L349.712 265.063C349.561 264.982 349.394 264.941 349.225 264.941C349.056 264.941 348.889 264.982 348.738 265.063L342.627 268.834C342.373 268.997 342.386 269.269 342.627 269.445L344.499 270.612ZM300.607 301.003C300.757 301.086 300.924 301.13 301.094 301.13C301.263 301.13 301.43 301.086 301.581 301.003L307.68 297.231C307.945 297.069 307.933 296.797 307.68 296.621L300.619 292.252C300.468 292.172 300.301 292.13 300.132 292.13C299.963 292.13 299.797 292.172 299.645 292.252L293.534 296.024C293.281 296.187 293.293 296.458 293.534 296.634L300.607 301.003ZM318.447 289.959C318.599 290.039 318.765 290.081 318.934 290.081C319.103 290.081 319.27 290.039 319.421 289.959L325.533 286.187C325.786 286.025 325.773 285.753 325.533 285.577L318.472 281.208C318.322 281.125 318.155 281.081 317.985 281.081C317.816 281.081 317.649 281.125 317.498 281.208L311.349 284.98C311.083 285.143 311.096 285.414 311.349 285.59L318.447 289.959ZM289.713 307.746C289.864 307.826 290.031 307.868 290.2 307.868C290.369 307.868 290.535 307.826 290.687 307.746L296.786 303.961C297.051 303.798 297.039 303.527 296.786 303.364L289.725 298.982C289.574 298.901 289.407 298.86 289.238 298.86C289.069 298.86 288.903 298.901 288.751 298.982L282.64 302.753C282.387 302.916 282.399 303.188 282.64 303.364L289.713 307.746ZM309.527 295.535C309.678 295.616 309.845 295.657 310.014 295.657C310.183 295.657 310.35 295.616 310.501 295.535L316.612 291.764C316.865 291.601 316.853 291.329 316.612 291.153L309.552 286.784C309.401 286.704 309.234 286.662 309.065 286.662C308.896 286.662 308.729 286.704 308.578 286.784L302.479 290.556C302.214 290.719 302.226 290.99 302.479 291.167L309.527 295.535ZM271.809 318.79C271.96 318.874 272.127 318.917 272.296 318.917C272.466 318.917 272.633 318.874 272.783 318.79L278.882 315.005C279.148 314.842 279.122 314.571 278.882 314.408L271.834 310.039C271.684 309.956 271.517 309.912 271.347 309.912C271.178 309.912 271.011 309.956 270.86 310.039L264.749 313.825C264.496 313.974 264.508 314.245 264.749 314.422L271.809 318.79ZM280.729 313.268C280.881 313.348 281.047 313.39 281.216 313.39C281.385 313.39 281.552 313.348 281.703 313.268L287.802 309.483C288.068 309.32 288.055 309.049 287.802 308.886L280.754 304.517C280.604 304.434 280.437 304.39 280.267 304.39C280.098 304.39 279.931 304.434 279.78 304.517L273.669 308.303C273.416 308.452 273.429 308.723 273.669 308.899L280.729 313.268ZM326.595 281.669C326.747 281.75 326.914 281.791 327.083 281.791C327.252 281.791 327.418 281.75 327.57 281.669L333.681 277.898C333.934 277.735 333.921 277.463 333.681 277.287L331.796 276.12C331.644 276.04 331.478 275.998 331.309 275.998C331.14 275.998 330.973 276.04 330.822 276.12L324.723 279.892C324.457 280.055 324.482 280.326 324.723 280.503L326.595 281.669ZM353.369 265.09C353.517 265.173 353.682 265.216 353.85 265.216C354.017 265.216 354.182 265.173 354.33 265.09L360.442 261.304C360.695 261.142 360.682 260.884 360.442 260.707L358.569 259.541C358.418 259.457 358.251 259.414 358.082 259.414C357.912 259.414 357.745 259.457 357.595 259.541L351.483 263.312C351.23 263.475 351.243 263.747 351.483 263.923L353.369 265.09ZM368.185 274.275C368.337 274.355 368.503 274.397 368.672 274.397C368.841 274.397 369.008 274.355 369.159 274.275L375.271 270.49C375.524 270.327 375.511 270.055 375.271 269.893L368.21 265.51C368.059 265.43 367.892 265.388 367.723 265.388C367.554 265.388 367.388 265.43 367.236 265.51L361.138 269.282C360.872 269.445 360.897 269.716 361.138 269.893L368.185 274.275ZM390.492 298.547L396.603 294.762C396.856 294.613 396.844 294.341 396.603 294.165L389.543 289.796C389.392 289.716 389.225 289.674 389.056 289.674C388.887 289.674 388.72 289.716 388.569 289.796L382.47 293.582C382.204 293.745 382.217 294.016 382.47 294.179L389.53 298.547C389.679 298.628 389.844 298.671 390.011 298.671C390.178 298.671 390.343 298.628 390.492 298.547ZM335.516 276.147C335.667 276.227 335.834 276.269 336.003 276.269C336.172 276.269 336.338 276.227 336.49 276.147L342.601 272.376C342.854 272.213 342.842 271.941 342.601 271.765L340.716 270.598C340.564 270.518 340.398 270.476 340.229 270.476C340.06 270.476 339.893 270.518 339.742 270.598L333.643 274.37C333.39 274.533 333.403 274.804 333.643 274.98L335.516 276.147ZM262.889 324.312C263.039 324.396 263.206 324.439 263.376 324.439C263.545 324.439 263.712 324.396 263.863 324.312L269.962 320.527C270.215 320.364 270.202 320.106 269.962 319.93L262.901 315.561C262.751 315.478 262.584 315.434 262.414 315.434C262.245 315.434 262.078 315.478 261.927 315.561L255.828 319.347C255.575 319.509 255.588 319.767 255.828 319.944L262.889 324.312Z" fill="#455A64"/>
<path d="M299.164 383.779L365.971 342.412L407.093 367.865L340.273 409.232L299.164 383.779Z" fill="#263238"/>
<path d="M150.659 175.327L349.763 52.0652C353.647 49.6502 356.836 51.631 356.836 56.4475V221.796C356.772 223.019 356.441 224.209 355.869 225.269C355.298 226.33 354.502 227.231 353.546 227.901L149.393 354.297C147.584 355.41 146.104 354.501 146.104 352.262V183.779C146.194 182.087 146.654 180.441 147.445 178.973C148.236 177.505 149.336 176.256 150.659 175.327Z" fill="#F5F5F5"/>
<path d="M356.899 60.4094V56.4477C356.899 51.6312 353.71 49.6639 349.826 52.0654L150.659 175.327C149.337 176.257 148.236 177.505 147.445 178.973C146.654 180.441 146.195 182.087 146.104 183.78V190.876L356.899 60.4094Z" fill="#F03E3D"/>
<path d="M327.19 69.432C326.479 69.9281 325.888 70.597 325.463 71.3844C325.039 72.1718 324.794 73.0555 324.748 73.9636C324.748 75.6324 325.836 76.3108 327.19 75.4696C327.898 74.9749 328.487 74.3079 328.91 73.5227C329.332 72.7376 329.575 71.8566 329.619 70.9516C329.619 69.2828 328.531 68.6044 327.19 69.432Z" fill="white"/>
<path d="M336.857 63.448C336.148 63.9456 335.559 64.6152 335.137 65.4025C334.715 66.1898 334.472 67.0727 334.427 67.9796C334.427 69.6484 335.516 70.3132 336.857 69.4856C337.568 68.9895 338.159 68.3206 338.584 67.5332C339.008 66.7458 339.253 65.8621 339.299 64.954C339.299 63.2852 338.211 62.6068 336.857 63.448Z" fill="white"/>
<path d="M346.536 57.4514C345.827 57.9499 345.237 58.6194 344.813 59.4063C344.389 60.1932 344.143 61.0756 344.094 61.983C344.094 63.6518 345.195 64.3302 346.536 63.489C347.246 62.9951 347.837 62.3284 348.261 61.5434C348.686 60.7583 348.931 59.877 348.978 58.971C348.978 57.3022 347.877 56.6238 346.536 57.4514Z" fill="white"/>
<path d="M195.269 271.829L187.522 267.032L168.549 302.27L176.296 307.067L195.269 271.829Z" fill="#37474F"/>
<path d="M195.284 271.818L191.416 269.424L172.443 304.662L176.311 307.056L195.284 271.818Z" fill="#263238"/>
<path d="M147.749 371.08C144.218 377.66 127.504 367.213 131.022 360.728L174.61 287.829C174.728 287.632 174.912 287.491 175.124 287.435C175.336 287.379 175.56 287.414 175.749 287.531L184.505 292.958C184.693 293.072 184.833 293.261 184.895 293.483C184.956 293.706 184.934 293.946 184.834 294.152L147.749 371.08Z" fill="#11B5E4"/>
<path opacity="0.1" d="M147.748 371.08L184.821 294.152C184.921 293.946 184.943 293.706 184.882 293.484C184.82 293.261 184.68 293.072 184.492 292.958L180.506 290.489L138.006 371.501C141.877 373.55 146.154 374.052 147.748 371.08Z" fill="black"/>
<path d="M275.921 199.464C275.921 198.907 275.921 198.365 275.845 197.822C275.769 197.279 275.845 196.75 275.731 196.221C275.617 195.692 275.731 195.515 275.63 195.163C275.541 194.24 275.415 193.331 275.276 192.449C275.212 192.056 275.149 191.649 275.073 191.255C274.997 190.862 274.934 190.509 274.858 190.143C274.643 189.139 274.415 188.162 274.15 187.226C274.01 186.778 273.884 186.33 273.745 185.869C273.718 185.803 273.697 185.735 273.681 185.665C273.53 185.231 273.39 184.811 273.239 184.404C273.087 183.997 272.884 183.454 272.682 183.047C272.479 182.64 272.404 182.382 272.239 182.056C272.147 181.812 272.037 181.576 271.91 181.351C271.784 181.066 271.644 180.781 271.493 180.51C271.341 180.238 271.429 180.374 271.391 180.32C271.353 180.265 271.126 179.831 270.986 179.587C270.847 179.343 270.797 179.275 270.708 179.126C270.06 178.031 269.332 176.992 268.532 176.019L268.127 175.53L267.785 175.151C267.646 174.988 267.494 174.838 267.342 174.676C266.945 174.228 266.522 173.806 266.077 173.414C265.862 173.21 265.634 173.02 265.407 172.844L264.711 172.301C264.349 172.017 263.973 171.754 263.585 171.514L263.281 171.311H263.218L245.289 160.213L245.187 160.145C241.748 158.088 237.865 157.035 233.926 157.092C228.056 157.092 221.426 159.154 214.403 163.496C190.287 178.42 170.726 214.754 170.726 244.63C170.726 259.555 175.584 270.002 183.442 274.913H183.518L201.459 285.998H201.535L201.75 286.12C202.087 286.333 202.433 286.528 202.788 286.703C203.218 286.934 203.661 287.137 204.053 287.327C204.445 287.517 204.85 287.667 205.255 287.802L205.901 288.006C206.127 288.099 206.359 288.171 206.596 288.223C206.83 288.299 207.066 288.362 207.305 288.413C207.475 288.466 207.648 288.507 207.824 288.535C208.127 288.603 208.456 288.671 208.773 288.711C208.844 288.724 208.917 288.724 208.988 288.711C209.367 288.784 209.747 288.838 210.127 288.874C216.63 289.607 224.196 287.639 232.294 282.633C256.423 267.709 275.984 231.361 275.984 201.499C275.921 200.875 275.921 200.169 275.921 199.464ZM246.655 178.339C247.603 182.051 248.067 185.887 248.034 189.736C248.034 216.084 230.055 249.433 208.811 262.648C205.705 264.627 202.352 266.121 198.853 267.085C197.911 263.366 197.447 259.527 197.474 255.674C197.474 229.326 215.453 195.977 236.697 182.762C239.791 180.79 243.131 179.3 246.617 178.339H246.655Z" fill="#11B5E4"/>
<path opacity="0.1" d="M200.725 285.618L183.303 274.846C175.445 269.921 170.587 259.447 170.587 244.576C170.587 231.253 174.484 216.654 180.924 203.25L198.866 214.321C192.413 227.725 188.528 242.324 188.528 255.648C188.528 270.246 193.159 280.571 200.725 285.618Z" fill="black"/>
<path opacity="0.4" d="M275.921 199.464C275.921 198.908 275.921 198.365 275.845 197.822C275.769 197.28 275.845 196.75 275.731 196.221C275.617 195.692 275.731 195.516 275.63 195.163C275.542 194.24 275.415 193.331 275.276 192.449C275.213 192.056 275.149 191.649 275.073 191.255C274.997 190.862 274.934 190.509 274.858 190.143C274.643 189.139 274.415 188.162 274.15 187.226C274.011 186.778 273.884 186.33 273.745 185.869C273.718 185.803 273.697 185.735 273.682 185.666C273.53 185.231 273.391 184.811 273.239 184.404C273.087 183.997 272.884 183.454 272.682 183.047C272.48 182.64 272.404 182.382 272.239 182.057C272.147 181.812 272.037 181.576 271.91 181.351C271.784 181.066 271.645 180.781 271.493 180.51C271.341 180.239 271.429 180.374 271.391 180.32C271.353 180.266 271.126 179.832 270.987 179.587C270.847 179.343 270.797 179.275 270.708 179.126C270.06 178.031 269.332 176.992 268.532 176.019L268.127 175.531L267.785 175.151C267.646 174.988 267.494 174.839 267.343 174.676C266.945 174.228 266.523 173.807 266.077 173.414C265.862 173.211 265.634 173.021 265.407 172.844L264.711 172.302C264.349 172.017 263.973 171.755 263.585 171.515C255.651 166.345 244.606 166.956 232.32 174.54C208.191 189.465 188.63 225.799 188.63 255.674C188.63 270.802 193.691 281.371 201.725 286.174C202.062 286.388 202.408 286.582 202.763 286.758C203.193 286.988 203.636 287.192 204.028 287.382C204.42 287.572 204.825 287.721 205.23 287.857L205.875 288.06C206.101 288.153 206.334 288.226 206.571 288.277C206.804 288.353 207.041 288.417 207.28 288.467C207.45 288.521 207.623 288.562 207.799 288.589C208.102 288.657 208.431 288.725 208.748 288.766C208.819 288.779 208.891 288.779 208.963 288.766C209.342 288.838 209.722 288.892 210.101 288.929C216.605 289.661 224.171 287.694 232.269 282.688C256.398 267.763 275.959 231.416 275.959 201.553C275.921 200.875 275.921 200.169 275.921 199.464ZM227.841 274.506C222.425 277.857 217.212 279.621 212.758 279.621C204.395 279.621 200.549 273.502 198.84 267.085C197.898 263.366 197.434 259.528 197.461 255.674C197.461 229.326 215.441 195.977 236.685 182.762C239.791 180.786 243.144 179.297 246.643 178.339C248.299 177.899 249.997 177.667 251.704 177.647C265.533 177.647 267.014 194.39 267.014 201.594C267.064 227.888 249.085 261.332 227.841 274.506Z" fill="white"/>
<path opacity="0.1" d="M267.064 201.594C267.064 227.942 249.097 261.291 227.84 274.506C222.425 277.857 217.212 279.621 212.758 279.621C204.395 279.621 200.548 273.502 198.84 267.084C202.34 266.121 205.693 264.627 208.798 262.648C230.08 249.474 248.022 216.084 248.022 189.735C248.054 185.887 247.59 182.051 246.643 178.339C248.299 177.899 249.997 177.666 251.704 177.647C265.571 177.687 267.064 194.389 267.064 201.594Z" fill="black"/>
<path opacity="0.7" d="M259.472 196.994C259.472 223.342 241.505 256.692 220.249 269.906C214.833 273.258 209.62 275.021 205.167 275.021C204.281 275.024 203.396 274.947 202.522 274.791C200.812 272.526 199.567 269.9 198.866 267.084C197.923 263.366 197.459 259.527 197.486 255.674C197.486 229.326 215.466 195.977 236.71 182.762C239.816 180.786 243.169 179.297 246.668 178.339C248.324 177.899 250.023 177.666 251.729 177.647C252.619 177.644 253.508 177.722 254.386 177.877C258.764 183.399 259.472 192.259 259.472 196.994Z" fill="white"/>
<path d="M290.054 169.548V199.586C290.054 201.839 291.535 202.748 293.344 201.622L476.936 87.9658C477.892 87.2957 478.688 86.3941 479.259 85.3335C479.831 84.273 480.162 83.0833 480.225 81.8603V51.781C480.225 49.5287 478.745 48.6197 476.936 49.7458L293.344 163.402C292.383 164.076 291.585 164.985 291.013 166.053C290.442 167.121 290.113 168.318 290.054 169.548Z" fill="#E6E6E6"/>
<path d="M293.344 163.401L326.039 143.172V181.351L293.344 201.58C291.534 202.706 290.054 201.797 290.054 199.545V169.547C290.113 168.317 290.442 167.12 291.013 166.052C291.585 164.984 292.383 164.076 293.344 163.401Z" fill="#BA68C8"/>
<path d="M315.221 159.833C313.158 158.558 310.552 158.761 307.882 160.417C305.345 162.16 303.234 164.529 301.726 167.326C300.218 170.123 299.357 173.267 299.215 176.494C299.126 178.586 299.741 180.642 300.948 182.288L297.431 188.746C297.202 189.208 297.146 189.746 297.276 190.251C297.405 190.755 297.709 191.188 298.127 191.459C298.417 191.634 298.743 191.727 299.076 191.731C299.409 191.731 299.737 191.637 300.025 191.458C300.314 191.28 300.554 191.023 300.721 190.713L304.2 184.255C304.576 184.33 304.957 184.371 305.339 184.377C306.892 184.347 308.411 183.879 309.742 183.02C312.275 181.273 314.381 178.903 315.887 176.106C317.392 173.31 318.252 170.168 318.397 166.943C318.434 163.646 317.296 161.122 315.221 159.833ZM307.882 179.506C307.438 180.019 306.844 180.355 306.199 180.459C305.553 180.563 304.894 180.43 304.328 180.08C303.762 179.73 303.324 179.185 303.085 178.534C302.846 177.883 302.82 177.164 303.011 176.494C303.158 173.984 303.846 171.544 305.021 169.367C306.195 167.189 307.824 165.333 309.78 163.944C310.539 163.426 311.412 163.131 312.311 163.089C312.681 163.074 313.049 163.168 313.373 163.361C313.85 163.797 314.215 164.356 314.436 164.984C314.658 165.613 314.727 166.291 314.639 166.956C314.493 169.465 313.806 171.904 312.634 174.082C311.462 176.259 309.835 178.116 307.882 179.506Z" fill="white"/>
</svg>
