<svg width="610" height="555" viewBox="0 0 610 555" fill="none" xmlns="http://www.w3.org/2000/svg">
<path d="M98.5233 499.057C212.561 557.648 397.439 557.648 511.477 499.057C625.515 440.467 625.501 345.481 511.477 286.891C397.452 228.301 212.561 228.301 98.5233 286.891C-15.5146 345.481 -15.501 440.467 98.5233 499.057Z" fill="#F5F5F5"/>
<path d="M513.042 354.65C535.269 354.65 553.287 346.206 553.287 335.79C553.287 325.373 535.269 316.929 513.042 316.929C490.816 316.929 472.798 325.373 472.798 335.79C472.798 346.206 490.816 354.65 513.042 354.65Z" fill="#E6E6E6"/>
<path d="M97.8155 464.99C118.193 464.99 134.712 457.247 134.712 447.696C134.712 438.144 118.193 430.401 97.8155 430.401C77.4381 430.401 60.9189 438.144 60.9189 447.696C60.9189 457.247 77.4381 464.99 97.8155 464.99Z" fill="#E6E6E6"/>
<path d="M371.757 498.241C392.961 498.241 410.151 490.18 410.151 480.237C410.151 470.294 392.961 462.233 371.757 462.233C350.553 462.233 333.363 470.294 333.363 480.237C333.363 490.18 350.553 498.241 371.757 498.241Z" fill="#E6E6E6"/>
<path d="M181.19 412.089C202.394 412.089 219.584 404.028 219.584 394.085C219.584 384.142 202.394 376.081 181.19 376.081C159.986 376.081 142.796 384.142 142.796 394.085C142.796 404.028 159.986 412.089 181.19 412.089Z" fill="#E6E6E6"/>
<path d="M407.129 291.763C408.068 280.666 433.927 239.036 441.834 232.584C449.742 226.132 463.706 209.828 457.69 200.565C451.674 191.302 433.995 195.425 417.391 224.298C404.516 246.693 400.515 296.221 400.515 296.221L407.129 291.763Z" fill="#02897A"/>
<path d="M403.591 290.719H403.482C403.394 290.706 403.309 290.676 403.233 290.631C403.157 290.585 403.091 290.525 403.039 290.454C402.987 290.383 402.95 290.302 402.93 290.216C402.91 290.131 402.908 290.043 402.924 289.956C410.232 243.48 425.761 214.487 450.395 201.315C450.554 201.23 450.741 201.21 450.914 201.26C451 201.285 451.08 201.326 451.15 201.382C451.22 201.437 451.278 201.505 451.321 201.583C451.364 201.66 451.391 201.745 451.4 201.832C451.41 201.92 451.402 202.009 451.376 202.093C451.351 202.178 451.309 202.256 451.253 202.325C451.197 202.394 451.127 202.451 451.049 202.493C426.809 215.45 411.512 244.136 404.258 290.171C404.229 290.324 404.147 290.463 404.025 290.563C403.903 290.664 403.749 290.719 403.591 290.719Z" fill="white"/>
<path d="M409.729 237.925C409.729 237.925 430.484 202.64 447.673 186.483C457.2 177.528 463.052 171.759 462.535 164.985C462.154 159.845 457.813 157.101 448.476 159.363C429.871 163.861 419.895 182.401 413.471 203.162C408.912 217.779 409.729 237.925 409.729 237.925Z" fill="#37474F"/>
<path opacity="0.2" d="M409.729 237.925C409.729 237.925 430.484 202.64 447.673 186.483C457.2 177.528 463.052 171.759 462.535 164.985C462.154 159.845 457.813 157.101 448.476 159.363C429.871 163.861 419.895 182.401 413.471 203.162C408.912 217.779 409.729 237.925 409.729 237.925Z" fill="#00FFE3"/>
<path d="M412.137 232.129H412.042C411.862 232.1 411.702 232.002 411.595 231.856C411.488 231.711 411.443 231.53 411.471 231.353C418.861 185.493 446.952 168.225 455.39 164.022C455.551 163.942 455.737 163.929 455.908 163.984C456.079 164.039 456.22 164.159 456.302 164.316C456.344 164.394 456.369 164.479 456.377 164.567C456.384 164.655 456.374 164.743 456.346 164.827C456.318 164.911 456.273 164.988 456.214 165.054C456.155 165.121 456.083 165.175 456.002 165.213C447.714 169.349 420.113 186.323 412.818 231.567C412.792 231.725 412.709 231.869 412.584 231.972C412.459 232.076 412.301 232.131 412.137 232.129Z" fill="white"/>
<path d="M525.985 133.769L521.494 125.47L525.1 115.217V108.939L514.049 115.217V121.494L518.799 129.606C518.873 129.733 518.988 129.832 519.126 129.887L525.985 133.769Z" fill="#11B5E4"/>
<path opacity="0.1" d="M525.985 133.769L521.494 125.47L525.1 115.217V108.939L514.049 115.217V121.494L518.799 129.606C518.873 129.733 518.988 129.832 519.126 129.887L525.985 133.769Z" fill="black"/>
<path d="M500.343 94.803L530.775 77.4013C531.803 76.8928 532.938 76.6279 534.089 76.6279C535.24 76.6279 536.375 76.8928 537.403 77.4013L540.125 78.9407C541.093 79.5571 541.899 80.3904 542.476 81.3723C543.053 82.3543 543.386 83.4568 543.446 84.5895V108.845C543.383 109.977 543.049 111.078 542.472 112.06C541.895 113.041 541.091 113.875 540.125 114.494L509.666 131.895C508.638 132.404 507.503 132.669 506.352 132.669C505.201 132.669 504.066 132.404 503.038 131.895L500.316 130.356C499.351 129.737 498.549 128.903 497.974 127.921C497.399 126.94 497.069 125.838 497.009 124.707V100.425C497.079 99.2968 497.417 98.2004 497.996 97.224C498.575 96.2476 499.379 95.4184 500.343 94.803Z" fill="#11B5E4"/>
<path opacity="0.3" d="M500.343 94.803L530.775 77.4013C531.803 76.8928 532.938 76.6279 534.089 76.6279C535.24 76.6279 536.375 76.8928 537.403 77.4013L540.125 78.9407C541.093 79.5571 541.899 80.3904 542.476 81.3723C543.053 82.3543 543.386 83.4568 543.446 84.5895V108.845C543.383 109.977 543.049 111.078 542.472 112.06C541.895 113.041 541.091 113.875 540.125 114.494L509.666 131.895C508.638 132.404 507.503 132.669 506.352 132.669C505.201 132.669 504.066 132.404 503.038 131.895L500.316 130.356C499.351 129.737 498.549 128.903 497.974 127.921C497.399 126.94 497.069 125.838 497.009 124.707V100.425C497.079 99.2968 497.417 98.2004 497.996 97.224C498.575 96.2476 499.379 95.4184 500.343 94.803Z" fill="white"/>
<path d="M509.68 131.869C507.843 132.899 506.359 132.069 506.359 129.981V105.726C506.423 104.594 506.756 103.493 507.333 102.511C507.91 101.53 508.714 100.696 509.68 100.077L540.139 82.6754C541.976 81.6313 543.46 82.4746 543.46 84.5628V108.818C543.397 109.95 543.063 111.051 542.486 112.033C541.909 113.014 541.105 113.848 540.139 114.467" fill="#11B5E4"/>
<path d="M497.036 124.68C497.096 125.812 497.427 126.913 498.001 127.895C498.576 128.876 499.379 129.711 500.343 130.329L503.065 131.869C503.999 132.33 505.022 132.591 506.066 132.635C507.11 132.678 508.151 132.504 509.122 132.123C507.57 132.712 506.4 131.842 506.4 129.981V105.726C506.444 104.591 506.781 103.485 507.38 102.513L498.043 97.1589C497.449 98.1319 497.117 99.2374 497.077 100.372L497.036 124.68Z" fill="#11B5E4"/>
<path opacity="0.1" d="M497.036 124.68C497.096 125.812 497.427 126.913 498.001 127.895C498.576 128.876 499.379 129.711 500.343 130.329L503.065 131.869C503.999 132.33 505.022 132.591 506.066 132.635C507.11 132.678 508.151 132.504 509.122 132.123C507.57 132.712 506.4 131.842 506.4 129.981V105.726C506.444 104.591 506.781 103.485 507.38 102.513L498.043 97.1589C497.449 98.1319 497.117 99.2374 497.077 100.372L497.036 124.68Z" fill="black"/>
<path d="M520.976 125.43L525.726 133.528C525.796 133.642 525.898 133.735 526.019 133.795C526.14 133.854 526.276 133.88 526.411 133.867C526.546 133.854 526.674 133.805 526.782 133.723C526.89 133.642 526.972 133.533 527.019 133.408L532.041 119.152V112.874L520.976 119.152V125.43Z" fill="#11B5E4"/>
<path d="M524.923 117.144L521.52 116.261C518.281 115.417 514.416 113.583 514.416 109.474C514.579 107.8 515.141 106.187 516.056 104.766C516.971 103.345 518.214 102.156 519.683 101.295C520.165 100.956 520.73 100.751 521.32 100.7C521.91 100.65 522.502 100.756 523.036 101.007C523.57 101.259 524.026 101.647 524.355 102.131C524.685 102.615 524.876 103.177 524.909 103.758C525.25 101.081 527.454 96.8778 530.136 95.3518C533.048 93.7053 535.403 94.6825 535.403 97.5471C535.403 101.643 531.551 107.881 528.312 112.405L524.923 117.144Z" fill="white"/>
<path d="M74.9779 197.473L105.437 180.138C106.463 179.623 107.599 179.355 108.751 179.355C109.903 179.355 111.039 179.623 112.065 180.138L114.787 181.664C115.75 182.285 116.55 183.12 117.125 184.101C117.699 185.082 118.031 186.182 118.094 187.313V211.568C118.031 212.699 117.699 213.799 117.125 214.78C116.55 215.761 115.75 216.596 114.787 217.217L84.3688 234.552C83.3401 235.067 82.2022 235.335 81.048 235.335C79.8937 235.335 78.7558 235.067 77.7271 234.552L75.0052 233.026C74.0271 232.405 73.2133 231.564 72.6311 230.572C72.0489 229.58 71.7151 228.467 71.6571 227.323V203.122C71.7172 201.989 72.0496 200.886 72.6268 199.904C73.2041 198.922 74.0098 198.089 74.9779 197.473Z" fill="#FF7800"/>
<path opacity="0.3" d="M74.9779 197.473L105.437 180.138C106.463 179.623 107.599 179.355 108.751 179.355C109.903 179.355 111.039 179.623 112.065 180.138L114.787 181.664C115.75 182.285 116.55 183.12 117.125 184.101C117.699 185.082 118.031 186.182 118.094 187.313V211.568C118.031 212.699 117.699 213.799 117.125 214.78C116.55 215.761 115.75 216.596 114.787 217.217L84.3688 234.552C83.3401 235.067 82.2022 235.335 81.048 235.335C79.8937 235.335 78.7558 235.067 77.7271 234.552L75.0052 233.026C74.0271 232.405 73.2133 231.564 72.6311 230.572C72.0489 229.58 71.7151 228.467 71.6571 227.323V203.122C71.7172 201.989 72.0496 200.886 72.6268 199.904C73.2041 198.922 74.0098 198.089 74.9779 197.473Z" fill="white"/>
<path d="M100.606 236.466L96.1143 228.154L99.7346 217.9V211.622L88.6697 217.953V224.231L93.4332 232.263C93.5052 232.387 93.6146 232.485 93.7462 232.544L100.606 236.466Z" fill="#FF7800"/>
<path opacity="0.1" d="M100.606 236.466L96.1143 228.154L99.7346 217.9V211.622L88.6697 217.953V224.231L93.4332 232.263C93.5052 232.387 93.6146 232.485 93.7462 232.544L100.606 236.466Z" fill="black"/>
<path d="M84.3687 234.552C82.5313 235.596 81.0479 234.753 81.0479 232.664V208.409C81.1112 207.279 81.445 206.18 82.022 205.2C82.5991 204.221 83.4031 203.39 84.3687 202.774L114.841 185.372C116.665 184.341 118.149 185.185 118.149 187.259V211.515C118.086 212.645 117.754 213.745 117.179 214.727C116.605 215.708 115.804 216.543 114.841 217.164" fill="#FF7800"/>
<path d="M71.657 227.323C71.7204 228.455 72.0541 229.557 72.631 230.538C73.208 231.52 74.012 232.353 74.9778 232.972L77.6998 234.498C78.6361 234.959 79.6602 235.22 80.7059 235.266C81.7516 235.312 82.7954 235.142 83.7698 234.766C82.2047 235.342 81.0478 234.471 81.0478 232.611V208.409C81.0878 207.275 81.4203 206.169 82.0142 205.196L72.6913 199.909C72.0927 200.881 71.7555 201.986 71.7114 203.122L71.657 227.323Z" fill="#FF7800"/>
<path opacity="0.1" d="M71.657 227.323C71.7204 228.455 72.0541 229.557 72.631 230.538C73.208 231.52 74.012 232.353 74.9778 232.972L77.6998 234.498C78.6361 234.959 79.6602 235.22 80.7059 235.266C81.7516 235.312 82.7954 235.142 83.7698 234.766C82.2047 235.342 81.0478 234.471 81.0478 232.611V208.409C81.0878 207.275 81.4203 206.169 82.0142 205.196L72.6913 199.909C72.0927 200.881 71.7555 201.986 71.7114 203.122L71.657 227.323Z" fill="black"/>
<path d="M95.6107 228.113L100.361 236.145C100.429 236.26 100.529 236.353 100.649 236.414C100.769 236.474 100.905 236.5 101.039 236.487C101.174 236.474 101.302 236.424 101.409 236.342C101.515 236.26 101.595 236.15 101.64 236.024L106.662 221.768V215.49L95.6107 221.768V228.113Z" fill="#FF7800"/>
<path d="M88.0436 213.63C87.1254 214.211 86.363 215.001 85.8205 215.933C85.2781 216.865 84.9716 217.911 84.9269 218.984C84.9269 220.938 86.2879 221.661 88.0436 220.751C88.9555 220.163 89.7132 219.372 90.2548 218.442C90.7965 217.511 91.1067 216.468 91.1602 215.397C91.1738 213.442 89.8128 212.599 88.0436 213.63Z" fill="white"/>
<path d="M99.544 207.084C98.628 207.668 97.8665 208.459 97.3222 209.39C96.7779 210.321 96.4665 211.366 96.4137 212.438C96.4137 214.393 97.7747 215.182 99.544 214.205C100.456 213.618 101.214 212.826 101.755 211.896C102.297 210.965 102.607 209.922 102.661 208.851C102.661 206.897 101.259 206.107 99.544 207.084Z" fill="white"/>
<path d="M111.031 200.552C110.119 201.139 109.361 201.931 108.82 202.861C108.278 203.792 107.968 204.835 107.914 205.906C107.914 207.86 109.275 208.583 111.031 207.673C111.949 207.092 112.711 206.302 113.254 205.37C113.796 204.438 114.103 203.392 114.148 202.319C114.148 200.351 112.759 199.561 111.031 200.552Z" fill="white"/>
<path d="M397.956 21.7564L265.64 96.8514C263.925 97.9521 262.498 99.4346 261.474 101.179C260.45 102.923 259.858 104.88 259.747 106.891V394.942C259.747 398.637 262.387 400.136 265.64 398.289L397.956 323.194C399.671 322.093 401.098 320.61 402.122 318.866C403.145 317.122 403.737 315.165 403.849 313.154V25.1029C403.849 21.4084 401.209 19.9092 397.956 21.7564Z" fill="#37474F"/>
<path d="M265.64 96.8513L397.956 21.7564C400.869 20.1099 403.277 21.1406 403.754 24.0186C403.485 22.2079 402.83 20.4737 401.83 18.9302C400.831 17.3867 399.511 16.0688 397.956 15.0634L393.152 12.3862C391.325 11.4749 389.306 11 387.259 11C385.211 11 383.192 11.4749 381.365 12.3862L249.049 87.441C247.309 88.509 245.875 89.9975 244.885 91.7647L261.475 101.135C262.471 99.3823 263.904 97.9081 265.64 96.8513Z" fill="#455A64"/>
<path d="M243.156 385.518C243.266 387.53 243.857 389.488 244.881 391.232C245.905 392.977 247.333 394.459 249.049 395.558L253.854 398.235C255.515 399.059 257.334 399.526 259.192 399.607C261.05 399.688 262.905 399.38 264.633 398.704C261.911 399.734 259.747 398.195 259.747 394.889V106.851C259.815 104.831 260.41 102.863 261.475 101.135L244.885 91.7647C243.823 93.4938 243.228 95.4614 243.156 97.4805V385.518Z" fill="#263238"/>
<path d="M268.811 132.726L394.785 61.2314C396.731 60.1203 398.323 61.0172 398.323 63.2392V281.309C398.254 282.515 397.897 283.689 397.283 284.735C396.668 285.781 395.813 286.671 394.785 287.333L268.811 358.813C266.865 359.925 265.272 359.028 265.272 356.806V138.749C265.338 137.542 265.693 136.367 266.307 135.32C266.922 134.273 267.78 133.384 268.811 132.726Z" fill="#FAFAFA"/>
<path d="M330.464 70.4811C329.862 70.8698 329.361 71.392 329.002 72.0058C328.643 72.6196 328.435 73.3078 328.396 74.015C328.396 75.3535 329.321 75.8488 330.464 75.1929C331.068 74.8058 331.57 74.2839 331.929 73.6698C332.289 73.0557 332.496 72.3667 332.533 71.659C332.533 70.3606 331.607 69.8386 330.464 70.4811Z" fill="#263238"/>
<path d="M310.879 91.2026C309.684 91.9843 308.692 93.031 307.983 94.2586C307.274 95.4861 306.867 96.8602 306.796 98.2704C306.796 100.867 308.647 101.925 310.879 100.626C312.088 99.8528 313.094 98.8095 313.815 97.5813C314.537 96.3531 314.953 94.9748 315.03 93.5585C315.03 90.9617 313.166 89.9042 310.879 91.2026Z" fill="#263238"/>
<path d="M321.019 90.319C321.019 92.0591 322.38 92.715 323.972 91.7914L351.192 76.3039C352.032 75.7837 352.736 75.0764 353.247 74.2393C353.757 73.4022 354.061 72.4587 354.132 71.485C354.132 69.7582 352.771 69.1023 351.192 70.0259L323.972 85.5134C323.131 86.03 322.425 86.7343 321.912 87.5692C321.399 88.4041 321.093 89.3461 321.019 90.319Z" fill="#263238"/>
<path d="M252.329 141.346C253.297 141.962 254.103 142.796 254.68 143.778C255.258 144.76 255.59 145.862 255.65 146.995C255.65 149.07 254.167 149.913 252.329 148.882C251.366 148.259 250.564 147.422 249.99 146.439C249.415 145.455 249.084 144.353 249.022 143.22C249.049 141.145 250.505 140.315 252.329 141.346Z" fill="#37474F"/>
<path d="M252.329 166.471C253.295 167.09 254.099 167.924 254.676 168.905C255.253 169.887 255.587 170.988 255.65 172.12C255.65 174.208 254.167 175.052 252.329 174.008C251.381 173.39 250.591 172.565 250.022 171.596C249.452 170.628 249.12 169.542 249.049 168.426C249.049 166.284 250.506 165.441 252.329 166.471Z" fill="#37474F"/>
<path d="M251.309 141.841C252.274 142.46 253.078 143.294 253.655 144.275C254.232 145.257 254.566 146.358 254.629 147.49C254.629 149.578 253.146 150.422 251.309 149.377C250.344 148.757 249.541 147.923 248.965 146.942C248.388 145.961 248.053 144.86 247.988 143.729C247.988 141.654 249.485 140.81 251.309 141.841Z" fill="#455A64"/>
<path d="M251.309 166.98C252.274 167.599 253.078 168.433 253.655 169.414C254.232 170.396 254.566 171.497 254.629 172.629C254.629 174.717 253.146 175.56 251.309 174.516C250.344 173.896 249.541 173.062 248.965 172.081C248.388 171.099 248.053 169.999 247.988 168.867C247.988 166.779 249.485 165.936 251.309 166.98Z" fill="#455A64"/>
<path d="M331.798 332.698C329.419 334.226 327.44 336.284 326.021 338.705C324.602 341.126 323.784 343.842 323.632 346.632C323.632 351.773 327.293 353.847 331.798 351.291C334.177 349.76 336.156 347.699 337.575 345.276C338.994 342.853 339.812 340.135 339.964 337.343C339.977 332.202 336.316 330.128 331.798 332.698Z" fill="#263238"/>
<path d="M294.929 355.708C293.772 355.708 293.649 354.369 293.649 353.888V135.831C293.721 134.742 294.046 133.684 294.601 132.739C295.156 131.794 295.925 130.988 296.848 130.383L422.822 58.8889C423.198 58.6678 423.623 58.5392 424.06 58.5141C425.217 58.5141 425.339 59.7724 425.339 60.3212V278.391C425.269 279.478 424.944 280.535 424.389 281.478C423.834 282.421 423.065 283.224 422.141 283.826L296.167 355.32C295.795 355.552 295.369 355.686 294.929 355.708Z" fill="white" stroke="#141414" stroke-miterlimit="10"/>
<path d="M424.06 59.1834C424.577 59.1834 424.659 59.8929 424.659 60.3212V278.391C424.59 279.362 424.297 280.304 423.802 281.146C423.306 281.988 422.622 282.708 421.801 283.25L295.827 354.744C295.556 354.912 295.248 355.013 294.929 355.039C294.411 355.039 294.33 354.316 294.33 353.888V135.831C294.398 134.861 294.691 133.918 295.187 133.076C295.682 132.234 296.367 131.514 297.188 130.972L423.162 59.4779C423.43 59.3043 423.739 59.2027 424.06 59.1834ZM424.06 57.8448C423.501 57.8632 422.957 58.0247 422.481 58.3134L296.507 129.807C295.477 130.466 294.619 131.355 294.004 132.402C293.389 133.449 293.034 134.624 292.969 135.831V353.888C292.969 355.467 293.772 356.377 294.929 356.377C295.488 356.354 296.032 356.188 296.507 355.895L422.481 284.415C423.511 283.755 424.368 282.866 424.983 281.819C425.598 280.773 425.953 279.598 426.02 278.391V60.3212C426.02 58.7551 425.217 57.8448 424.06 57.8448Z" fill="#37474F" stroke="#141414" stroke-miterlimit="10"/>
<path d="M425.979 60.3213C425.979 58.0992 424.4 57.2024 422.44 58.3134L296.466 129.808C295.436 130.466 294.578 131.355 293.963 132.402C293.348 133.449 292.993 134.624 292.928 135.831V153.701L425.979 78.1915V60.3213Z" fill="#37474F"/>
<path opacity="0.1" d="M425.979 60.3213C425.979 58.0992 424.4 57.2024 422.44 58.3134L296.466 129.808C295.436 130.466 294.578 131.355 293.963 132.402C293.348 133.449 292.993 134.624 292.928 135.831V153.701L425.979 78.1915V60.3213Z" fill="black"/>
<path d="M306.851 133.93C306.627 133.847 306.385 133.819 306.148 133.85C305.911 133.88 305.685 133.967 305.49 134.104C304.79 134.561 304.207 135.171 303.787 135.886C303.367 136.601 303.12 137.403 303.067 138.227C303.033 138.464 303.064 138.706 303.158 138.928C303.251 139.149 303.403 139.342 303.598 139.485C303.821 139.576 304.065 139.606 304.304 139.573C304.543 139.54 304.769 139.445 304.959 139.298C305.654 138.841 306.234 138.233 306.651 137.52C307.069 136.807 307.314 136.009 307.368 135.189C307.404 134.952 307.374 134.711 307.283 134.49C307.193 134.269 307.043 134.076 306.851 133.93Z" fill="white"/>
<path d="M309.722 129.366L309.423 129.54V128.937C309.423 128.094 308.824 127.746 308.062 128.174L302.346 131.414C301.953 131.664 301.625 132.002 301.388 132.399C301.152 132.797 301.014 133.243 300.985 133.703V134.319L300.672 134.493C300.149 134.826 299.714 135.277 299.402 135.807C299.09 136.337 298.909 136.933 298.875 137.544V142.993C298.875 144.117 299.678 144.586 300.672 144.023L309.695 138.896C310.218 138.56 310.654 138.108 310.966 137.575C311.278 137.043 311.458 136.445 311.491 135.831V130.356C311.519 129.259 310.716 128.804 309.722 129.366ZM305.476 140.182C305.036 140.446 304.534 140.593 304.02 140.61C303.686 140.613 303.358 140.53 303.067 140.369C302.715 140.135 302.432 139.814 302.248 139.438C302.064 139.061 301.985 138.644 302.019 138.227C302.066 137.224 302.358 136.247 302.87 135.378C303.381 134.509 304.098 133.774 304.959 133.234C305.304 132.989 305.712 132.842 306.136 132.809C306.561 132.776 306.987 132.858 307.368 133.047C307.72 133.279 308.003 133.601 308.185 133.978C308.367 134.355 308.442 134.773 308.402 135.189C308.354 136.19 308.063 137.165 307.554 138.034C307.045 138.902 306.333 139.639 305.476 140.182ZM309.559 132.913C309.096 133.167 308.729 132.913 308.729 132.431C308.743 132.147 308.825 131.87 308.97 131.623C309.114 131.376 309.316 131.167 309.559 131.012C310.022 130.744 310.403 131.012 310.403 131.481C310.392 131.763 310.315 132.039 310.179 132.288C310.042 132.536 309.848 132.75 309.613 132.913H309.559Z" fill="white"/>
<path d="M418.738 65.8228L409.932 70.8157C409.422 71.1428 408.997 71.5834 408.692 72.102C408.387 72.6206 408.211 73.2026 408.177 73.8008V79.1551C408.177 80.2394 408.966 80.6945 409.932 80.1457L415.172 77.174L417.227 79.1953C417.276 79.2393 417.336 79.2687 417.401 79.2797C417.466 79.2908 417.532 79.2831 417.593 79.2576C417.653 79.2321 417.705 79.1898 417.742 79.136C417.778 79.0822 417.798 79.0191 417.799 78.9544V75.6748L418.738 75.1394C419.256 74.8169 419.689 74.3782 420.001 73.8593C420.314 73.3404 420.496 72.7561 420.535 72.1543V66.8C420.535 65.7157 419.704 65.274 418.738 65.8228Z" fill="white"/>
<path d="M309.927 150.516C314.527 147.945 318.256 150.034 318.256 155.201C318.091 158.027 317.251 160.774 315.804 163.221C314.356 165.668 312.343 167.745 309.927 169.283C305.313 171.96 301.584 169.805 301.584 164.598C301.739 161.768 302.576 159.014 304.027 156.566C305.477 154.117 307.5 152.043 309.927 150.516Z" fill="#37474F"/>
<path d="M326.504 144.211L354.146 128.522C355.779 127.599 357.099 128.255 357.099 129.981C357.027 130.957 356.722 131.901 356.209 132.739C355.696 133.576 354.989 134.282 354.146 134.8L326.504 150.489C324.884 151.412 323.564 150.756 323.564 149.029C323.635 148.056 323.939 147.112 324.449 146.275C324.96 145.438 325.664 144.731 326.504 144.211Z" fill="#37474F"/>
<g opacity="0.7">
<path opacity="0.7" d="M326.504 144.211L354.146 128.522C355.779 127.599 357.099 128.255 357.099 129.981C357.027 130.957 356.722 131.901 356.209 132.739C355.696 133.576 354.989 134.282 354.146 134.8L326.504 150.489C324.884 151.412 323.564 150.756 323.564 149.029C323.635 148.056 323.939 147.112 324.449 146.275C324.96 145.438 325.664 144.731 326.504 144.211Z" fill="white"/>
</g>
<path d="M325.578 155.334L344.537 144.626C345.653 143.996 346.551 144.438 346.551 145.629C346.503 146.297 346.295 146.945 345.945 147.519C345.595 148.093 345.113 148.579 344.537 148.936L325.578 159.645C324.462 160.274 323.564 159.819 323.564 158.627C323.614 157.961 323.822 157.316 324.172 156.744C324.522 156.172 325.003 155.689 325.578 155.334Z" fill="#37474F"/>
<g opacity="0.7">
<path opacity="0.7" d="M325.578 155.334L344.537 144.626C345.653 143.996 346.551 144.438 346.551 145.629C346.503 146.297 346.295 146.945 345.945 147.519C345.595 148.093 345.113 148.579 344.537 148.936L325.578 159.645C324.462 160.274 323.564 159.819 323.564 158.627C323.614 157.961 323.822 157.316 324.172 156.744C324.522 156.172 325.003 155.689 325.578 155.334Z" fill="white"/>
</g>
<path d="M309.927 291.255C314.527 288.685 318.256 290.786 318.256 295.94C318.091 298.766 317.251 301.514 315.804 303.96C314.356 306.407 312.343 308.484 309.927 310.022C305.313 312.699 301.584 310.544 301.584 305.337C301.742 302.507 302.581 299.756 304.031 297.307C305.481 294.859 307.502 292.785 309.927 291.255Z" fill="#37474F"/>
<path d="M326.504 284.963L354.146 269.262C355.779 268.338 357.099 268.994 357.099 270.721C357.027 271.696 356.722 272.641 356.209 273.478C355.696 274.316 354.989 275.022 354.146 275.54L326.504 291.241C324.884 292.165 323.564 291.509 323.564 289.769C323.637 288.798 323.942 287.857 324.452 287.022C324.963 286.188 325.666 285.482 326.504 284.963Z" fill="#37474F"/>
<g opacity="0.7">
<path opacity="0.7" d="M326.504 284.963L354.146 269.262C355.779 268.338 357.099 268.994 357.099 270.721C357.027 271.696 356.722 272.641 356.209 273.478C355.696 274.316 354.989 275.022 354.146 275.54L326.504 291.241C324.884 292.165 323.564 291.509 323.564 289.769C323.637 288.798 323.942 287.857 324.452 287.022C324.963 286.188 325.666 285.482 326.504 284.963Z" fill="white"/>
</g>
<path d="M325.578 296.074L344.537 285.365C345.653 284.736 346.551 285.178 346.551 286.369C346.503 287.037 346.295 287.684 345.945 288.259C345.595 288.833 345.113 289.318 344.537 289.675L325.578 300.384C324.462 301.013 323.564 300.558 323.564 299.38C323.612 298.712 323.819 298.064 324.169 297.49C324.519 296.915 325.002 296.43 325.578 296.074Z" fill="#37474F"/>
<g opacity="0.7">
<path opacity="0.7" d="M325.578 296.074L344.537 285.365C345.653 284.736 346.551 285.178 346.551 286.369C346.503 287.037 346.295 287.684 345.945 288.259C345.595 288.833 345.113 289.318 344.537 289.675L325.578 300.384C324.462 301.013 323.564 300.558 323.564 299.38C323.612 298.712 323.819 298.064 324.169 297.49C324.519 296.915 325.002 296.43 325.578 296.074Z" fill="white"/>
</g>
<path d="M307.341 177.073L412.015 117.64C413.648 116.716 414.968 117.466 414.968 119.313V222.13C414.913 223.138 414.616 224.119 414.103 224.994C413.59 225.868 412.875 226.611 412.015 227.163L307.341 286.945C305.707 287.868 304.401 287.119 304.401 285.271V182.093C304.454 181.087 304.748 180.109 305.259 179.236C305.77 178.364 306.483 177.623 307.341 177.073Z" fill="#F5F5F5"/>
<path d="M345.762 200.619C345.495 200.234 345.125 199.928 344.694 199.734C344.263 199.54 343.786 199.467 343.315 199.52C342.844 199.574 342.397 199.753 342.022 200.039C341.647 200.325 341.359 200.706 341.189 201.141L304.442 269.784V285.271C304.442 287.119 305.803 287.868 307.382 286.945L412.056 227.471C412.916 226.919 413.631 226.176 414.144 225.302C414.657 224.427 414.954 223.446 415.009 222.438V188.17L395.125 153.434C394.023 151.493 392.485 151.613 391.682 153.688L365.21 222.692L345.762 200.619Z" fill="#37474F"/>
<g opacity="0.3">
<path opacity="0.3" d="M345.762 200.619C345.494 200.234 345.125 199.928 344.694 199.734C344.263 199.54 343.786 199.467 343.315 199.52C342.844 199.574 342.397 199.753 342.022 200.039C341.647 200.325 341.359 200.706 341.189 201.141L304.442 269.784V285.271C304.442 287.119 305.803 287.868 307.382 286.945L412.056 227.471C412.916 226.919 413.631 226.176 414.144 225.302C414.657 224.427 414.954 223.446 415.009 222.438V188.17L395.125 153.434C394.023 151.493 392.485 151.613 391.682 153.688L365.21 222.692L345.762 200.619Z" fill="#00564C"/>
</g>
<path d="M315.439 204.889C324.666 199.682 332.165 186.992 332.165 176.551C332.165 171.197 330.205 167.529 327.089 165.842L307.341 177.046C306.483 177.596 305.77 178.337 305.259 179.209C304.748 180.082 304.454 181.061 304.401 182.066V206.348C307.341 207.647 311.192 207.245 315.439 204.889Z" fill="#37474F"/>
<g opacity="0.6">
<path opacity="0.6" d="M315.439 204.889C324.666 199.682 332.165 186.992 332.165 176.551C332.165 171.197 330.205 167.529 327.089 165.842L307.341 177.046C306.483 177.596 305.77 178.337 305.259 179.209C304.748 180.082 304.454 181.061 304.401 182.066V206.348C307.341 207.647 311.192 207.245 315.439 204.889Z" fill="white"/>
</g>
<path d="M307.341 318.348L412.015 258.901C413.648 257.978 414.968 258.633 414.968 260.374C414.894 261.347 414.588 262.289 414.075 263.123C413.562 263.958 412.856 264.663 412.015 265.179L307.341 324.626C305.707 325.55 304.401 324.894 304.401 323.154C304.47 322.181 304.773 321.239 305.284 320.403C305.795 319.568 306.5 318.864 307.341 318.348Z" fill="#37474F"/>
<g opacity="0.6">
<path opacity="0.6" d="M307.341 318.348L412.015 258.901C413.648 257.978 414.968 258.633 414.968 260.374C414.894 261.347 414.588 262.289 414.075 263.123C413.562 263.958 412.856 264.663 412.015 265.179L307.341 324.626C305.707 325.55 304.401 324.894 304.401 323.154C304.47 322.181 304.773 321.239 305.284 320.403C305.795 319.568 306.5 318.864 307.341 318.348Z" fill="white"/>
</g>
<path d="M307.341 330.904L412.015 271.497C413.648 270.574 414.968 271.229 414.968 272.97C414.894 273.943 414.588 274.885 414.075 275.719C413.562 276.554 412.856 277.259 412.015 277.775L307.341 337.222C305.707 338.146 304.401 337.49 304.401 335.75C304.465 334.77 304.765 333.82 305.276 332.978C305.787 332.135 306.495 331.424 307.341 330.904Z" fill="#37474F"/>
<g opacity="0.6">
<path opacity="0.6" d="M307.341 330.904L412.015 271.497C413.648 270.574 414.968 271.229 414.968 272.97C414.894 273.943 414.588 274.885 414.075 275.719C413.562 276.554 412.856 277.259 412.015 277.775L307.341 337.222C305.707 338.146 304.401 337.49 304.401 335.75C304.465 334.77 304.765 333.82 305.276 332.978C305.787 332.135 306.495 331.424 307.341 330.904Z" fill="white"/>
</g>
<path d="M323.482 121.107L398.16 78.7402C400.446 77.4016 402.243 78.4992 402.243 81.0827C402.172 82.4856 401.765 83.8521 401.056 85.0711C400.346 86.29 399.354 87.3268 398.16 88.0969L323.496 130.343C321.209 131.681 319.413 130.611 319.413 128.067C319.49 126.675 319.899 125.32 320.605 124.111C321.312 122.902 322.297 121.873 323.482 121.107Z" fill="#FAFAFA"/>
<path d="M542.888 201.462L548.182 211.006L539.948 217.954L532.395 206.187L542.888 201.462Z" fill="#F28F8F"/>
<path d="M523.018 180.192C528.271 180.192 534.055 182.119 536.042 186.175L544.208 202.827C544.208 202.827 539.567 209.52 532.204 209.038L523.018 180.192Z" fill="#E0E0E0"/>
<path d="M542.48 212.492C544.018 209.681 544.399 209.547 545.311 208.931C546.223 208.316 551.83 207.499 554.157 207.298C556.879 207.071 557.873 207.566 557.111 209.882C555.014 215.723 552.447 221.389 549.435 226.828C548.7 227.779 548.564 228.662 545.474 228.97C542.602 229.238 538.996 229.399 537.934 229.452C536.873 229.506 535.403 229.787 536.342 226.708C537.557 223.23 538.965 219.82 540.561 216.495C541.745 213.938 542.48 212.492 542.48 212.492Z" fill="#37474F"/>
<path d="M481.153 307.197C479.792 306.528 479.016 308.161 477.832 309.473C476.815 310.437 476.022 311.606 475.505 312.9C475.219 314.439 476.648 316.915 478.227 318.254C479.806 319.593 481.629 320.57 482.201 323.515C482.348 324.866 482.882 326.149 483.739 327.215C484.596 328.281 485.743 329.086 487.046 329.538C490.449 330.984 495.008 330.515 496.573 329.538C498.397 328.374 496.723 327.089 494.164 323.474C490.816 318.763 488.203 315.443 488.203 310.985L481.153 307.197Z" fill="#263238"/>
<path d="M483.835 303.329L481.113 307.344C480.526 308.165 480.293 309.181 480.467 310.17C480.64 311.159 481.206 312.039 482.039 312.619L482.12 312.685C482.957 313.174 483.942 313.36 484.903 313.211C485.865 313.062 486.743 312.587 487.387 311.869L491.688 307.264L483.835 303.329Z" fill="#FFA8A7"/>
<path d="M534.382 225.905C534.559 230.965 533.102 251.405 529.55 260.44C525.998 269.476 523.943 275.098 522.827 276.985C521.711 278.873 489.51 309.687 489.51 309.687C489.51 309.687 484.066 309.299 483.181 304.092C483.181 304.092 496.369 282.032 499.227 277.507C502.085 272.983 512.211 266.049 512.211 266.049L511.286 226.48L534.382 225.905Z" fill="#37474F"/>
<path d="M486.679 220.979C486.679 220.109 489.401 210.109 490.762 205.491L500.738 208.864L498.397 216.146L489.619 225.075C488.689 224.892 487.865 224.366 487.318 223.604C486.771 222.841 486.542 221.902 486.679 220.979Z" fill="#FFA8A7"/>
<path d="M527.288 333.59L534.096 332.067L531.842 322.317L525.034 323.839L527.288 333.59Z" fill="#FFA8A7"/>
<path d="M534.382 225.905H501.718C501.005 230.595 500.596 235.326 500.493 240.067C500.235 253.988 513.409 279.274 513.409 279.274C512.777 284.9 513.062 290.59 514.253 296.127C517.138 307.211 525.005 325.991 525.005 325.991C525.005 325.991 529.945 326.674 532.381 323.876C532.381 323.876 528.026 285.767 526.856 276.008C525.59 265.433 522.324 246.144 522.324 246.144C524.48 244.031 526.434 241.728 528.162 239.264C531.192 235.296 533.309 230.729 534.368 225.878" fill="#37474F"/>
<path d="M512.239 180.473C505.978 181.959 497.445 183.886 494.981 190.552C492.518 197.219 488.966 209.038 488.966 209.038C490.327 211.381 497.88 213.322 500.507 211.97L501.732 207.954V225.864C506.631 231.112 523.698 233.548 534.396 225.864V192.4C534.396 187.045 531.374 180.62 523.031 180.152L512.239 180.473Z" fill="#11B5E4"/>
<path d="M501.731 207.994L504.875 198.263L501.731 212.345V207.994Z" fill="#E0E0E0"/>
<path d="M509.884 153.125C509.322 153.064 508.754 153.128 508.221 153.314C507.688 153.499 507.205 153.801 506.808 154.196C505.447 155.535 505.76 157.984 506.808 163.647L510.891 164.102L509.884 153.125Z" fill="#263238"/>
<path d="M533.715 151.492C534.573 151.501 535.425 151.342 536.22 151.024C537.472 150.314 537.798 151.72 537.104 152.938C536.651 153.811 535.977 154.555 535.148 155.099C534.319 155.642 533.362 155.968 532.368 156.044C532.368 155.87 531.198 152.898 531.198 152.898L533.715 151.492Z" fill="#263238"/>
<path d="M511.803 164.102C511.204 164.463 510.333 163.312 509.584 162.549C509.291 162.217 508.917 161.963 508.497 161.813C508.076 161.662 507.624 161.62 507.182 161.69C506.741 161.759 506.324 161.939 505.973 162.211C505.622 162.483 505.347 162.839 505.175 163.245C503.936 165.815 506.753 169.242 508.414 170.367C508.874 170.762 509.45 171.004 510.059 171.057C510.668 171.11 511.279 170.971 511.803 170.661L512.238 180.5C512.972 182.076 514.09 183.449 515.493 184.497C516.896 185.546 518.541 186.237 520.282 186.51C526.161 187.286 524.95 182.494 523.004 180.192V176.618C524.475 176.923 525.987 176.996 527.481 176.832C528.243 176.631 530.067 174.463 531.251 172.026C533.762 167.148 534.321 161.521 532.816 156.258C530.707 147.45 521.085 147.182 515.355 150.729C509.625 154.277 511.803 164.102 511.803 164.102Z" fill="#FFA8A7"/>
<path d="M511.803 165.106C511.504 165.106 510.347 163.219 509.585 162.549C508.537 161.612 509.884 153.179 509.884 153.179C509.595 152.273 509.537 151.31 509.715 150.377C509.893 149.443 510.302 148.567 510.905 147.825C512.973 145.683 516.975 146.044 519.901 145.951C523.501 145.965 527.066 145.259 530.381 143.876C534.545 142.096 534.858 141.895 535.362 143.688C535.764 145.171 535.814 146.724 535.507 148.229C535.2 149.733 534.545 151.148 533.593 152.363L532.232 154.531C532.232 154.531 530.966 155.575 527.087 156.044C523.208 156.512 516.594 154.451 515.764 154.344C514.634 154.196 514.403 155.267 513.79 158.199C513.273 160.729 512.837 165.093 511.803 165.106Z" fill="#263238"/>
<path d="M509.898 153.795L506.223 151.854C506.341 151.618 506.504 151.407 506.705 151.233C506.905 151.06 507.139 150.927 507.392 150.842C507.645 150.758 507.912 150.723 508.179 150.741C508.445 150.758 508.706 150.827 508.945 150.944C509.45 151.204 509.831 151.647 510.009 152.179C510.187 152.712 510.147 153.291 509.898 153.795Z" fill="#263238"/>
<path d="M523.004 176.618C520.5 176.146 518.045 175.451 515.668 174.543C514.555 173.965 513.641 173.075 513.042 171.986C513.329 173.079 513.838 174.104 514.539 174.998C515.9 176.752 523.004 178.037 523.004 178.037V176.618Z" fill="#F28F8F"/>
<path d="M523.181 163.915C523.185 164.204 523.073 164.482 522.869 164.69C522.665 164.898 522.386 165.019 522.092 165.026C521.946 165.022 521.801 164.99 521.667 164.932C521.533 164.874 521.412 164.79 521.311 164.685C521.21 164.581 521.131 164.458 521.078 164.323C521.025 164.189 521 164.045 521.004 163.901C521 163.612 521.112 163.334 521.316 163.126C521.52 162.918 521.799 162.797 522.092 162.79C522.239 162.794 522.383 162.826 522.517 162.884C522.651 162.942 522.772 163.026 522.874 163.131C522.975 163.235 523.054 163.358 523.107 163.493C523.159 163.627 523.185 163.771 523.181 163.915Z" fill="#263238"/>
<path d="M522.024 159.859L519.697 161.198C519.608 161.043 519.552 160.872 519.532 160.695C519.511 160.518 519.527 160.339 519.578 160.168C519.628 159.997 519.713 159.838 519.827 159.7C519.941 159.562 520.082 159.447 520.241 159.363C520.547 159.209 520.901 159.175 521.231 159.266C521.562 159.358 521.845 159.57 522.024 159.859Z" fill="#263238"/>
<path d="M522.514 171.103L525.005 172.027C524.882 172.348 524.638 172.611 524.324 172.76C524.01 172.91 523.649 172.935 523.317 172.83C523.149 172.769 522.994 172.676 522.863 172.556C522.731 172.436 522.625 172.292 522.55 172.131C522.476 171.97 522.434 171.797 522.428 171.62C522.422 171.444 522.451 171.268 522.514 171.103Z" fill="#F28F8F"/>
<path d="M532.899 160.755L530.775 159.149C530.989 158.878 531.3 158.698 531.644 158.646C531.988 158.593 532.34 158.673 532.626 158.868C532.771 158.974 532.893 159.106 532.986 159.259C533.078 159.411 533.138 159.58 533.164 159.756C533.189 159.931 533.179 160.11 533.133 160.282C533.088 160.453 533.008 160.614 532.899 160.755Z" fill="#263238"/>
<path d="M532.245 163.607C532.249 163.895 532.136 164.174 531.933 164.382C531.729 164.59 531.45 164.711 531.156 164.718C531.01 164.714 530.865 164.682 530.731 164.624C530.597 164.566 530.476 164.482 530.375 164.377C530.274 164.273 530.195 164.15 530.142 164.015C530.089 163.881 530.064 163.737 530.067 163.593C530.064 163.304 530.176 163.026 530.38 162.818C530.584 162.61 530.863 162.489 531.156 162.482C531.451 162.493 531.73 162.616 531.934 162.826C532.137 163.036 532.249 163.316 532.245 163.607Z" fill="#263238"/>
<path d="M527.114 163.473L526.093 169.844L529.673 169.43L527.114 163.473Z" fill="#F28F8F"/>
<path d="M533.32 328.815L533.103 327.852C533.81 327.985 536.873 332.978 539.908 335.147C543.228 337.516 546.1 338.922 547.584 339.993C549.571 341.425 546.699 344.356 541.813 344.624C539.39 344.745 535.008 344.022 533.647 342.75C532.286 341.478 531.306 339.377 530.217 338.467C529.129 337.556 526.965 336.753 526.216 335.589C525.815 334.432 525.672 333.204 525.794 331.988C525.794 330.73 525.889 329.311 526.325 329.378L526.488 330.1C527.75 330.734 529.155 331.043 530.571 330.997C531.755 330.944 533.892 330.689 533.32 328.815Z" fill="#263238"/>
<path d="M526.012 269.529C526.012 269.529 523.113 249.277 522.337 246.144C524.666 244.893 526.832 243.37 528.788 241.606C527.439 243.505 525.966 245.316 524.379 247.028L526.012 269.529Z" fill="#263238"/>
<path d="M508.523 268.82C508.523 268.82 512.007 277.347 513.423 279.234C513.423 279.234 513.069 285.74 513.109 287.051L511.286 288.618C511.238 285.675 511.512 282.735 512.102 279.85C510.502 276.313 509.302 272.614 508.523 268.82Z" fill="#263238"/>
<path d="M498.438 216.146C498.438 216.146 525.89 219.038 529.115 218.061C532.341 217.084 536.669 213.938 538.942 212.599C541.214 211.261 542.943 211.18 542.943 211.729C542.943 212.278 540.956 215.263 540.507 216.508C540.058 217.753 542.644 217.753 546.06 216.976C549.476 216.2 550.837 214.299 551.721 215.397C552.606 216.495 549.83 222.09 544.168 224.191C538.506 226.293 534.301 224.888 529.619 225.088C524.937 225.289 496.097 227.096 489.606 225.088C489.434 224.065 489.553 223.015 489.949 222.053C490.345 221.092 491.003 220.257 491.851 219.64C493.813 218.092 496.045 216.908 498.438 216.146Z" fill="#FFA8A7"/>
<path d="M346.252 345.119C346.32 344.249 347.994 334.879 349.137 329.632L360.338 333.005L358.542 340.354L349.233 349.216C348.295 349.042 347.461 348.519 346.906 347.756C346.351 346.993 346.116 346.048 346.252 345.119Z" fill="#FFA8A7"/>
<path d="M370.804 265.795H376.248C380.266 265.795 384.119 267.364 386.959 270.158C389.8 272.952 391.396 276.742 391.396 280.693V318.656H355.656V280.693C355.656 276.742 357.252 272.952 360.093 270.158C362.934 267.364 366.787 265.795 370.804 265.795Z" fill="#263238"/>
<path d="M400.433 325.429L405.727 334.973L397.48 341.907L389.94 330.141L400.433 325.429Z" fill="#F28F8F"/>
<path d="M380.562 304.145C385.816 304.145 391.6 306.073 393.587 310.129L401.753 326.781C401.753 326.781 397.112 333.474 389.749 333.005L380.562 304.145Z" fill="#455A64"/>
<path d="M384.809 469.287C386.617 471.665 388.649 473.871 390.879 475.873C391.237 476.156 391.521 476.518 391.709 476.93C391.94 477.626 392.24 479.3 389.096 479.982C387.502 480.326 385.852 480.328 384.257 479.989C382.663 479.649 381.161 478.976 379.855 478.015C377.555 476.194 377.827 472.995 375.704 470.893C374.125 469.354 371.988 468.752 370.804 466.878C369.974 465.539 370.423 463.946 371.172 461.978C371.92 460.011 372.451 458.217 373.172 458.471L372.927 459.462C373.676 461.028 378.371 462.018 380.671 461.269C381.909 464.01 383.29 466.686 384.809 469.287Z" fill="#263238"/>
<path d="M386.66 471.589C386.02 470.853 385.394 470.104 384.809 469.287C383.605 467.316 382.528 465.273 381.583 463.17C380.97 461.917 380.863 460.481 381.284 459.154L382.835 454L374.669 452.153L372.9 459.368C372.519 461.015 373.73 462.648 375.949 465.03C378.167 467.413 380.726 472.66 382.754 474.146C384.781 475.632 386.442 475.779 387.476 475.271C388.511 474.762 388.769 474.293 386.66 471.589Z" fill="#FFA8A7"/>
<path d="M362.842 473.825V472.687C363.305 474.026 365.401 479.728 368.586 482.593C371.131 484.855 374.588 487.492 375.459 490.022C376.33 492.552 370.654 493.542 368.286 493.127C365.126 492.606 362.228 491.078 360.039 488.777C358.678 487.13 357.807 485.176 356.827 483.878C355.847 482.579 353.615 481.2 353.098 479.648C352.934 478.249 353.087 476.832 353.547 475.498C353.928 474.159 354.322 472.567 354.812 472.687V473.624C355.977 474.517 357.419 474.989 358.895 474.963C360.011 474.963 362.856 474.708 362.842 473.825Z" fill="#263238"/>
<path d="M370.886 484.587L368.586 482.579C366.453 480.356 364.788 477.741 363.686 474.882C363.129 473.563 362.842 472.148 362.842 470.719V466.208H354.812V473.544V473.745C355.194 475.391 358.895 479.755 360.978 482.606C362.685 485.056 365.289 486.764 368.246 487.371C371.308 487.773 372.9 486.836 370.886 484.587Z" fill="#FFA8A7"/>
<path d="M356.405 350.996C350.185 364.382 356.636 411.514 356.636 411.514C356.446 413.695 353.914 417.966 352.989 427.577C351.873 438.874 354.731 467.226 354.731 467.226C355.96 467.935 357.349 468.336 358.773 468.392C360.197 468.448 361.614 468.158 362.897 467.547C362.897 467.547 370.559 424.833 372.002 413.602L376.602 377.567L383.407 412.732C381.586 415.487 380.08 418.432 378.916 421.513C377.296 426.479 374.016 454.777 374.016 454.777C375.123 455.772 376.446 456.505 377.885 456.92C379.324 457.336 380.84 457.422 382.318 457.173C382.318 457.173 398.038 418.354 398.745 410.429C399.167 405.677 392.117 349.095 392.117 349.095L356.405 350.996Z" fill="#37474F"/>
<path d="M376.548 377.513L377.636 369.776C377.636 369.776 386.197 368.036 390.076 364.422C387.398 367.51 383.895 369.8 379.964 371.034L378.82 378.504L380.181 395.812L376.548 377.513Z" fill="#263238"/>
<path d="M367.456 304.506C365.164 305.055 363.027 306.102 361.201 307.571C359.376 309.039 357.909 310.892 356.908 312.993C355.439 316.187 355.302 319.821 356.527 323.113L362.012 338.948C362.012 338.948 359.412 345.146 356.377 350.996C370.355 358.666 387.789 354.637 391.995 349.041C392.172 347.85 391.927 342.496 392.267 336.418C392.621 329.926 393.533 322.591 392.498 318.588C390.566 311.132 386.959 304.145 379.786 304.145L367.456 304.506Z" fill="#F03E3D"/>
<path d="M365.319 304.507C360.556 305.163 353.56 306.113 351.138 317.25C348.715 328.387 347.994 332.47 347.994 332.47C349.547 333.969 351.398 335.137 353.43 335.902C355.463 336.666 357.633 337.011 359.807 336.914L362.271 328.347L365.319 304.507Z" fill="#455A64"/>
<path d="M368.027 313.904C367.205 313.904 366.391 313.744 365.632 313.435C364.872 313.125 364.182 312.672 363.601 312.1C363.019 311.528 362.558 310.849 362.243 310.102C361.929 309.355 361.767 308.555 361.767 307.746V289.822H368.027V313.904Z" fill="#263238"/>
<path d="M385.53 272.902C387.422 274 389.749 278.672 389.518 288.457C389.327 296.756 386.591 298.817 385.217 299.406C383.842 299.995 381.202 299.634 378.63 299.206V304.185C378.63 304.185 382.182 308.201 381.964 310.544C381.746 312.886 376.82 313.368 373.485 311.132C371.337 309.6 369.492 307.695 368.041 305.51V293.463C367.77 293.79 367.436 294.06 367.058 294.258C366.68 294.457 366.265 294.579 365.839 294.619C365.412 294.659 364.982 294.615 364.573 294.49C364.163 294.365 363.783 294.162 363.455 293.891C360.61 292.031 360.501 287.439 362.162 285.86C363.822 284.28 367.374 284.736 368.041 287.011C371.405 286.866 374.679 285.9 377.568 284.2C379.71 283.072 381.549 281.459 382.933 279.495C384.318 277.531 385.208 275.271 385.53 272.902Z" fill="#FFA8A7"/>
<path d="M380.099 286.383C380.102 286.587 380.043 286.788 379.93 286.961C379.817 287.133 379.656 287.268 379.465 287.351C379.275 287.433 379.064 287.459 378.858 287.424C378.653 287.39 378.463 287.296 378.311 287.156C378.159 287.016 378.053 286.835 378.005 286.636C377.957 286.436 377.97 286.227 378.041 286.035C378.113 285.843 378.24 285.675 378.408 285.554C378.575 285.432 378.775 285.362 378.983 285.351C379.126 285.346 379.268 285.369 379.401 285.418C379.535 285.467 379.657 285.541 379.761 285.637C379.864 285.733 379.948 285.849 380.006 285.976C380.064 286.104 380.096 286.242 380.099 286.383Z" fill="#263238"/>
<path d="M380.386 293.41L382.849 294.186C382.805 294.349 382.729 294.502 382.623 294.635C382.518 294.768 382.386 294.879 382.236 294.96C382.086 295.042 381.92 295.092 381.75 295.109C381.579 295.125 381.407 295.108 381.243 295.057C380.912 294.944 380.638 294.709 380.479 294.402C380.319 294.096 380.286 293.74 380.386 293.41Z" fill="#F28F8F"/>
<path d="M388.796 283.17L386.66 281.711C386.749 281.568 386.868 281.445 387.007 281.349C387.147 281.253 387.305 281.186 387.472 281.152C387.639 281.118 387.811 281.118 387.978 281.152C388.145 281.186 388.303 281.253 388.443 281.349C388.729 281.549 388.926 281.85 388.992 282.19C389.058 282.529 388.988 282.88 388.796 283.17Z" fill="#263238"/>
<path d="M388.307 285.619C388.325 285.901 388.23 286.179 388.041 286.392C387.853 286.605 387.586 286.736 387.3 286.757C387.014 286.761 386.738 286.655 386.53 286.463C386.322 286.271 386.198 286.007 386.184 285.726C386.176 285.589 386.197 285.452 386.243 285.323C386.29 285.193 386.362 285.074 386.456 284.972C386.549 284.87 386.662 284.787 386.789 284.729C386.915 284.67 387.051 284.636 387.191 284.629C387.33 284.622 387.47 284.642 387.601 284.688C387.733 284.734 387.854 284.805 387.957 284.896C388.061 284.988 388.145 285.1 388.205 285.224C388.265 285.348 388.3 285.482 388.307 285.619Z" fill="#263238"/>
<path d="M383.298 285.03L383.475 291.308L386.836 290.277L383.298 285.03Z" fill="#F28F8F"/>
<path d="M378.63 299.206C375.908 298.858 370.328 297.278 369.457 295.11C369.804 296.21 370.488 297.178 371.417 297.881C373.077 299.286 378.63 300.879 378.63 300.879V299.206Z" fill="#F28F8F"/>
<path d="M400.011 336.445C401.549 333.634 401.93 333.514 402.856 332.898C403.781 332.282 409.375 331.452 411.702 331.252C414.424 331.024 415.418 331.519 414.656 333.848C412.533 339.683 409.949 345.345 406.925 350.782C406.19 351.745 406.04 352.629 402.965 352.923C399.889 353.218 396.473 353.352 395.411 353.419C394.349 353.486 392.88 353.74 393.832 350.661C395.046 347.185 396.45 343.775 398.038 340.448C399.276 337.918 400.011 336.445 400.011 336.445Z" fill="#37474F"/>
<path d="M358.541 340.408C358.541 340.408 383.434 342.991 386.66 342.014C389.885 341.037 394.213 337.864 396.54 336.553C398.868 335.241 400.542 335.134 400.542 335.669C400.542 336.204 398.555 339.216 398.092 340.448C397.629 341.679 400.242 341.693 403.645 340.916C407.047 340.14 408.422 338.239 409.32 339.337C410.218 340.434 407.428 346.03 401.767 348.131C396.105 350.233 391.899 348.841 387.218 349.028C382.536 349.216 355.724 351.277 349.232 349.269C349.061 348.246 349.179 347.196 349.576 346.234C349.972 345.273 350.63 344.438 351.478 343.821C353.577 342.231 355.979 341.07 358.541 340.408Z" fill="#FFA8A7"/>
<path d="M360.338 334.116C361.406 331.271 362.315 328.371 363.06 325.429C363.06 325.429 362.611 331.894 360.76 335.361L360.338 334.116Z" fill="#37474F"/>
<path d="M158.924 254.51L154.501 263.907L162.735 270.841L169.853 259.021L158.924 254.51Z" fill="#F28F8F"/>
<path d="M179.23 233.013C173.977 233.013 168.193 234.954 166.206 238.996C164.219 243.039 158.04 255.662 158.04 255.662C158.04 255.662 162.681 262.355 170.044 261.873L179.23 233.013Z" fill="#37474F"/>
<path d="M202.014 382.118H194.746V392.519H202.014V382.118Z" fill="#FFA8A7"/>
<path d="M176.461 369.25L169.198 369.495L169.561 379.89L176.825 379.644L176.461 369.25Z" fill="#FFA8A7"/>
<path d="M201.523 280.573C201.523 287.4 202.422 331.52 202.422 331.52C202.598 333.474 204.463 337.101 204.055 344.638C203.51 354.878 202.612 383.323 202.612 383.323C202.612 383.323 199.21 386.643 194.446 383.323C194.446 383.323 187.859 344.664 186.566 334.518C185.423 325.67 183.504 301.615 183.504 301.615L176.767 329.927C176.767 329.927 177.951 336.62 178.223 341.278C178.495 345.936 176.985 373.123 176.985 373.123C175.807 373.846 174.458 374.253 173.071 374.305C171.684 374.356 170.307 374.051 169.077 373.417C169.077 373.417 163.252 333.768 162.504 329.525C161.755 325.282 167.607 280.573 167.607 280.573H201.523Z" fill="#37474F"/>
<path d="M190.595 233.334H190.704C193.821 234.105 196.587 235.88 198.56 238.376C200.533 240.872 201.6 243.946 201.592 247.108V280.573C196.501 286.021 178.754 288.604 167.567 280.573V245.77C167.567 240.214 170.711 233.521 179.38 233.026L190.595 233.334Z" fill="#02897A"/>
<path d="M193.044 204.862C193.628 204.798 194.219 204.865 194.773 205.057C195.327 205.249 195.829 205.563 196.243 205.973C197.604 207.312 197.332 209.922 196.243 215.798L191.996 216.28L193.044 204.862Z" fill="#263238"/>
<path d="M168.261 203.229C167.349 203.232 166.447 203.054 165.607 202.707C164.246 201.971 163.96 203.43 164.668 204.688C165.142 205.597 165.845 206.37 166.71 206.935C167.575 207.5 168.573 207.837 169.608 207.914C169.608 207.74 170.819 204.661 170.819 204.661L168.261 203.229Z" fill="#263238"/>
<path d="M191.044 216.28C191.683 216.655 192.582 215.464 193.357 214.661C193.661 214.312 194.051 214.047 194.49 213.89C194.928 213.733 195.4 213.689 195.861 213.763C196.321 213.837 196.755 214.026 197.12 214.312C197.484 214.598 197.768 214.972 197.944 215.397C199.305 218.074 196.297 221.635 194.582 222.799C194.101 223.212 193.5 223.463 192.864 223.519C192.228 223.574 191.591 223.43 191.044 223.107L190.595 233.334C189.833 234.975 188.669 236.404 187.209 237.495C185.748 238.586 184.036 239.304 182.224 239.585C176.114 240.402 177.379 235.449 179.38 233.013V229.291C177.856 229.617 176.289 229.698 174.739 229.532C173.936 229.318 172.017 227.056 170.806 224.526C169.445 221.688 167.145 216.655 169.186 208.128C171.377 198.959 181.435 198.678 187.342 202.372C193.249 206.067 191.044 216.28 191.044 216.28Z" fill="#FFA8A7"/>
<path d="M191.044 217.324C191.37 217.324 192.568 215.37 193.358 214.647C194.446 213.67 193.045 204.849 193.045 204.849C193.045 204.849 194.147 201.516 191.997 199.294C189.846 197.072 185.668 197.446 182.619 197.339C178.878 197.362 175.172 196.628 171.731 195.184C167.403 193.337 167.077 193.123 166.546 194.983C166.126 196.525 166.073 198.141 166.392 199.706C166.711 201.271 167.392 202.742 168.383 204.005L170.534 204.782C170.534 204.782 171.69 205.799 175.733 206.281C179.46 206.552 183.205 206.485 186.92 206.08C188.09 205.92 188.281 207.031 188.975 210.096C189.52 212.773 189.982 217.311 191.044 217.324Z" fill="#263238"/>
<path d="M193.031 205.558L196.855 203.537C196.734 203.284 196.562 203.058 196.349 202.873C196.136 202.688 195.887 202.547 195.617 202.459C195.347 202.372 195.062 202.339 194.779 202.363C194.496 202.387 194.22 202.468 193.97 202.6C193.458 202.881 193.074 203.344 192.9 203.895C192.725 204.445 192.772 205.041 193.031 205.558Z" fill="#263238"/>
<path d="M179.394 229.291C182.002 228.81 184.558 228.088 187.029 227.136C188.192 226.536 189.141 225.603 189.751 224.459C189.454 225.595 188.926 226.661 188.199 227.591C186.757 229.412 179.38 230.751 179.38 230.751L179.394 229.291Z" fill="#F28F8F"/>
<path d="M180.755 214.888C180.76 215.11 180.832 215.325 180.961 215.507C181.091 215.688 181.272 215.828 181.482 215.909C181.692 215.99 181.922 216.007 182.142 215.96C182.362 215.912 182.564 215.802 182.72 215.642C182.877 215.483 182.982 215.281 183.022 215.063C183.063 214.845 183.037 214.62 182.947 214.416C182.858 214.212 182.709 214.039 182.52 213.918C182.331 213.798 182.11 213.734 181.884 213.737C181.58 213.744 181.29 213.869 181.079 214.084C180.867 214.3 180.751 214.589 180.755 214.888Z" fill="#263238"/>
<path d="M181.952 210.686L184.389 212.025C184.557 211.696 184.592 211.316 184.486 210.962C184.38 210.609 184.141 210.309 183.817 210.123C183.658 210.037 183.482 209.983 183.301 209.965C183.121 209.947 182.938 209.965 182.764 210.017C182.59 210.07 182.429 210.156 182.289 210.27C182.15 210.385 182.035 210.526 181.952 210.686Z" fill="#263238"/>
<path d="M180.836 222.451L178.25 223.415C178.307 223.586 178.398 223.743 178.517 223.879C178.637 224.014 178.783 224.124 178.947 224.203C179.111 224.281 179.289 224.327 179.471 224.337C179.653 224.346 179.835 224.32 180.006 224.259C180.357 224.124 180.64 223.859 180.795 223.521C180.951 223.184 180.965 222.799 180.836 222.451Z" fill="#F28F8F"/>
<path d="M170.643 211.609L172.834 209.922C172.728 209.775 172.594 209.651 172.439 209.557C172.284 209.462 172.111 209.399 171.931 209.372C171.751 209.345 171.567 209.353 171.39 209.397C171.213 209.441 171.047 209.519 170.901 209.627C170.607 209.862 170.416 210.198 170.368 210.567C170.32 210.936 170.418 211.309 170.643 211.609Z" fill="#263238"/>
<path d="M171.323 214.58C171.319 214.88 171.436 215.169 171.647 215.384C171.859 215.6 172.148 215.724 172.453 215.731C172.761 215.724 173.053 215.598 173.267 215.38C173.482 215.162 173.599 214.87 173.596 214.567C173.613 214.41 173.597 214.251 173.548 214.101C173.499 213.95 173.418 213.812 173.311 213.694C173.203 213.576 173.072 213.482 172.926 213.418C172.779 213.353 172.62 213.32 172.459 213.32C172.299 213.32 172.14 213.353 171.993 213.418C171.847 213.482 171.715 213.576 171.608 213.694C171.501 213.812 171.42 213.95 171.371 214.101C171.322 214.251 171.305 214.41 171.323 214.567V214.58Z" fill="#263238"/>
<path d="M177.107 213.523L176.726 220.229L173.174 219.038L177.107 213.523Z" fill="#F28F8F"/>
<path d="M194.746 388.985V387.954C194.052 388.249 192.432 394.313 189.56 396.896C187.26 398.944 184.116 401.327 183.341 403.589C182.565 405.851 187.696 407.284 189.833 406.909C192.323 406.481 196.638 404.754 197.713 403.161C198.788 401.568 199.305 399.212 200.176 398.034C201.047 396.856 203.089 395.558 203.565 394.206C203.705 392.941 203.561 391.661 203.143 390.458C202.803 389.199 202.449 387.78 202.013 387.928C202.013 388.075 202.013 388.704 202.013 388.704C200.98 389.506 199.696 389.932 198.38 389.909C197.332 389.989 194.732 389.788 194.746 388.985Z" fill="#263238"/>
<path d="M169.499 377.674C169.118 377.674 168.805 378.21 167.975 379.093C166.736 380.333 165.29 381.356 163.701 382.118C160.979 383.457 155.699 385.518 153.303 386.576C151.82 387.245 151.942 389.012 153.426 390.029C154.909 391.047 158.707 391.77 163.184 390.779C165.62 390.244 168.805 388.035 170.806 388.102C172.806 388.169 176.576 388.196 178.06 387.192C179.543 386.188 178.958 384.033 178.536 382.185C178.114 380.338 177.42 377.099 176.74 377.233V377.862C175.869 379.2 171.418 379.696 169.499 378.745V377.674Z" fill="#263238"/>
<path d="M159.782 265.326C158.244 262.502 157.863 262.381 156.937 261.766C156.012 261.15 150.418 260.32 148.091 260.133C145.369 259.905 144.375 260.4 145.137 262.716C147.245 268.552 149.811 274.218 152.813 279.663C153.548 280.613 153.698 281.497 156.774 281.791C159.85 282.086 163.266 282.219 164.327 282.286C165.389 282.353 166.859 282.608 165.906 279.529C164.69 276.053 163.286 272.644 161.701 269.315C160.585 266.785 159.782 265.326 159.782 265.326Z" fill="#37474F"/>
<path d="M215.569 273.813C215.501 272.929 212.847 262.944 211.486 258.325L201.523 261.699L203.864 268.967L212.629 277.896C213.558 277.716 214.382 277.192 214.929 276.432C215.476 275.672 215.705 274.735 215.569 273.813Z" fill="#FFA8A7"/>
<path d="M203.824 268.967C203.824 268.967 176.359 271.859 173.133 270.881C169.908 269.904 165.58 266.732 163.252 265.42C160.925 264.108 159.251 264.001 159.251 264.55C159.251 265.099 161.238 268.084 161.701 269.315C162.164 270.547 159.55 270.56 156.148 269.784C152.745 269.007 151.371 267.107 150.473 268.204C149.574 269.302 152.364 274.897 158.026 276.999C163.688 279.1 167.893 277.708 172.575 277.896C177.257 278.083 206.096 279.904 212.588 277.896C212.761 276.874 212.642 275.826 212.246 274.867C211.849 273.907 211.191 273.075 210.343 272.461C208.399 270.923 206.191 269.74 203.824 268.967Z" fill="#FFA8A7"/>
<path d="M192.895 234.097C197.209 235.502 205.77 236.212 208.533 245.395C211.296 254.577 212.684 260.534 212.684 260.534C211.051 262.676 204.518 265.152 201.524 264.229L192.895 234.097Z" fill="#455A64"/>
<path d="M201.524 264.229L198.57 253.921L201.524 268.432V264.229Z" fill="#37474F"/>
<path d="M139.571 285.887C139.435 286.061 138.278 287.948 138.278 287.948L132.956 295.444L127.771 303.088C127.608 303.321 127.373 303.497 127.102 303.59C126.831 303.684 126.536 303.691 126.26 303.61L125.907 303.489C124.11 302.833 121.415 301.722 117.836 300.103C114.964 298.764 115.114 298.376 115.114 297.894C115.076 297.511 115.076 297.126 115.114 296.743C115.699 295.645 117.509 292.901 119.945 289.434C124.273 283.25 126.356 280.506 127.649 278.725C127.833 278.466 128.105 278.279 128.417 278.198C128.728 278.117 129.059 278.147 129.35 278.284C131.677 279.047 136.4 281.041 138.877 282.032H138.986C140.319 282.741 139.585 285.833 139.571 285.887Z" fill="#37474F"/>
<path d="M139.707 285.646L138.346 287.948L133.147 295.592L127.703 303.048C127.54 303.281 127.305 303.457 127.034 303.55C126.763 303.644 126.468 303.651 126.192 303.57L125.838 303.449C124.042 302.793 121.347 301.682 117.768 300.063C114.896 298.724 115.046 298.336 115.046 297.854C115.008 297.471 115.008 297.086 115.046 296.703C117.768 297.881 126.383 301.897 126.669 301.749C127.349 301.428 133.188 292.218 136.291 287.52C137.842 285.177 138.537 284.187 139.013 283.384C139.1 283.288 139.165 283.175 139.204 283.051C139.242 282.928 139.252 282.798 139.234 282.671C139.216 282.543 139.17 282.421 139.099 282.313C139.027 282.205 138.933 282.114 138.822 282.045H138.713C139.019 282.204 139.283 282.43 139.484 282.707C139.685 282.983 139.817 283.302 139.87 283.638C140.019 283.959 140.082 284.312 140.053 284.663C140.024 285.014 139.905 285.353 139.707 285.646Z" fill="#37474F"/>
<path opacity="0.1" d="M139.707 285.646L138.346 287.948L133.147 295.592L127.703 303.048C127.54 303.281 127.305 303.457 127.034 303.55C126.763 303.644 126.468 303.651 126.192 303.57L125.838 303.449C124.042 302.793 121.347 301.682 117.768 300.063C114.896 298.724 115.046 298.336 115.046 297.854C115.008 297.471 115.008 297.086 115.046 296.703C117.768 297.881 126.383 301.897 126.669 301.749C127.349 301.428 133.188 292.218 136.291 287.52C137.842 285.177 138.537 284.187 139.013 283.384C139.1 283.288 139.165 283.175 139.204 283.051C139.242 282.928 139.252 282.798 139.234 282.671C139.216 282.543 139.17 282.421 139.099 282.313C139.027 282.205 138.933 282.114 138.822 282.045H138.713C139.019 282.204 139.283 282.43 139.484 282.707C139.685 282.983 139.817 283.302 139.87 283.638C140.019 283.959 140.082 284.312 140.053 284.663C140.024 285.014 139.905 285.353 139.707 285.646Z" fill="black"/>
<path d="M127.717 280.479L137.271 284.414L127.091 299.299L117.591 295.003L127.717 280.479Z" fill="#FAFAFA"/>
<path d="M125.036 332.349C127.649 331.613 131.596 322.056 134.562 311.213C137.529 300.37 139.095 297.974 139.19 294.561C139.285 291.147 139.04 286.663 139.04 286.663L133.868 294.092C133.644 292.659 133.184 291.271 132.507 289.983C131.84 288.644 130.588 287.587 129.568 288.39C129.023 288.818 130.466 290.652 130.153 294.748C130.127 296.381 130.292 298.011 130.643 299.607L121.034 322.497L125.036 332.349Z" fill="#FFA8A7"/>
<path d="M86.3695 284.883C83.3344 284.04 80.7622 285.633 79.3331 290.385C76.828 299.332 75.0083 308.451 73.8891 317.665C73.4808 320.971 73.0181 324.987 76.23 325.295C78.6798 325.536 85.757 324.197 86.9955 322.993C88.6559 321.413 88.3565 315.041 88.3565 315.041H84.6818C84.6818 315.041 85.4712 310.022 85.7026 308.496C86.5192 303.369 87.7304 296.904 87.7304 296.904L86.3695 284.883Z" fill="#F28F8F"/>
<path d="M104.185 280.184L102.947 290.907L92.1947 292.138L93.7462 277.909L104.185 280.184Z" fill="#FFA8A7"/>
<path d="M81.1707 264.536C82.0553 254.631 87.5129 250.561 91.732 249.571C100.252 247.603 108.663 250.414 112.147 256.264C112.944 258.096 113.356 260.067 113.356 262.06C113.356 264.052 112.944 266.024 112.147 267.856C110.296 272.006 81.2115 264.51 81.2115 264.51" fill="#263238"/>
<path d="M112.678 269.864C112.678 269.864 114.215 273.947 113.807 274.255C113.165 274.482 112.489 274.6 111.807 274.603L112.678 269.864Z" fill="#FFA8A7"/>
<path d="M108.091 256.96C110.119 258.673 113.535 261.779 112.623 270.346C111.616 279.207 109.438 281.603 107.968 282.46C106.988 283.036 102.647 282.032 100.633 280.867C98.1284 279.408 92.5755 275.647 90.8879 270.573C88.8872 264.603 89.8944 257.482 94.2768 255.621C96.5067 254.678 98.9434 254.306 101.359 254.54C103.775 254.774 106.091 255.607 108.091 256.96Z" fill="#FFA8A7"/>
<path d="M110.595 257.188C110.639 259.557 110.139 261.905 109.133 264.058C108.127 266.211 106.64 268.113 104.784 269.623C104.784 269.623 103.518 266.397 100.701 267.133C97.8837 267.869 97.979 271.524 99.9932 273.505C100.515 274.071 101.191 274.479 101.941 274.681C102.691 274.882 103.483 274.869 104.226 274.643C103.824 277.175 102.619 279.518 100.783 281.336C97.8518 281.999 94.7904 281.835 91.9498 280.865C89.1091 279.894 86.6043 278.155 84.7229 275.847C78.5031 268.499 80.3405 256.826 90.058 253.386C93.4939 252.03 97.2521 251.667 100.89 252.341C104.529 253.014 107.896 254.696 110.595 257.188Z" fill="#263238"/>
<path d="M90.9015 441.498L95.5425 447.843C93.4285 448.784 91.1252 449.241 88.8056 449.182C84.6546 449.342 83.5113 448.004 83.3616 447.682C82.6539 446.196 83.7563 443.533 84.0557 441.244L90.9015 441.498Z" fill="#263238"/>
<path d="M95.2567 444.778C95.2567 444.778 100.878 444.416 104.784 443.934C108.69 443.452 111.752 445.273 110.84 446.893C109.928 448.512 107.778 449.784 104.443 450.908C101.599 451.859 98.1693 452.542 95.1887 453.412C92.2081 454.282 90.1802 455.353 88.4517 454.75C86.5191 454.094 85.7297 453.331 85.8522 451.953C86.2738 449.987 86.7962 448.043 87.4174 446.13L95.2567 444.778Z" fill="#263238"/>
<path d="M83.3618 435.1C83.3618 435.1 84.0559 440.856 84.1104 442.1C84.1648 443.345 89.8265 443.734 90.9153 441.471L91.0923 434.43L83.3618 435.1Z" fill="#F28F8F"/>
<path d="M89.0643 438.647L87.0908 447.388C87.0908 447.388 86.8867 448.445 91.5277 449.128C96.1687 449.811 103.409 446.745 104.648 446.13C105.886 445.514 106.009 444.269 101.477 444.51C96.9444 444.751 95.3248 444.778 95.3248 444.778L96.8083 440.896L89.0643 438.647Z" fill="#FFA8A7"/>
<path d="M83.3615 321.627C79.4827 327.557 75.808 332.778 75.0186 339.444C73.3582 353.526 78.8022 369.616 79.959 380.03C77.7583 382.994 76.4858 386.525 76.2979 390.19C76.2979 394.5 83.3615 435.1 83.3615 435.1C83.3615 435.1 88.4924 436.639 91.0783 434.43L95.9371 359.737L93.3784 350.648L83.3615 321.627Z" fill="#455A64"/>
<path d="M95.9375 359.737L93.3788 350.648C88.5632 349.416 83.9159 347.618 79.5375 345.293C79.5375 345.293 82.1642 349.979 89.6633 352.549L93.5694 364.235L93.9096 391.006L95.9375 359.737Z" fill="#37474F"/>
<path d="M83.3617 321.627C81.293 324.947 76.3254 330.649 77.387 336.111C78.6663 342.804 82.2865 347.395 93.3787 350.648L103.777 387.687C103.777 387.687 98.3327 392.68 96.7131 397.418C95.0935 402.157 89.0643 438.647 89.0643 438.647C89.0643 438.647 90.9153 441.619 96.7675 440.896C96.7675 440.896 117.182 395.129 118.543 392.184C120.285 389.17 120.896 385.651 120.272 382.239C119.619 377.447 112.678 324.947 112.678 324.947L83.3617 321.627Z" fill="#455A64"/>
<path d="M81.4699 288.203C81.8871 287.111 82.6732 286.193 83.6966 285.603C84.7199 285.013 85.9183 284.787 87.0908 284.963C94.3449 286.904 105.628 289.461 107.764 290.077C107.764 290.077 106.798 303.824 115.155 308.67C114.76 311.735 112.637 324.947 112.637 324.947C112.637 324.947 102.593 329.739 94.3313 327.383C86.0701 325.027 83.2936 321.627 83.2936 321.627L87.3766 315.001C86.492 312.846 83.0759 305.524 80.8711 298.724C80.106 295.228 80.3129 291.593 81.4699 288.203Z" fill="#FFB900"/>
<path d="M86.3695 312.391C89.8056 314.424 93.4063 316.174 97.135 317.625C93.746 317.539 90.4331 316.618 87.4991 314.948L86.3695 312.391Z" fill="#E0E0E0"/>
<path d="M114.978 307.639C112.009 306.301 109.567 304.044 108.023 301.214C108.273 303.388 109.031 305.477 110.238 307.316C111.444 309.155 113.066 310.695 114.978 311.815V307.639Z" fill="#E0E0E0"/>
<path d="M107.832 290.077C112.392 291.415 115.223 291.844 117.686 294.012C120.925 296.877 124.273 313.074 124.954 316.42C126.138 322.216 127.444 328.24 126.165 330.944C125.239 332.898 120.204 334.357 117.999 328.039C117.536 326.7 117.441 326.085 117.033 324.88C114.95 318.83 111.82 307.264 111.82 307.264C111.82 307.264 105.655 303.918 107.832 290.077Z" fill="#FFA8A7"/>
<path d="M85.7298 253.386C84.1102 254.31 81.184 255.206 79.3603 263.573C77.8756 270.591 76.9924 277.719 76.72 284.883C76.788 287.48 82.2592 294.695 93.8005 294.012C105.342 293.329 109.534 286.677 109.534 286.677C109.534 286.677 103.858 284.401 104.307 274.629C104.307 274.629 102.307 278.498 96.8219 276.557C91.3371 274.616 85.7298 253.386 85.7298 253.386Z" fill="#263238"/>
</svg>
