<svg width="540" height="500" viewBox="0 0 540 500" fill="none" xmlns="http://www.w3.org/2000/svg">
<path d="M86.1507 433.424C187.685 491.525 352.315 491.525 453.849 433.424C555.384 375.322 555.384 281.119 453.849 223.005C352.315 164.89 187.731 164.903 86.1507 223.005C-15.43 281.106 -15.3371 375.322 86.1507 433.424Z" fill="#F5F5F5"/>
<path d="M57.8474 338.14L24.8424 317.272V239.727L57.8474 260.607V338.14Z" fill="#E0E0E0"/>
<path d="M57.8473 260.607L105.004 230.787V308.319L57.8473 338.139V260.607Z" fill="#EBEBEB"/>
<path d="M105.004 230.787L57.8474 260.607L24.8424 239.727L71.999 209.906L105.004 230.787Z" fill="#F5F5F5"/>
<path d="M62.5723 263.583L100.291 239.727L101.161 240.274V269.001L63.4314 292.857L62.5607 292.31L62.5723 263.583Z" fill="#E0E0E0"/>
<path d="M63.4313 264.143L101.161 240.274V269L63.4313 292.856V264.143Z" fill="#F5F5F5"/>
<path d="M78.2215 259.654L84.6414 255.597C85.4656 255.063 86.139 255.305 86.139 256.131C86.0791 256.637 85.9127 257.121 85.6528 257.545C85.3929 257.969 85.0467 258.321 84.6414 258.573L78.2215 262.629C77.3856 263.163 76.7123 262.922 76.7123 262.095C76.7725 261.587 76.9403 261.102 77.2024 260.678C77.4644 260.254 77.8134 259.903 78.2215 259.654Z" fill="#E0E0E0"/>
<path d="M61.7017 299.926L99.42 276.07V304.797L100.291 305.343L62.5607 329.2L61.7017 328.653V299.926Z" fill="#E0E0E0"/>
<path d="M62.5607 300.474L100.291 276.618V305.344L62.5607 329.2V300.474Z" fill="#F5F5F5"/>
<path d="M77.3509 295.998L83.8289 291.954C84.6647 291.42 85.3381 291.661 85.3381 292.488C85.2779 292.996 85.11 293.481 84.848 293.905C84.5859 294.329 84.2369 294.68 83.8289 294.929L77.409 298.986C76.5731 299.52 75.8998 299.278 75.8998 298.452C75.9519 297.948 76.1101 297.464 76.3619 297.038C76.6137 296.612 76.9523 296.256 77.3509 295.998Z" fill="#E0E0E0"/>
<path d="M57.8474 256.131L24.8424 235.251V157.718L57.8474 178.586V256.131Z" fill="#E0E0E0"/>
<path d="M57.8473 178.586L105.004 148.766V226.311L57.8473 256.131V178.586Z" fill="#EBEBEB"/>
<path d="M105.004 148.766L57.8474 178.586L24.8424 157.718L71.999 127.898L105.004 148.766Z" fill="#F5F5F5"/>
<path d="M62.5607 181.574L100.291 157.718L101.161 158.265V186.991L63.4314 210.848L62.5607 210.288V181.574Z" fill="#E0E0E0"/>
<path d="M78.2215 177.632L84.6298 173.576C85.4656 173.054 86.139 173.296 86.139 174.123C86.077 174.63 85.9085 175.114 85.6466 175.538C85.3847 175.962 85.0366 176.313 84.6298 176.564L78.2215 180.621C77.3856 181.142 76.7123 180.913 76.7123 180.087C76.7734 179.578 76.9415 179.091 77.2034 178.665C77.4652 178.239 77.8137 177.886 78.2215 177.632Z" fill="#E0E0E0"/>
<path d="M61.7017 217.918L99.42 194.062V222.776L100.291 223.323L62.5607 247.179L61.7017 246.632V217.918Z" fill="#E0E0E0"/>
<path d="M62.5607 218.465L100.291 194.609V223.322L62.5607 247.178V218.465Z" fill="#F5F5F5"/>
<path d="M77.3509 213.976L83.8288 209.92C84.6531 209.398 85.338 209.64 85.338 210.466C85.2727 210.972 85.1028 211.455 84.8412 211.878C84.5797 212.301 84.2334 212.654 83.8288 212.908L77.3509 216.926C76.515 217.448 75.8417 217.206 75.8417 216.392C75.9078 215.89 76.0783 215.411 76.3399 214.992C76.6016 214.573 76.9474 214.226 77.3509 213.976Z" fill="#E0E0E0"/>
<path d="M62.5607 181.574L100.291 157.718V186.432L62.5607 210.288V181.574Z" fill="#E0E0E0"/>
<path d="M119.156 171.91L98.5029 158.85V184.156L119.156 197.203V171.91Z" fill="#E0E0E0"/>
<path d="M76.7123 214.383V178.586L84.8039 173.449L86.139 175.611L109.717 160.694V193.503L76.7123 214.383Z" fill="#EBEBEB"/>
<path d="M76.7123 214.383L79.0689 183.062L112.074 162.195L109.717 193.503L76.7123 214.383Z" fill="#F5F5F5"/>
<path d="M81.4256 195.766L63.4313 184.385V209.691L81.4256 221.059V195.766Z" fill="#EBEBEB"/>
<path d="M81.4255 193.502L119.155 169.646V198.36L81.4255 222.216V193.502Z" fill="#F5F5F5"/>
<path d="M96.2159 189.014L102.624 184.957C103.46 184.436 104.133 184.677 104.133 185.504C104.071 186.011 103.902 186.495 103.64 186.918C103.378 187.342 103.03 187.693 102.624 187.945L96.2159 192.002C95.38 192.523 94.7067 192.282 94.7067 191.468C94.7678 190.959 94.9359 190.472 95.1977 190.046C95.4596 189.62 95.8081 189.267 96.2159 189.014Z" fill="#E0E0E0"/>
<path d="M81.4252 193.502L80.1718 192.714V221.427L81.4252 222.216V193.502Z" fill="#E0E0E0"/>
<path d="M80.1718 192.714L117.89 168.845L119.156 169.646L81.4256 193.502L80.1718 192.714Z" fill="#EBEBEB"/>
<path d="M447.778 291.165L414.761 270.284V192.752L447.778 213.62V291.165Z" fill="#E0E0E0"/>
<path d="M447.778 213.62L494.934 183.8V261.345L447.778 291.165V213.62Z" fill="#EBEBEB"/>
<path d="M494.934 183.8L447.778 213.62L414.761 192.752L461.929 162.919L494.934 183.8Z" fill="#F5F5F5"/>
<path d="M452.491 216.608L490.221 192.752L491.092 193.299L491.08 222.012L453.362 245.868L452.491 245.322V216.608Z" fill="#E0E0E0"/>
<path d="M453.362 217.156L491.092 193.299L491.08 222.013L453.362 245.869V217.156Z" fill="#F5F5F5"/>
<path d="M468.152 212.666L474.56 208.61C475.396 208.088 476.069 208.33 476.069 209.144C476.008 209.653 475.84 210.14 475.578 210.565C475.316 210.991 474.968 211.345 474.56 211.598L468.152 215.655C467.316 216.176 466.643 215.934 466.643 215.121C466.704 214.612 466.872 214.125 467.134 213.699C467.396 213.273 467.744 212.92 468.152 212.666Z" fill="#E0E0E0"/>
<path d="M451.621 252.952L489.351 229.083V257.809L490.221 258.356L452.491 282.212L451.621 281.666V252.952Z" fill="#E0E0E0"/>
<path d="M452.491 253.498L490.221 229.642V258.356L452.491 282.212V253.498Z" fill="#F5F5F5"/>
<path d="M467.281 249.009L473.701 244.953C474.525 244.431 475.199 244.673 475.199 245.487C475.137 245.994 474.97 246.479 474.71 246.905C474.451 247.33 474.105 247.685 473.701 247.941L467.281 251.998C466.445 252.519 465.772 252.278 465.772 251.451C465.835 250.944 466.004 250.46 466.265 250.037C466.527 249.613 466.875 249.261 467.281 249.009Z" fill="#E0E0E0"/>
<path d="M132.785 372.207C132.785 372.207 132.913 352.039 121.304 336.919C111.03 323.529 105.562 315.034 108.801 311.118C112.04 307.201 119.005 306.26 128.397 317.094C137.789 327.929 138.52 357.94 137.22 364.73L132.785 372.207Z" fill="#02897A"/>
<path opacity="0.2" d="M132.785 372.207C132.785 372.207 132.913 352.039 121.304 336.919C111.03 323.529 105.562 315.034 108.801 311.118C112.04 307.201 119.005 306.26 128.397 317.094C137.789 327.929 138.52 357.94 137.22 364.73L132.785 372.207Z" fill="black"/>
<path d="M134.736 350.525C134.604 350.526 134.475 350.477 134.372 350.387C134.269 350.297 134.196 350.171 134.167 350.03C130.104 329.213 119.679 317.704 113.816 312.694C113.695 312.591 113.616 312.439 113.596 312.273C113.577 312.106 113.618 311.937 113.712 311.804C113.808 311.67 113.948 311.583 114.103 311.562C114.257 311.54 114.412 311.586 114.536 311.689C120.515 316.776 131.16 328.551 135.305 349.762C135.322 349.844 135.324 349.928 135.311 350.009C135.298 350.091 135.27 350.17 135.229 350.24C135.188 350.309 135.134 350.37 135.072 350.417C135.009 350.464 134.938 350.496 134.864 350.513L134.736 350.525Z" fill="white"/>
<path d="M132.344 379.698L127.619 382.686C127.115 381.177 126.265 379.836 125.151 378.792C124.037 377.747 122.696 377.034 121.258 376.722C116.091 375.45 110.728 375.666 107.106 370.758C103.484 365.849 107.895 360.508 107.106 356.897C106.317 353.285 105.806 352.243 99.3278 348.631C92.8498 345.02 90.2958 339.03 95.1717 334.974C100.048 330.917 107.942 333.893 112.725 337.517C116.974 340.696 121.014 341.535 125.762 342.184C130.51 342.833 138.242 345.719 137.058 357.8C136.282 365.277 134.7 372.628 132.344 379.698Z" fill="#02897A"/>
<path d="M114.211 363.827C114.087 363.826 113.967 363.783 113.867 363.703C113.767 363.623 113.693 363.511 113.654 363.382C113.61 363.22 113.625 363.046 113.697 362.897C113.768 362.747 113.89 362.634 114.037 362.581C114.455 362.441 124.485 358.957 128.746 362.696C128.851 362.805 128.916 362.954 128.926 363.113C128.937 363.272 128.892 363.429 128.802 363.554C128.711 363.678 128.581 363.761 128.438 363.786C128.294 363.811 128.147 363.776 128.026 363.688C124.265 360.381 114.49 363.764 114.385 363.802L114.211 363.827Z" fill="white"/>
<path d="M132.867 378.73C132.725 378.731 132.589 378.674 132.484 378.571C132.378 378.468 132.312 378.325 132.298 378.171C129.709 351.39 100.256 338.686 99.9662 338.559C99.8942 338.53 99.8283 338.485 99.7723 338.427C99.7164 338.369 99.6714 338.3 99.6401 338.223C99.6088 338.146 99.5917 338.063 99.5899 337.979C99.5881 337.895 99.6015 337.811 99.6295 337.733C99.6866 337.579 99.7955 337.454 99.9338 337.386C100.072 337.317 100.229 337.309 100.372 337.364C100.686 337.504 130.789 350.474 133.447 378.056C133.463 378.223 133.419 378.39 133.323 378.521C133.228 378.652 133.088 378.737 132.936 378.756L132.867 378.73Z" fill="white"/>
<path d="M421.623 362.111C421.751 361.666 426.731 333.588 421.623 313.674C416.979 295.413 410.919 288.673 402.282 287.185C393.645 285.697 389.895 292.513 394.481 301.746C399.066 310.978 410.106 323.224 412.811 343.85C413.972 352.344 414.855 359.72 414.855 359.72L421.623 362.111Z" fill="#02897A"/>
<path opacity="0.2" d="M421.623 362.111C421.751 361.666 426.731 333.588 421.623 313.674C416.979 295.413 410.919 288.673 402.282 287.185C393.645 285.697 389.895 292.513 394.481 301.746C399.066 310.978 410.106 323.224 412.811 343.85C413.972 352.344 414.855 359.72 414.855 359.72L421.623 362.111Z" fill="black"/>
<path d="M418.709 345.986C418.632 345.981 418.558 345.96 418.489 345.923C418.42 345.887 418.359 345.836 418.308 345.773C418.257 345.711 418.218 345.638 418.193 345.558C418.169 345.479 418.158 345.396 418.163 345.312C419.324 322.575 412.544 302.28 400.389 292.323C400.266 292.221 400.185 292.071 400.163 291.904C400.141 291.737 400.181 291.567 400.273 291.432C400.367 291.3 400.505 291.213 400.656 291.19C400.808 291.166 400.961 291.207 401.086 291.305C413.542 301.478 420.531 322.232 419.312 345.388C419.303 345.555 419.235 345.711 419.122 345.822C419.009 345.934 418.861 345.993 418.709 345.986Z" fill="white"/>
<path d="M434.985 376.735C434.323 371.508 437.063 363.675 443.576 361.818C450.088 359.962 452.991 355.867 450.646 351.391C448.301 346.915 448.846 342.807 454.755 340.951C460.664 339.094 465.842 335.864 462.441 329.022C459.968 324.076 459.422 320.871 465.482 311.13C470.509 303.043 466.399 298.3 460.107 299.19C453.815 300.08 449.926 308.295 445.99 309.668C442.055 311.041 441.149 303.717 435.96 306.998C430.771 310.278 431.084 318.684 430.922 324.546C430.759 330.409 430.411 331.731 425.721 331.019C421.031 330.307 416.433 331.146 416.538 343.57C416.619 354.226 421.808 367.426 421.808 367.426L434.985 376.735Z" fill="#02897A"/>
<path d="M426.754 368.787H426.696C426.541 368.768 426.399 368.682 426.301 368.549C426.203 368.415 426.158 368.245 426.174 368.075C429.448 336.042 454.547 309.019 461.094 303.539C461.218 303.436 461.373 303.391 461.526 303.413C461.68 303.436 461.819 303.524 461.913 303.659C462.007 303.794 462.048 303.965 462.027 304.133C462.007 304.301 461.926 304.453 461.803 304.556C455.336 309.96 430.562 336.627 427.335 368.215C427.318 368.371 427.25 368.515 427.143 368.62C427.036 368.726 426.898 368.785 426.754 368.787Z" fill="white"/>
<path d="M438.201 334.542C438.083 334.541 437.968 334.502 437.871 334.429C437.774 334.357 437.699 334.254 437.655 334.135C437.605 333.974 437.614 333.799 437.679 333.645C437.743 333.492 437.86 333.371 438.003 333.308C447.36 329.493 457.971 331.299 458.424 331.375C458.574 331.403 458.708 331.495 458.798 331.631C458.887 331.766 458.923 331.935 458.9 332.1C458.872 332.264 458.788 332.41 458.665 332.51C458.542 332.609 458.39 332.653 458.238 332.634C458.134 332.634 447.476 330.803 438.41 334.503C438.342 334.528 438.272 334.541 438.201 334.542Z" fill="white"/>
<path d="M429.865 353.794C429.784 353.793 429.703 353.773 429.629 353.736C429.555 353.699 429.489 353.645 429.435 353.578C425.544 348.614 422.907 342.621 421.785 336.194C421.773 336.112 421.777 336.027 421.795 335.946C421.813 335.865 421.846 335.789 421.891 335.721C421.937 335.654 421.994 335.597 422.059 335.554C422.125 335.511 422.197 335.482 422.273 335.47C422.348 335.457 422.425 335.461 422.499 335.481C422.573 335.501 422.643 335.537 422.705 335.586C422.766 335.636 422.818 335.698 422.857 335.77C422.897 335.842 422.923 335.921 422.934 336.004C424.044 342.177 426.583 347.935 430.306 352.726C430.379 352.819 430.426 352.934 430.441 353.055C430.457 353.177 430.44 353.301 430.394 353.413C430.348 353.525 430.274 353.62 430.18 353.687C430.086 353.755 429.977 353.792 429.865 353.794Z" fill="white"/>
<path d="M133.307 182.884V379.709L317.22 263.404L317.209 84.4711L180.464 170.956L175.739 156.039L133.307 182.884Z" fill="#22343D"/>
<path d="M133.307 379.709L142.734 200.776L326.647 84.4711L317.22 263.404L133.307 379.709Z" fill="#E0E0E0"/>
<path d="M133.307 379.71L147.447 203.765L331.361 87.4471L317.22 263.405L133.307 379.71Z" fill="#22343D"/>
<path d="M161.599 201.734V398.572L345.512 282.255V103.322L208.756 189.806L204.042 174.89L161.599 201.734Z" fill="#F03E3D"/>
<path d="M161.599 398.572L171.026 219.626L354.939 103.322L345.512 282.255L161.599 398.572Z" fill="#E0E0E0"/>
<path d="M161.599 398.572L175.739 222.615L359.652 106.297L345.512 282.255L161.599 398.572Z" fill="#F03E3D"/>
<path d="M317.174 460.243C284.157 439.363 253.532 416.664 239.554 390.036L282.044 363.166L317.174 460.243Z" fill="#E0E0E0"/>
<path d="M194.604 221.657V418.482L378.517 302.177V123.244L241.76 209.729L237.047 194.812L194.604 221.657Z" fill="#02897A"/>
<path opacity="0.2" d="M194.604 221.657V418.482L378.517 302.177V123.244L241.76 209.729L237.047 194.812L194.604 221.657Z" fill="black"/>
<path d="M247.588 279.847C247.124 279.847 247.054 279.262 247.054 278.919V111.061C247.092 110.41 247.266 109.777 247.564 109.212C247.862 108.648 248.276 108.166 248.773 107.806L381.512 23.8772C381.694 23.753 381.902 23.6828 382.116 23.6737C382.58 23.6737 382.65 24.2587 382.65 24.602V192.459C382.614 193.112 382.44 193.747 382.141 194.314C381.843 194.881 381.429 195.365 380.932 195.727L248.192 279.656C248.009 279.774 247.801 279.84 247.588 279.847Z" fill="white"/>
<path d="M382.046 24.2591C382.056 24.3521 382.056 24.4459 382.046 24.5389V192.396C382.008 192.938 381.86 193.463 381.613 193.934C381.366 194.404 381.026 194.809 380.618 195.117L247.878 279.046L247.646 279.161C247.631 279.068 247.631 278.973 247.646 278.881V111.024C247.686 110.484 247.835 109.962 248.082 109.493C248.329 109.025 248.668 108.622 249.074 108.315L381.814 24.3863C381.887 24.3302 381.97 24.2912 382.058 24.2718L382.046 24.2591ZM382.127 23.0002C381.811 23.0105 381.503 23.1114 381.234 23.2927L248.494 107.221C247.91 107.641 247.425 108.205 247.076 108.867C246.727 109.53 246.525 110.273 246.485 111.036V278.894C246.485 279.885 246.938 280.458 247.646 280.458C247.963 280.449 248.271 280.348 248.54 280.165L381.28 196.237C381.866 195.82 382.354 195.257 382.703 194.593C383.052 193.93 383.253 193.186 383.288 192.422V24.5643C383.288 23.5724 382.836 22.9875 382.127 23.0002Z" fill="#02897A"/>
<path opacity="0.7" d="M382.046 24.2591C382.056 24.3521 382.056 24.4459 382.046 24.5389V192.396C382.008 192.938 381.86 193.463 381.613 193.934C381.366 194.404 381.026 194.809 380.618 195.117L247.878 279.046L247.646 279.161C247.631 279.068 247.631 278.973 247.646 278.881V111.024C247.686 110.484 247.835 109.962 248.082 109.493C248.329 109.025 248.668 108.622 249.074 108.315L381.814 24.3863C381.887 24.3302 381.97 24.2912 382.058 24.2718L382.046 24.2591ZM382.127 23.0002C381.811 23.0105 381.503 23.1114 381.234 23.2927L248.494 107.221C247.91 107.641 247.425 108.205 247.076 108.867C246.727 109.53 246.525 110.273 246.485 111.036V278.894C246.485 279.885 246.938 280.458 247.646 280.458C247.963 280.449 248.271 280.348 248.54 280.165L381.28 196.237C381.866 195.82 382.354 195.257 382.703 194.593C383.052 193.93 383.253 193.186 383.288 192.422V24.5643C383.288 23.5724 382.836 22.9875 382.127 23.0002Z" fill="white"/>
<path d="M260.625 117.433L307.782 87.6125V147.253L260.625 177.073V117.433Z" fill="#02897A"/>
<path opacity="0.8" d="M260.625 117.433L307.782 87.6125V147.253L260.625 177.073V117.433Z" fill="#11B5E4"/>
<path d="M300.712 102.478V120.409L299.226 121.311V115.831C299.226 112.804 296.986 111.774 294.199 113.529L274.22 126.182C271.445 127.937 269.193 131.815 269.193 134.842V140.323L267.719 141.289V123.397L300.712 102.478Z" fill="white"/>
<path d="M291.634 148.13C289.219 149.656 287.257 148.054 287.257 144.532V115.831L281.185 119.442V148.372C281.185 151.882 279.223 156.002 276.809 157.49L272.42 160.262V162.169L295.999 147.253V145.358L291.634 148.13Z" fill="white"/>
<path d="M317.174 84.6752C317.174 86.3284 318.532 86.7989 320.192 85.7561L366.072 56.699C366.886 56.1936 367.582 55.4886 368.106 54.6392C368.629 53.7898 368.966 52.8191 369.09 51.8032C369.09 50.1628 367.732 49.6795 366.072 50.735L320.227 79.7285C319.4 80.233 318.692 80.9436 318.162 81.8029C317.631 82.6622 317.293 83.6462 317.174 84.6752Z" fill="#455A64"/>
<path d="M317.174 102.478C317.174 104.131 318.532 104.615 320.192 103.559L366.037 74.5657C366.851 74.0603 367.547 73.3553 368.071 72.5059C368.595 71.6565 368.932 70.6858 369.055 69.6699C369.055 68.0295 367.697 67.5462 366.037 68.6017L320.192 97.5952C319.38 98.0994 318.684 98.8024 318.161 99.6495C317.637 100.497 317.299 101.465 317.174 102.478Z" fill="#455A64"/>
<path d="M317.174 120.408C317.174 122.061 318.532 122.544 320.192 121.489L366.037 92.4953C366.85 91.9912 367.545 91.2881 368.068 90.4411C368.592 89.594 368.93 88.6259 369.055 87.6122C369.055 85.959 367.697 85.4758 366.037 86.5313L320.192 115.525C319.38 116.029 318.684 116.732 318.161 117.579C317.637 118.426 317.299 119.394 317.174 120.408Z" fill="#455A64"/>
<path d="M317.174 138.301C317.174 139.954 318.532 140.437 320.192 139.382L366.037 110.388C366.85 109.884 367.545 109.181 368.068 108.334C368.592 107.487 368.93 106.519 369.055 105.505C369.055 103.852 367.697 103.369 366.037 104.424L320.192 133.418C319.38 133.922 318.684 134.625 318.161 135.472C317.637 136.319 317.299 137.287 317.174 138.301Z" fill="#455A64"/>
<path d="M260.625 191.99C260.625 193.643 261.972 194.126 263.644 193.071L366.072 128.217C366.886 127.714 367.582 127.011 368.106 126.164C368.629 125.317 368.967 124.348 369.09 123.334C369.09 121.68 367.732 121.21 366.072 122.253L263.644 187.107C262.83 187.609 262.133 188.311 261.609 189.158C261.085 190.006 260.748 190.975 260.625 191.99Z" fill="#455A64"/>
<path d="M260.625 209.881C260.625 211.534 261.972 212.017 263.644 210.962L366.072 146.184C366.886 145.679 367.582 144.974 368.106 144.124C368.63 143.275 368.966 142.304 369.09 141.288C369.09 139.648 367.732 139.165 366.072 140.22L263.644 204.998C262.83 205.5 262.133 206.202 261.609 207.05C261.085 207.897 260.748 208.866 260.625 209.881Z" fill="#455A64"/>
<path d="M260.625 227.786C260.625 229.426 261.972 229.909 263.644 228.854L366.072 164.076C366.886 163.571 367.582 162.866 368.106 162.016C368.63 161.167 368.966 160.196 369.09 159.18C369.09 157.54 367.732 157.057 366.072 158.112L263.644 222.89C262.828 223.393 262.131 224.097 261.607 224.947C261.083 225.797 260.747 226.769 260.625 227.786Z" fill="#455A64"/>
<path d="M194.604 418.482L227.609 260.429L411.522 144.112L378.517 302.177L194.604 418.482Z" fill="#02897A"/>
<path d="M239.601 272.802V390.035L282.044 363.191V245.97L239.601 272.802Z" fill="#02897A"/>
<path opacity="0.2" d="M239.601 272.802V390.035L282.044 363.191V245.97L239.601 272.802Z" fill="black"/>
<path d="M317.255 459.48C313.644 456.53 278.84 427.397 261.148 385.725C242.317 341.421 242.341 289.741 242.341 270.298V269.687L368.51 189.904C368.51 209.526 368.51 261.282 387.421 305.738C404.707 346.431 438.176 375.196 443.482 379.596L317.255 459.48Z" fill="white"/>
<path d="M367.929 191.048C367.929 211.496 368.289 262.261 386.899 306.056C403.604 345.35 435.367 373.606 442.437 379.57L317.29 458.717C312.402 454.686 278.91 426.036 261.682 385.508C242.875 341.332 242.875 289.754 242.875 270.336V270.094L367.883 191.036L367.929 191.048ZM369.044 188.836L241.714 269.369C241.714 287.668 241.366 340.836 260.579 386.043C279.49 430.41 317.174 460.243 317.174 460.243L444.538 379.697C444.538 379.697 406.808 349.864 387.955 305.497C368.73 260.29 369.09 207.122 369.09 188.823L369.044 188.836Z" fill="#02897A"/>
<path opacity="0.7" d="M367.929 191.048C367.929 211.496 368.289 262.261 386.899 306.056C403.604 345.35 435.367 373.606 442.437 379.57L317.29 458.717C312.402 454.686 278.91 426.036 261.682 385.508C242.875 341.332 242.875 289.754 242.875 270.336V270.094L367.883 191.036L367.929 191.048ZM369.044 188.836L241.714 269.369C241.714 287.668 241.366 340.836 260.579 386.043C279.49 430.41 317.174 460.243 317.174 460.243L444.538 379.697C444.538 379.697 406.808 349.864 387.955 305.497C368.73 260.29 369.09 207.122 369.09 188.823L369.044 188.836Z" fill="white"/>
<path d="M354.683 215.845L314.423 241.278C313.617 241.764 312.93 242.456 312.42 243.295C311.911 244.134 311.594 245.096 311.497 246.098C311.555 247.713 312.96 248.17 314.62 247.115L354.892 221.682C355.689 221.201 356.368 220.518 356.875 219.691C357.382 218.863 357.701 217.916 357.806 216.926C357.737 215.247 356.355 214.79 354.683 215.845Z" fill="#455A64"/>
<path d="M355.542 233.203L315.281 258.636C314.485 259.105 313.81 259.787 313.319 260.619C312.828 261.45 312.536 262.404 312.472 263.392C312.6 264.956 314.062 265.376 315.722 264.32L355.995 238.888C356.787 238.42 357.458 237.74 357.943 236.91C358.429 236.08 358.713 235.128 358.769 234.144C358.653 232.567 357.214 232.186 355.542 233.203Z" fill="#455A64"/>
<path d="M357.156 250.078L316.884 275.511C315.224 276.567 314.016 278.665 314.214 280.178C314.411 281.691 315.932 282.086 317.603 281.03L357.876 255.597C359.536 254.542 360.72 252.456 360.511 250.943C360.302 249.43 358.816 249.023 357.156 250.078Z" fill="#455A64"/>
<path d="M359.571 266.444L319.299 291.877C317.638 292.932 316.489 294.992 316.768 296.468C317.046 297.943 318.625 298.273 320.251 297.218L360.511 271.785C362.183 270.729 363.297 268.682 363.019 267.207C362.74 265.732 361.289 265.389 359.571 266.444Z" fill="#455A64"/>
<path d="M362.845 282.264L322.572 307.697C320.912 308.752 319.833 310.761 320.251 312.173C320.668 313.584 322.259 313.902 323.919 312.847L364.191 287.414C365.863 286.358 366.908 284.362 366.513 282.938C366.119 281.513 364.505 281.208 362.845 282.264Z" fill="#455A64"/>
<path d="M367.094 297.511L268.949 359.58C267.289 360.635 266.279 362.594 266.732 363.954C267.185 365.315 268.915 365.569 270.575 364.514L368.719 302.445C370.391 301.389 371.354 299.444 370.902 298.07C370.449 296.697 368.696 296.455 367.094 297.511Z" fill="#455A64"/>
<path d="M372.259 312.071L274.127 374.14C272.455 375.195 271.538 377.103 272.095 378.4C272.652 379.697 274.417 379.9 276.112 378.845L374.256 316.776C375.928 315.72 376.822 313.813 376.265 312.516C375.707 311.219 373.931 311.028 372.259 312.071Z" fill="#455A64"/>
<path d="M378.703 325.945L280.558 388.014C278.887 389.069 278.062 390.926 278.724 392.159C279.386 393.393 281.278 393.52 282.95 392.465L381.025 330.396C382.685 329.353 383.486 327.509 382.824 326.275C382.162 325.042 380.328 324.889 378.703 325.945Z" fill="#455A64"/>
<path d="M386.214 339.068L288.081 401.124C286.41 402.18 285.667 403.998 286.421 405.155C287.176 406.313 289.161 406.427 290.833 405.359L388.965 343.29C390.637 342.234 391.357 340.441 390.602 339.271C389.848 338.101 387.886 338.012 386.214 339.068Z" fill="#455A64"/>
<path d="M394.781 351.543L296.637 413.599C294.977 414.654 294.315 416.422 295.151 417.528C295.987 418.635 298.042 418.686 299.714 417.63L397.858 355.536C399.518 354.48 400.18 352.738 399.321 351.632C398.462 350.525 396.453 350.449 394.781 351.543Z" fill="#455A64"/>
<path d="M404.243 363.419L306.133 425.476C304.462 426.531 303.812 428.261 304.787 429.291C305.762 430.321 307.828 430.346 309.488 429.291L407.633 367.222C409.305 366.166 409.885 364.462 408.956 363.407C408.028 362.351 405.938 362.377 404.243 363.419Z" fill="#455A64"/>
<path d="M414.692 374.776L316.547 436.832C314.887 437.888 314.341 439.579 315.386 440.583C316.431 441.588 318.567 441.55 320.239 440.494L418.302 378.425C419.962 377.37 420.485 375.717 419.463 374.699C418.441 373.682 416.317 373.72 414.692 374.776Z" fill="#455A64"/>
<path d="M299.829 250.549L253.532 279.796C254.043 298.172 255.958 324.673 262.97 351.365L309.279 322.117C302.256 295.425 300.34 268.911 299.829 250.549Z" fill="#02897A"/>
<path opacity="0.8" d="M299.829 250.549L253.532 279.796C254.043 298.172 255.958 324.673 262.97 351.365L309.279 322.117C302.256 295.425 300.34 268.911 299.829 250.549Z" fill="#11B5E4"/>
<path d="M272.408 275.753C272.471 274.566 272.302 273.379 271.914 272.27C271.526 271.161 270.927 270.154 270.156 269.318L253.532 279.822C253.671 284.679 253.903 290.109 254.31 295.959C256.472 296.231 258.659 295.789 260.59 294.687C267.126 291.406 272.408 282.899 272.408 275.753Z" fill="#02897A"/>
<path opacity="0.6" d="M272.408 275.753C272.471 274.566 272.302 273.379 271.914 272.27C271.526 271.161 270.927 270.154 270.156 269.318L253.532 279.822C253.671 284.679 253.903 290.109 254.31 295.959C256.472 296.231 258.659 295.789 260.59 294.687C267.126 291.406 272.408 282.899 272.408 275.753Z" fill="white"/>
<path d="M305.344 304.568C302.256 300.308 295.975 287.147 293.293 281.412C293.188 281.185 293.023 280.998 292.82 280.875C292.616 280.752 292.384 280.699 292.153 280.722C291.921 280.746 291.702 280.844 291.522 281.006C291.343 281.167 291.212 281.384 291.146 281.628C288.244 292.491 286.56 303.7 286.131 315.009C282.264 311.646 278.94 307.597 276.298 303.03C276.185 302.853 276.028 302.715 275.846 302.632C275.665 302.549 275.465 302.525 275.271 302.563C275.077 302.6 274.897 302.697 274.752 302.843C274.606 302.989 274.502 303.177 274.452 303.386C269.39 324.737 271.932 345.744 271.932 345.744L309.279 322.117C307.724 316.217 306.435 310.342 305.344 304.568Z" fill="#02897A"/>
<path opacity="0.6" d="M305.344 304.568C302.256 300.308 295.975 287.147 293.293 281.412C293.188 281.185 293.023 280.998 292.82 280.875C292.616 280.752 292.384 280.699 292.153 280.722C291.921 280.746 291.702 280.844 291.522 281.006C291.343 281.167 291.212 281.384 291.146 281.628C288.244 292.491 286.56 303.7 286.131 315.009C282.264 311.646 278.94 307.597 276.298 303.03C276.185 302.853 276.028 302.715 275.846 302.632C275.665 302.549 275.465 302.525 275.271 302.563C275.077 302.6 274.897 302.697 274.752 302.843C274.606 302.989 274.502 303.177 274.452 303.386C269.39 324.737 271.932 345.744 271.932 345.744L309.279 322.117C307.724 316.217 306.435 310.342 305.344 304.568Z" fill="white"/>
</svg>
