<svg width="40" height="36" viewBox="0 0 40 36" fill="none" xmlns="http://www.w3.org/2000/svg">
<path fill-rule="evenodd" clip-rule="evenodd" d="M3.13307 34.1139C1.40988 34.1139 1.59211e-07 32.7182 1.47613e-07 31.0122L7.38884e-08 20.1682L7.88631 20.1682L7.88631 20.1562L12.6263 20.1562C13.8482 20.1251 14.8821 19.0706 14.8821 17.8299C14.8821 16.5582 13.8168 15.5036 12.5323 15.5036L6.26614 15.5036L6.26614 15.5055L4.21887e-08 15.5055L2.10878e-08 12.4018C9.48962e-09 10.6959 1.40988 9.30012 3.13307 9.30012L12.5323 9.30012C14.9134 9.30012 16.9499 10.1376 18.6104 11.8125C20.3023 13.4564 21.1482 15.4726 21.1482 17.8299C21.1482 20.1562 20.3336 22.1723 18.6731 23.8162C17.0126 25.4601 15.0074 26.3286 12.6576 26.3596L6.26614 26.3596L6.26614 31.0122C6.26614 32.7182 4.85626 34.1139 3.13307 34.1139Z" fill="#02BC6B"/>
<path fill-rule="evenodd" clip-rule="evenodd" d="M25.0975 5.7002C28.5589 9.0287 30.3031 13.1742 30.3031 17.8865C30.3031 22.5197 28.6319 26.6613 25.2239 30.0002L20.3852 25.4931C22.5047 23.4166 23.545 20.9166 23.545 17.8865C23.545 14.8333 22.4734 12.3372 20.3031 10.2502L25.0975 5.7002Z" fill="#02897A"/>
<path fill-rule="evenodd" clip-rule="evenodd" d="M32.5055 -3.14562e-08C37.4911 4.92801 39.9999 11.0384 39.9999 18.0514C39.9999 24.9549 37.5922 31.0614 32.6884 36L28.0186 31.4828C31.6715 27.8041 33.4614 23.3422 33.4614 18.0514C33.4614 12.7074 31.6111 8.24939 27.8787 4.56008L32.5055 -3.14562e-08Z" fill="#035B81"/>
<path fill-rule="evenodd" clip-rule="evenodd" d="M0 26.3857L6.26614 26.3857L6.26614 31.0126C6.26614 32.7186 4.85626 34.1143 3.13307 34.1143C1.40988 34.1143 4.30547e-08 32.7186 3.14565e-08 31.0126L0 26.3857Z" fill="#028E37"/>
</svg>
